<svg xmlns="http://www.w3.org/2000/svg" viewBox="0 0 125.02 94.64"><defs><style>.cls-1{fill:#ed6f9d;}</style></defs><g id="Слой_2" data-name="Слой 2"><g id="Слой_1-2" data-name="Слой 1"><path class="cls-1" d="M106.08,68.66a108.16,108.16,0,0,1-41.57,26C53.87,92.5,32.68,86.48,16.89,67.79,12,62-6.18,40.48,2.17,24.49c4.74-9.08,16.25-13,25.11-13,12.24,0,23.69,7.35,29.44,19,.89-3.23,5.12-17.16,19-25.12C79,3.61,89.65-2.48,102.61,1.11c2.47.69,13.26,4,19,14.73,5.35,9.89,3,19.77,1.74,25.11C120.31,53.94,112.56,62.05,106.08,68.66Z"/></g></g></svg>