<svg xmlns="http://www.w3.org/2000/svg" viewBox="0 0 75.69 15.17"><defs><style>.cls-1{fill:#202020;}</style></defs><g id="Слой_2" data-name="Слой 2"><g id="Слой_1-2" data-name="Слой 1"><path class="cls-1" d="M0,7.55c0,.09,0,.28.09.25l.08-.33Z"/><path class="cls-1" d="M.75,8.17a.91.91,0,0,0,.19-.75C.81,7.74.78,7.61.65,8c-.11,0-.19-.1-.17-.22,0,.08-.17-.08-.23.13.14.26.32.27.5.06A.33.33,0,0,1,.75,8.17Z"/><path class="cls-1" d="M11.33,8.68l-.07,0A.09.09,0,0,0,11.33,8.68Z"/><path class="cls-1" d="M17.89,8.86a.08.08,0,0,0-.07.08S17.9,8.89,17.89,8.86Z"/><path class="cls-1" d="M19,9.23l-.07,0S19,9.25,19,9.23Z"/><path class="cls-1" d="M11.33,8.68l.18.11C11.52,8.68,11.42,8.71,11.33,8.68Z"/><path class="cls-1" d="M2.21,7.37a.21.21,0,0,0-.1.09l.09,0A.09.09,0,0,1,2.21,7.37Z"/><path class="cls-1" d="M8.44,9h0a1.09,1.09,0,0,0-.05.14Z"/><path class="cls-1" d="M6.22,9s.07-.27.09-.39c0,.12-.07.17-.11.19A1.68,1.68,0,0,0,6.22,9Z"/><path class="cls-1" d="M2.7,8.51l-.06,0Z"/><path class="cls-1" d="M10,9a.25.25,0,0,0,0,.1A.36.36,0,0,0,10,9Z"/><path class="cls-1" d="M72.09,6.9s0,0,0,0S72.1,6.9,72.09,6.9Z"/><path class="cls-1" d="M74.66,8.29l0,0s0,.1,0,.15Z"/><path class="cls-1" d="M21.06,9.59h0C21,9.62,21,9.61,21.06,9.59Z"/><path class="cls-1" d="M39.87,9.38c-.21-.25.35-.32,0-.6C39.93,8.89,39.61,9.22,39.87,9.38Z"/><path class="cls-1" d="M2.26,7.41h.09A.09.09,0,0,0,2.26,7.41Z"/><path class="cls-1" d="M39.9,8.78h0l0,0Z"/><path class="cls-1" d="M25.78,9.42a.33.33,0,0,0-.05-.12A.21.21,0,0,0,25.78,9.42Z"/><path class="cls-1" d="M22.26,9l.09,0A.12.12,0,0,0,22.26,9Z"/><path class="cls-1" d="M27.61,9s.06.06.12,0,0,0,0,0S27.66,9.07,27.61,9Z"/><path class="cls-1" d="M29.51,9l0,0h-.06Z"/><path class="cls-1" d="M66.31,7a1.14,1.14,0,0,1,.09.26C66.37,7.09,66.65,7,66.31,7Z"/><path class="cls-1" d="M2.21,7.53c0-.07,0-.11,0-.12H2.2A.14.14,0,0,0,2.21,7.53Z"/><path class="cls-1" d="M27.68,6.81l.31,0A1,1,0,0,0,27.68,6.81Z"/><path class="cls-1" d="M52.67,7.07l.07,0S52.69,7,52.67,7.07Z"/><path class="cls-1" d="M28.88,6.81a.54.54,0,0,0,.17.19.43.43,0,0,0,0-.07Z"/><path class="cls-1" d="M66.4,7.29Z"/><path class="cls-1" d="M68.39,6.62c-.29,0-.14.36-.2.58-.34.1-.16-.28-.28-.46-.21.09-.37.43-.53.42s0-.09,0-.16c-.23.29-.67,0-.94.38a.16.16,0,0,1,0-.09,1.9,1.9,0,0,1,0,.51c-.13,0-.24.23-.29,0,.08,0,.09-.09.12-.17l-.13.11c-.12-.35.18-.12.18-.38-.26.11-.57.4-.77.3,0-.34.47-.11.2-.41l.31.13c-.23-.54.19,0,0-.54-.42-.1-.46.17-.88.08-.09.18,0,.27-.06.46-.58.34-.46-.85-.88-.4-.12.23-.16.66-.46.43l.1-.38c-.4,0-.23.55-.64.29.07-.15.31-.13.25-.17-.27-.31-.19.21-.4.21L63,7c-.43.06-.89.3-1.36.37,0-.11.1-.21,0-.32a3.14,3.14,0,0,1-1.83-.24l-.22.29s-.09-.13,0-.18c-.22-.12,0,.18-.12.3s-.17-.17-.09-.26c-.39.25-1.11.54-1.53.22l.08-.09c-.32-.11-.36.61-.66.33l.06,0c-.7-.13-1.48.14-2-.3-.1.42-.69-.19-.74.4-.4-.29-.28-.4-.84-.59-.15,0-.23.36-.41.43V7l-.25.32L52.91,7,52.74,7a.25.25,0,0,1,.14.23c-.27.14-.67-.22-.67-.37l-.65.26c0-.13.13-.17.21-.25-.34.32-.06-.32-.38,0,0,.07,0,.19,0,.25A.78.78,0,0,0,50.58,7l.06-.21a14.35,14.35,0,0,0-1.55.1c.2.1.15.46,0,.5L49,7.07c-.1.2.17.13,0,.37-.2,0-.14-.37,0-.47l-.25.11c0-.1,0-.15.06-.27-.1.2-.42-.33-.56,0l0-.1c-.53,0-.78.11-1.21.13,0,.28-.18.22-.31.45A3.32,3.32,0,0,0,45.61,7c-.28.14-.08.24-.21.4,0-.25-.4-.23-.2-.41A3.52,3.52,0,0,0,44,7.27c.06.1.14.15.1.24s-.24-.11-.23-.24l0,0c-.66.38-1.52-.75-2-.21l0,0-.54.28c-.25,0,.15-.2,0-.35-.59.42-.93-.07-1.41.22-.38-.76-1.33,0-1.84-.43l0,.18c-.13.17-.15-.1-.25-.14,0,.13.14.16.06.25-1.1.22-2.28-.26-3.41-.42-.42,0-.24.92-.76.5l.15-.33c-.84.39-1.71,0-2.53.32.05-.08.05-.18.13-.17-.17-.24-.64,0-.64.18-.13,0,0-.18-.11-.28s-.44.31-.53.07c0,0,.05-.08.08-.1s-.52,0-.41.25c-.31-.13-.59.12-.84,0-.16.31-.52-.15-.57.29,0-.45-.54-.37-.74-.15.07-.14-.17-.14-.09-.33-.22,0-.42.09-.39.32-.4-.54-.82.43-1.05-.26a10.19,10.19,0,0,1-1.86.51c0-.45.66,0,.63-.51-.56.18-.88.57-1.44.46-.14-.06.08-.2.13-.27-.56.18-1.09,0-1.58.2,0,0,.05-.09.1-.12-.1,0-.23-.07-.22.14l.1-.06c.16.3-.39.62-.41.78.17-.59-.49-.15-.23-.89a.31.31,0,0,0-.13.27c-.09,0-.12-.12,0-.27-.35.11-.22.33-.54.32,0-.1.06-.13.09-.25-.16.19-.32.39-.59.3,0-.06,0-.14.07-.13-.47,0-.79.51-1.3.32.15-.43-.18-.14-.2-.51l-.28.11.11.18c-.24,0-.45.27-.65.14l.17-.15-.44.07.25.14c-.24.2,0,.48-.29.37.06,0-.24,0-.37-.22h0c-.12.12-.24.24-.41.15s0-.42,0-.49c-.11.31-.56.08-.71.41a.59.59,0,0,0,0-.31l-.1.25C16,7.73,16,7.69,16,7.54c-.33,0,.11.47-.29.27,0,0,0-.06.08-.1-.4-.11-.77.16-1.13,0-.11-.38.32-.1.19-.41-.52.07-1.09.45-1.6.36l.1,0c-.07.53-.38-.26-.64,0,.06,0,.08-.3.06-.24-.34-.08-.71.13-1.24.3l.07-.14c-.21-.12-.55-.07-.77-.13-.06.14-.19.12-.11.31-.69-.77-1.31.42-1.92-.23.07,0,.17-.12.11-.12l-.51.13c0,.23.06.14.17.32a.4.4,0,0,1-.34.24c.24-.15,0-.37-.1-.5,0,.07,0,.15,0,.22-.27-.41,0,.47-.41.19l0-.12c-.14.06-.27.22-.42.19-.06-.27.15-.13.16-.35-.21,0-.42.51-.61.24C7,8,7.09,8,7.18,7.89,7,7.58,7,7.66,6.8,7.61h0l-.35-.15.09.09c-.26.7-.54.13-.89.58.34-.43.06-.25.08-.55-.09-.08-.22-.18-.19-.26-.16.24-.27-.2-.51.16,0-.1-.18,0-.14-.25-.22.07,0,.17,0,.29-.33.33-.78-.4-1.27,0-.41.19-.49.52-.87.68-.13-.15.1-.35.1-.35a.45.45,0,0,0-.56,0c0-.08,0-.15-.06-.26S2.16,8,2,7.85a1.46,1.46,0,0,1,.16-.39c-.19.08-.37.27-.56.35-.05-.16.11-.25.18-.36-.22.07-.56.15-.63.42l.14.1c-.08,0,0-.24,0-.28.18-.22.27.09.28.19l-.14.06c.14.57.55-.09.83-.06l-.12.42L2.4,8c.06.11.1.34,0,.4.2.21.18-.14.35.09a0,0,0,0,1,0,.07l.2-.13c0,.09,0,.3-.09.24.35.24.56-.32.69,0l0,0c.48-.14,0-.31.4-.67l.25.76,0-.31c.05,0,.15,0,.13.16.18-.21,0-.14.07-.33.24.27.67-.13.72.35.09-.23-.23-.18,0-.34.07.52.29-.09.51.15-.06.27-.27.13,0,.37.13-.46.42.1.61,0,0-.36.4-.15.71-.27,0,.12.59.2.88.33v.06c0-.37.35-.3.57-.37a.45.45,0,0,1-.17.4h.21a.33.33,0,0,1,.24-.22L8.58,9c.27,0,.55-.32.9-.14,0-.25-.28-.71.09-.88,0,.14,0,.38-.07.43s.11-.11.18-.05l-.15.23c.16.1.08-.2.21-.17,0,.19.09.14.07.29s-.11-.08-.16,0A.58.58,0,0,1,10,9c0-.11,0-.26.1-.29.28,0,.1.24.25.34.07-.14.24,0,.25-.29.08,0,.09.14.12.22.14-.13.66,0,.5-.35l0,0,0,0h0c.46-.29,1,.17,1.41,0v.1c.27-.11.61-.06.8-.28.08,0,.19.18.16.3.21-.07.23-.18.53,0-.21.17.08.15-.21.13.27.08.33.24.62,0-.1.25.21.32.33.24l-.19-.18a.89.89,0,0,1,.4,0L15,9.24c.56.41,1-.69,1.43,0,.14-.23-.3-.16-.17-.44.25.05.52.53.6.53.35.18.32-.49.69-.36a.42.42,0,0,1,.18-.55c.26,0,.32.5.15.59s-.09,0-.08-.06-.19.09-.09.22l0-.12c.13.12.48.11.4.3.19-.11.08-.19-.06-.25.32.17.51,0,.84.12-.05-.07-.1-.21-.05-.21.5.15.22-.22.56-.27.19.18-.07.43.27.28.2.12,0,.31,0,.41.3-.23.57.15.75.19l-.16.1a.4.4,0,0,1,.25-.06l-.09-.24c.09.05.17.05.17.14.1-.15-.07-.39.12-.6.13.12.39-.13.43.18-.4-.1.05.32-.29.37a.23.23,0,0,1,.24,0s0,.06,0,.08c.38.28.17-.36.57-.35-.05.18.09.34.16.3-.16,0-.08-.3.06-.43.26.14.28-.11.41-.09L22.11,9c.05-.18.18-.16.36-.21,0,.13-.16.09-.1.15.19-.31.44.32.71.11.13.12,0,.34.13.42.31-.23.33.24.65.05-.09-.24-.11-.18.12-.41l-.53.17.34-.35c-.16,0-.34.15-.43.11.16-.2.14-.14.07-.33.21.35.43-.21.68,0v.59c.38.26.68-.3,1.17-.15L25.11,9c.07-.23.31,0,.47-.12,0,.19.08.26.15.39,0-.15.36,0,.41-.38l.22.26c.4.1.45-.57.84-.5-.12.22.05.36-.2.51.13,0,.24,0,.24-.1.08.12.36-.27.48-.08.05-.08.07-.29.21-.28a.16.16,0,0,1,0,.1c0-.1.22-.13.1-.35.39.62,1.1,0,1.44.49a5.88,5.88,0,0,1,.87-.15c0,.06,0,.1-.05.08.35.18.22-.57.62-.36.2.32-.22.17-.09.29.06.65.48-.09.75.29l-.07,0c.21.22.5-.25.84-.2a.22.22,0,0,0,0,.1,1.78,1.78,0,0,1,1-.54c-.1.26-.15.14-.09.4.15,0,0-.42.25-.49.09.14.3.26.33.54h-.28c.14.36.36,0,.5,0l0,.16c.42,0,.42-.45.87-.42l-.05-.12c.25-.38.21.22.45-.07l.07.4a4.26,4.26,0,0,1,.86-.46,2.4,2.4,0,0,1-.71.62c.16,0,.54,0,.62-.22-.06,0-.14.13-.21.07a.89.89,0,0,1,.78-.46c-.06.77.83.2,1.06.79.56-.28,1.11.12,1.77.08-.23-.6.19,0,.15-.63.15,0,.21,0,.23,0l.46.36c.11.18-.15.14-.13.28.33,0,.14.25.36.42-.05-.22.12-.32.31-.23l-.27-.29c.47-.32.4.52.87.2l-.15.19c.25-.12.9,0,1.13-.49.05.07.1.24,0,.28.58.08,1.28-.52,1.73-.22l0,.15c.11,0,.19-.28.32-.13s0,.15,0,.16.28-.26.43-.18l-.12.17c.56.2.86-.41,1.33-.51,0,.44.45.58.67.66v.06c.66.05,1.11-.37,1.72-.54.38.48,1.28.2,1.89.47-.1-.08,0-.34.12-.39s.39-.3.37.1h0c.11.4.4.29.63.3l0-.53c.59.77,1.56-.28,1.89.41.14-.13.32-.13.46-.26v.28a2.77,2.77,0,0,0,1.09,0l-.1.2c.28,0,.35-.81.61-.83l.07.42c.49,0,1,.37,1.46,0,0,.07,0,.19-.1.21.23,0,.88.28.8-.3,0,.38.5,0,.76-.13l0,.28c.23-.35.23-.45.54-.55.07,0,.07.22,0,.15.24.15.19-.26.48-.11L59.3,9c.26,0,.24-.07.37-.28s.48.07.52.32c0-.15.17-.35.32-.28a.22.22,0,0,1-.06.18c.42.19.62-.32.91-.05a.28.28,0,0,0,0,.17A2.27,2.27,0,0,1,60.83,9c0,.26.27.31.06.66.21-.19.58-.61.85-.49l0,.09,0,0a.16.16,0,0,0,.17-.05.4.4,0,0,0,.22.08c0,.21.31.12.44.13,0-.28.17-.24,0-.47,0,0,0,0-.11,0l-.06,0v0l-.34,0c.11-.15.22-.27.37-.11a3.8,3.8,0,0,1,.19-.45c.18.39.54.6.59.84.41-.16,1-.1,1.22-.63.12-.07.13.15.18.23s-.15,0-.19.12c.24-.13.7-.05.75-.42.3.17-.16.34.24.28l0,.12c.79.59,1.29-1,2.17-.19-.06,0-.09-.07-.1-.13,1,.33,2.07-.31,3.06.22.28.1.31-.13.48-.31L71,9l.3-.35c.41-.25.72.74,1.25.26l-.07-.2c.19,0,.6-.12.57.11,0,0,.06-.21.14-.1v.15l.47-.27c.36.12-.06.63.47.66.19-.06.56-.46.48-.56a.27.27,0,0,1-.21-.26l.18-.08c0-.47.17-1-.27-1.27l-.3.28L74,7.1l.26,0c-.15-.21-.24,0-.35.11a.34.34,0,0,0-.13-.25l-.3.44c0-.18.14-.36-.06-.46-.14.21.13.41-.1.55-.15-.22-.11-.39-.28-.21A.24.24,0,0,1,73.07,7c-.15.15-.4.06-.48.31-.15-.26-.52.07-.5-.37,0,.1-.27.35-.41.36.25-.52-.53,0-.46-.59-.19.47-.69.21-1,.47,0,0,.06-.11.09-.09-.19,0-.25-.18-.37-.27,0,.39-.32.48-.48.72-.23-.38.14-.46.07-.82,0,.32-.4.32-.32.58-.18-.23-.16-.11-.25-.44,0,.49-.16.09-.31.39-.26-.25-.07-.46-.35-.31C68.14,6.8,68.39,6.62,68.39,6.62Zm-6.72.85h.13Zm-.57,0a.94.94,0,0,0,.25,0c0,.09,0,.19-.06.19S61.18,7.56,61.1,7.47Zm1.2,2c-.09,0-.12,0-.14-.07l.16,0s0,0,0,0S62.31,9.39,62.3,9.42Z"/><path class="cls-1" d="M62.46,9.05l0,0L62.44,9l0,.09Z"/><path class="cls-1" d="M11.25,8.64h0a.05.05,0,0,1,0,0A.08.08,0,0,1,11.25,8.64Z"/><polygon class="cls-1" points="53.3 6.94 53.3 7.01 53.35 6.95 53.3 6.94"/><path class="cls-1" d="M8.14,7.67a.25.25,0,0,0,0-.07S8.12,7.64,8.14,7.67Z"/><path class="cls-1" d="M6.8,7.61l-.19-.1A.7.7,0,0,0,6.8,7.61Z"/><path class="cls-1" d="M5.76,7.47s0,.09,0,.12h0Z"/><path class="cls-1" d="M22.19,7.14h0C22.33,7.07,22.26,7.09,22.19,7.14Z"/><path class="cls-1" d="M17.3,7.8l.16-.14C17.37,7.64,17.31,7.64,17.3,7.8Z"/><path class="cls-1" d="M27.65,6.8h0Z"/><path class="cls-1" d="M17.69,7.67a.2.2,0,0,0-.23,0A.31.31,0,0,0,17.69,7.67Z"/><path class="cls-1" d="M1.29,7.34H1.24s0,0,0,0Z"/><path class="cls-1" d="M1.23,7.38l-.06,0S1.22,7.41,1.23,7.38Z"/><path class="cls-1" d="M1.06,7.48l.11-.07S1.08,7.4,1.06,7.48Z"/><path class="cls-1" d="M2.65,7.47l0-.1A.22.22,0,0,0,2.65,7.47Z"/><path class="cls-1" d="M3.07,7.44c-.1,0-.25-.21-.39-.15v.08C2.73,7.22,3,7.61,3.07,7.44Z"/><path class="cls-1" d="M4.8,8.7l-.34-.08c.06.11.14.26,0,.28C4.88,9.23,4.35,8.66,4.8,8.7Z"/><path class="cls-1" d="M5.88,8.86c-.18.05,0,.16,0,.22C6,9,6,9,5.88,8.86Z"/><path class="cls-1" d="M13.69,8.86l0,.26C13.81,9.08,13.67,9,13.69,8.86Z"/><polygon class="cls-1" points="15.18 7.54 15.04 7.38 14.97 7.62 15.18 7.54"/><polygon class="cls-1" points="16.06 9.36 16 9.4 16.24 9.3 16.06 9.36"/><path class="cls-1" d="M29.17,9.27l0-.31C29,9,29,9.37,29.17,9.27Z"/><path class="cls-1" d="M34.83,9c.06.16.22.26.32.1C35,9,34.89,8.91,34.83,9Z"/><polygon class="cls-1" points="51.8 9.46 51.69 9.57 51.9 9.48 51.8 9.46"/><path class="cls-1" d="M68.16,14.91c.06.07.22.19.21.14l-.25-.23Z"/><path class="cls-1" d="M68.76,15.16a3.6,3.6,0,0,0-.55-.51c.23.23.12.15.39.42,0,0-.11,0-.2-.12,0,.07-.09,0,.06.14s.26.1.13-.07Z"/><path class="cls-1" d="M70.89,13.41h0Z"/><path class="cls-1" d="M72.11,12.23a.12.12,0,0,0,0,.06A.13.13,0,0,0,72.11,12.23Z"/><path class="cls-1" d="M72.58,12.24h0S72.6,12.26,72.58,12.24Z"/><path class="cls-1" d="M70.89,13.41l.11,0C70.92,13.37,70.93,13.41,70.89,13.41Z"/><path class="cls-1" d="M68.38,14.36l.05.08s0,0,0,0Z"/><path class="cls-1" d="M70.62,14.15h0a.76.76,0,0,0,.09.09Z"/><path class="cls-1" d="M70.3,14.62a3,3,0,0,0-.29-.27c.09.08.12.12.13.15Z"/><path class="cls-1" d="M69.34,15l0,0Z"/><path class="cls-1" d="M70.93,13.87l.08.07Z"/><path class="cls-1" d="M67.78,1.87l0,0A.07.07,0,0,0,67.78,1.87Z"/><polygon class="cls-1" points="68.44 0.48 68.46 0.48 68.58 0.38 68.44 0.48"/><path class="cls-1" d="M73.19,12.07Z"/><path class="cls-1" d="M75.09,6.94c-.18.18-.38,0-.56.27C74.62,7.15,75,7.1,75.09,6.94Z"/><path class="cls-1" d="M68.42,14.38a0,0,0,0,1,0,0S68.42,14.37,68.42,14.38Z"/><polygon class="cls-1" points="74.53 7.21 74.53 7.21 74.51 7.23 74.53 7.21"/><path class="cls-1" d="M73.84,11l-.1-.07Z"/><path class="cls-1" d="M73,11.47h0Z"/><path class="cls-1" d="M73.84,10.42s0,0,0,0h0S73.88,10.43,73.84,10.42Z"/><path class="cls-1" d="M74.15,10l-.05,0v0Z"/><path class="cls-1" d="M68.82,2.94,69,2.76C68.85,2.89,68.75,2.88,68.82,2.94Z"/><path class="cls-1" d="M68.5,14.47l-.08-.09v0Z"/><path class="cls-1" d="M72.15,9l.08,0A.08.08,0,0,0,72.15,9Z"/><path class="cls-1" d="M71.06,5.64h0S71,5.65,71.06,5.64Z"/><path class="cls-1" d="M72.35,8.74a.71.71,0,0,0,.17.09l0-.05Z"/><path class="cls-1" d="M69,2.76Z"/><path class="cls-1" d="M68.16,2.78c0,.07.3-.2.48-.32s-.19.21-.31.35c.11,0,.4-.2.41-.16a.63.63,0,0,1-.12.1c.26-.14.12.13.45,0L69,2.76l.39-.33s.22-.1,0,.07c0,0-.08,0-.15.08l.11,0c-.25.24-.13,0-.33.2.13,0,.41-.14.36,0-.26.22-.16,0-.35.22l.05-.14c-.38.38,0-.06-.42.34,0,.15.21,0,.2.13.16-.1.22-.18.38-.28.35-.1-.59.63-.17.43.19-.12.53-.39.41-.18l-.32.22c0,.1.47-.3.33-.06-.13.08-.15,0-.17.06-.19.25.2-.1.23-.06l-.26.23c.11.05.38,0,.5,0a1.11,1.11,0,0,0-.24.2c.23,0,.18.28.11.52L70,4.23s-.08.1-.14.12.15-.11.26-.16-.11.14-.19.18c.26-.08.6-.12.42.16l-.08,0c0,.14.53-.3.36-.07l0,0c0,.22.35.2.09.59.35-.25,0,.26.44-.11-.17.27-.27.31-.33.55,0,0,.32-.19.4-.19l-.24.19.29-.15-.26.26.09,0a.62.62,0,0,1,.15-.17c.16,0-.06.27-.18.37l.31,0a.79.79,0,0,1-.23.11c.3-.13-.24.22,0,.1,0,0,.14-.11.19-.15-.12.15-.06.22,0,.22l-.17.13c0,.13.24.13.33.24a.91.91,0,0,1,.39-.31l-.24.22c.17-.11.07-.11.29-.23,0,.07-.27.26-.37.31l.13,0a1.4,1.4,0,0,1-.22.16c.17-.1-.19.29.11.1l-.07.06c.08.11.21.09.29.17.22-.18.2-.1.4-.22,0,.12-.13.33,0,.39s.19-.13.34-.21c-.19.16-.11.22-.29.3.11.07.14.09.4.07a.69.69,0,0,1,.17-.17s0,.12-.15.19h0c.4-.11-.34.78.16.55h0l.3-.07c0,.07-.17.1-.26.23.37-.22,0,.08.25,0-.34.18-.33.17-.27.17s.16,0-.1.05l.19,0c.2,0-.1,0-.15,0L73,8.11c.15,0,.1.08,0,.1a1.44,1.44,0,0,1-.43,0s1,.23.52.15l-.34-.1c.38.16,0,0,.21.24l-.13-.11c-.21-.13,0,0,.11.16,0,0-.14-.11-.23-.16s.16.29,0,.15a.21.21,0,0,1-.06-.08c.07.1-.11.09.12.24-.15,0,0,.2-.17.14.21.23-.2,0,.13.3-.34-.29-.37-.13-.24,0-.09-.1-.13-.06-.27-.19,0,0,0,.14.19.28-.49-.27.2.44-.37,0A2.11,2.11,0,0,1,72,10c-.34-.3.08-.16-.29-.46,0,.23.29.54.12.58s-.14-.14-.19-.2c0,.23-.21.19-.1.44a.23.23,0,0,1-.08-.09s-.09,0,.07.13l0-.06c.26.16.42.48.53.58-.42-.41-.19,0-.72-.52a1,1,0,0,0,.19.2c-.05,0-.11,0-.22-.17,0,.14.22.25.16.31s-.09-.1-.18-.18c.13.16.25.31.14.31s-.11-.08-.09-.1.26.49,0,.47c-.3-.31-.13-.06-.42-.29l0,.12.15.1s.13.26,0,.22l-.08-.13,0,.13.15,0c.1.17.36.3.23.29s0,0-.23-.07h0c.07.1.15.2,0,.18s-.32-.27-.38-.32c.22.23,0,.17.2.41,0-.06-.2-.18-.23-.21l.18.19a.64.64,0,0,1-.23-.16c-.09,0,.38.28.16.23a.29.29,0,0,1-.07-.08c-.14,0,0,.26-.15.25-.31-.22,0-.12-.29-.3,0,.15.17.5,0,.55h.05c.39.36-.27-.09-.12.12a1,1,0,0,0-.17-.16c-.12,0,0,.22,0,.43l-.09-.1c-.13,0-.14.07-.23.07.1.1.06.11.22.22-.71-.36.11.53-.49.23,0,0-.06-.11-.07-.1v.19a1.88,1.88,0,0,0,.27.17c.1.1.16.19.13.22-.07-.15-.28-.24-.4-.3l.17.14c-.36-.21.35.31.08.2l-.09-.08c0,.07.12.2.07.2-.21-.15-.07-.1-.24-.25,0,.05.33.41.09.28,0-.07,0-.1-.06-.16-.28-.16-.22-.11-.29-.11h0l-.17,0,.08,0c.5.5,0,.19.31.55-.28-.35-.19-.17-.41-.37a.92.92,0,0,1-.24-.13c.16.19-.19-.07,0,.2-.07-.06,0,0-.21-.13,0,.09.13.1.23.18.2.28-.44-.1-.17.28.07.21.31.43.38.61a.74.74,0,0,1-.26-.25c-.14-.05-.15,0-.1.11a1.28,1.28,0,0,0-.21-.16c0,.05.25.25.11.2l-.28-.28c0,.09.15.25.19.34a1.58,1.58,0,0,1-.26-.27.65.65,0,0,0,.23.39l.09,0a.82.82,0,0,1-.21-.19c-.13-.17.12,0,.19.07l0,.07c.46.34,0-.17.09-.2l.3.29-.22-.28a1.21,1.21,0,0,1,.31.26c.19.1-.09-.12.12,0l0,.05-.06-.12c.06.06.23.18.16.17.24.08-.15-.32.12-.14v0c0-.18-.22-.2-.44-.5l.62.43-.23-.2s0,0,.14.07c-.13-.17-.1-.08-.24-.23.26.13,0-.21.39.09-.16-.16-.17-.07-.25-.22.41.32,0-.12.2,0s0,.14.27.25c-.33-.32.15,0,.11-.11-.28-.24,0-.18-.09-.32.09.08.25,0,.4,0l0,0c-.27-.25-.17-.26-.19-.35a1,1,0,0,1,.28.29l0,0a.39.39,0,0,1-.13-.19l.2.19c0-.07-.16-.32,0-.27-.19-.17-.59-.4-.66-.59a3.52,3.52,0,0,1,.32.29s-.07-.09,0-.07l.16.18c.1,0-.14-.14-.1-.15s.12.07.24.18-.08,0,0,0a.67.67,0,0,1,.29.12c-.09-.06-.2-.17-.2-.2s.19.13.3.16c-.1-.1,0,0-.18-.23,0,0,.12.07.18.12-.07-.11.08-.16-.18-.33h0v0h0c-.15-.27.28-.08.26-.25l.08.07c0-.13,0-.17-.08-.34,0,0,.17.08.25.16,0-.09-.1-.17.07-.12s.13.08.06.12c.11,0,.25.09.09-.14.17.18.27.17.24.09l-.17-.08c0-.05,0-.06.07-.07l.24.23c.4.15-.36-.64.23-.29-.16-.18-.18-.05-.37-.25.08,0,.49.23.51.22.19,0-.32-.38-.17-.37a1.18,1.18,0,0,1-.39-.38c.08,0,.44.25.48.35s0,0-.06,0a.3.3,0,0,0,.15.16l-.08-.08c.11.05.16,0,.3.11a.27.27,0,0,0-.21-.15c.18.05.09-.1.23-.09-.06,0-.17-.11-.16-.12.19,0-.14-.19-.13-.29.17.08.32.29.26.13a.75.75,0,0,1,.31.27c-.12-.21.21,0,.27,0l.05.09c0-.06,0-.07,0-.08l-.2-.14s.07,0,.14.06c-.1-.12-.31-.24-.45-.42.12.06,0-.15.22,0-.15,0,.25.19.23.29s0-.05,0,0l0,.06c.28.1-.24-.26-.17-.34.13.13.27.2.25.16S73,11.72,73,11.6c.15,0,0-.12,0-.13h-.07c-.13-.13-.09-.14-.1-.21.11.09,0,.09.1.12-.21-.24.32.12.21-.07.11,0,.25.21.33.24-.12-.21.25.09.15-.09a.83.83,0,0,1-.3-.29l0,.21-.21-.29s.06.17,0,.16a.56.56,0,0,0-.25-.23c.32.19-.08-.22.14-.11l.46.38c.26.09-.13-.33.07-.33l-.11,0c-.16-.16,0-.08,0-.17a1.87,1.87,0,0,0,.33.22c-.12-.09.07-.06-.23-.32l.24.12c.15,0-.36-.45-.24-.48.14.16.28.21.35.36,0,0,.07,0,0-.11.11.06-.15-.24,0-.14-.06-.07-.22-.21-.18-.22l.07.06c-.07-.06-.06-.13-.25-.25.54.32.15-.24.61,0a.66.66,0,0,1,0-.26c.05,0,.08.06.05.06.2,0-.4-.41-.17-.36s.09.16.21.21c.5.41,0-.18.4,0l0,0c.24.05-.08-.29,0-.35l.09,0a.82.82,0,0,1-.29-.48c.24.11.1.09.38.16,0,0-.43-.14-.45-.23A4.42,4.42,0,0,1,75,8.9L75,9c.41.07.08-.11.18-.13l.16.05c.06-.15-.38-.24-.26-.35h-.14c-.41-.12.3,0,0-.12l.49,0c-.07,0-.3-.17-.37-.23l0,0,.16,0a1.54,1.54,0,0,1,.49.2c0-.05.11-.17-.13-.19,0,0,.14,0,0,.06l-.27-.07c-.22,0-.34-.08-.38-.13,1,0,.06-.23.69-.4-.46-.12-.17-.4-.41-.63-.51.32-.07-.06-.64.22-.06,0-.07,0,0-.07a3.37,3.37,0,0,0,.21-.31c.13-.13.16,0,.28-.09-.06-.15.18-.18.25-.36-.17.14-.3.13-.28,0l-.16.26c-.2,0-.12-.09,0-.21s.12-.25,0-.18l.17-.09c-.12,0-.14-.18-.56.08a.87.87,0,0,1,.22-.18c0-.16-.61.07-.45-.21l.12-.08c-.05,0-.24.14-.15,0a.84.84,0,0,0,.12-.1s-.25.1-.2,0l.15-.08c.06-.24-.46.08-.62,0,.34-.27.38-.45.4-.54l.05,0c-.06-.16-.46,0-.69,0,.31-.38,0-.38.06-.67a1.12,1.12,0,0,1-.33.22c0-.09-.3.11,0-.14h0c.29-.27.16-.26.14-.31l-.42.32c.5-.6-.47-.13,0-.63-.13.06-.16,0-.28.07l.22-.17c0-.13,0-.19-.14-.25l.17-.1c0-.07-.69.44-.75.4l.32-.28c-.08-.1.12-.43-.25-.28a.77.77,0,0,1,.17-.11s.08-.36-.36,0c.3-.24-.05-.13-.22-.07l.22-.17c-.31.18-.39.24-.51.24s.16-.15.12-.09c.07-.14-.24.13-.17,0l.16-.09c0-.07-.1,0-.28.1s0-.14.17-.31c-.13.09-.31.2-.28.12a.72.72,0,0,1,.15-.1c.08-.21-.35.08-.18-.15a1.25,1.25,0,0,0,.12-.12c0,.07.08.14.06.14.2-.16.19-.24.5-.42-.19.08-.57.27-.52.14l.06-.06,0,0s0,0-.06,0,0-.08,0-.09c.17-.14,0-.14,0-.17-.22.18-.21.11-.36.29H71l.07.06c-.13.07-.24.12-.14,0l-.38.25c.27-.28.38-.49.56-.65-.19,0-.24-.13-.69.16-.07,0,.09-.13.15-.19s.06,0,.12,0c-.14,0-.15-.1-.44.12.08-.16.29-.18.17-.22l.1-.06c.33-.53-.94.33-.49-.32a.41.41,0,0,1-.09.1c.1-.41-.58-.22-.33-.75,0-.12-.15,0-.31.1l.22-.2L69.22,1c-.26.08.46-.61,0-.41l-.15.14c0-.06-.19-.05,0-.19,0,0-.17.12-.1,0l.12-.1L68.8.51c0-.15.5-.39.44-.51a1.49,1.49,0,0,0-.52.26s0,.1-.17.2l-.09,0a4.2,4.2,0,0,0-.94.85l.27-.12-.16.16,0,0c-.14.17,0,.07.14,0l-.18.19.4-.22c-.14.12-.31.2-.35.3.18-.1.29-.28.44-.32-.14.16-.28.26-.12.18a.61.61,0,0,1-.2.14c.13-.06.11,0,.32-.1-.18.2.13.07-.21.34a1.07,1.07,0,0,1,.35-.15c-.45.28.06.13-.39.47.4-.26.27,0,.53-.09l-.08,0c0,.06-.1.16-.15.24A2.71,2.71,0,0,1,68.72,2c-.26.28-.39.26-.66.5.25-.2.32-.11.51-.3a1.41,1.41,0,0,1-.3.33c.38-.3.09,0,.35-.18-.15.2-.35.3-.19.26A.55.55,0,0,1,68.16,2.78Zm1.75.81h0l0,0ZM70,3.7a.05.05,0,0,0,0-.05c.07-.07.15-.13.16-.11A.56.56,0,0,0,70,3.7Zm1.32-1.46c.05,0,0,0,0,.07h-.05l0,0Z"/><path class="cls-1" d="M71,2.44h0l0,.05L71,2.44Z"/><path class="cls-1" d="M70.85,13.39h0l0,0Z"/><polygon class="cls-1" points="70.85 5.6 70.9 5.55 70.85 5.58 70.85 5.6"/><path class="cls-1" d="M69.59,13.39l-.06,0Z"/><path class="cls-1" d="M69.32,13.61l-.1,0Z"/><path class="cls-1" d="M69.05,13.73l.09.08h0Z"/><path class="cls-1" d="M71.5,10.28v0S71.48,10.23,71.5,10.28Z"/><path class="cls-1" d="M71.2,11.66a.83.83,0,0,1-.08-.12S71.08,11.56,71.2,11.66Z"/><polygon class="cls-1" points="72.14 8.98 72.14 8.98 72.15 8.98 72.14 8.98"/><path class="cls-1" d="M71.16,11.5s-.06,0,0,0S71.18,11.54,71.16,11.5Z"/><path class="cls-1" d="M68.21,14.53h0l0,0Z"/><path class="cls-1" d="M68.23,14.56v0S68.25,14.58,68.23,14.56Z"/><path class="cls-1" d="M68.28,14.66l0-.07S68.22,14.61,68.28,14.66Z"/><path class="cls-1" d="M68.54,14.34l-.08-.07Z"/><path class="cls-1" d="M68.58,14.24s-.21-.09-.18,0l.06,0C68.35,14.16,68.7,14.37,68.58,14.24Z"/><path class="cls-1" d="M69.83,14.71h-.11c.09.06.21.14.21.19C70.25,15,69.73,14.77,69.83,14.71Z"/><path class="cls-1" d="M70.13,14.6c0,.06.13.1.17.14S70.23,14.63,70.13,14.6Z"/><path class="cls-1" d="M71.42,13.06l.19.16C71.61,13.17,71.54,13.16,71.42,13.06Z"/><polygon class="cls-1" points="70.65 11.91 70.51 11.84 70.67 12 70.65 11.91"/><polygon class="cls-1" points="72.19 12.91 72.21 12.95 72.18 12.84 72.19 12.91"/><path class="cls-1" d="M74.28,10.26,74,10.07C74.06,10.13,74.33,10.36,74.28,10.26Z"/><path class="cls-1" d="M75.26,8.6c.2,0,.36,0,.2-.08S75.23,8.57,75.26,8.6Z"/><polygon class="cls-1" points="73.05 4.31 73.15 4.26 73.05 4.28 73.05 4.31"/></g></g></svg>