<svg xmlns="http://www.w3.org/2000/svg" viewBox="0 0 267 113.78"><defs><style>.cls-1,.cls-2{fill:#fff;}.cls-2{stroke:#fff;}.cls-2,.cls-4{stroke-miterlimit:10;}.cls-3{fill:#ed6f9d;}.cls-4{fill:none;stroke:#ed6f9d;}</style></defs><g id="Слой_2" data-name="Слой 2"><g id="Слой_1-2" data-name="Слой 1"><rect class="cls-1" y="0.09" width="267" height="113"/><circle class="cls-2" cx="116.6" cy="57.2" r="56.06" transform="translate(45.86 166.12) rotate(-83.13)"/><path class="cls-3" d="M165.5,27.62l-.89-1.42a54.93,54.93,0,0,0-5-6.53A56.06,56.06,0,0,0,145.78,8.28l-.61-.35c10.67,6,13.53,24.19,6.08,46.16a1.46,1.46,0,0,1,.51.51c12.33-11.7,17-21.66,13.74-27Z"/><path class="cls-3" d="M109,1.35l-3.8.72A57.67,57.67,0,0,0,94.83,5.5a56.85,56.85,0,0,0-8.91,5A54.3,54.3,0,0,0,79,16.07c15.25-12.28,49.73,6.29,71,38.2a1.19,1.19,0,0,1,.55-.3h.07c-5.74-37.44-25.67-55-41.51-52.61Z"/><path class="cls-3" d="M64.07,40c-.32,1.16-.78,2.7-1.06,3.88A56.05,56.05,0,0,0,61.53,58.2c.1,1.63.24,3.8.41,5.42.1.71,3.67,1,11,.74,18-.66,52-4.48,76.55-8.59a1.86,1.86,0,0,1,.07-.82C126.27,43.68,93.38,35.17,75.38,35.83c-6.82.24-10.54,1.78-11.31,4.2Z"/><path class="cls-3" d="M71.36,88.5c1.21,1.64,2.87,3.79,4.17,5.35a54.71,54.71,0,0,0,6.25,6.06,56.52,56.52,0,0,0,7.61,5.32c1.2.64,2.78,1.53,4,2.12a17.81,17.81,0,0,0,8.49,1.66c18-.65,39.43-23.78,48.39-52a1.32,1.32,0,0,1-.53-.47C130.78,76,101.32,92,83.33,92.66c-6,.22-10-1.3-12-4.16Z"/><path class="cls-3" d="M130.44,111.33a55.69,55.69,0,0,0,18.82-8.28,56.34,56.34,0,0,0,7.31-6L158.62,95c6.52-7,4.31-21.54-7-38.22a1.16,1.16,0,0,1-.59.35c4.34,35.1-8.36,51.14-20.55,54.21Z"/><path class="cls-3" d="M171.89,70.74l.28-1.13a52.2,52.2,0,0,0,1.2-7.11,53.89,53.89,0,0,0,.27-7.19A54.49,54.49,0,0,0,173,48c.23,1.47-7,4.11-21,7.3a2.08,2.08,0,0,1,0,.8c13.93,5.88,20.83,11.25,19.93,14.68Z"/><circle class="cls-4" cx="117.43" cy="56.57" r="56.07"/></g></g></svg>