<svg xmlns="http://www.w3.org/2000/svg" viewBox="0 0 428.54 400.01"><defs><style>.cls-1{fill:#c4ebe3;}</style></defs><g id="Слой_2" data-name="Слой 2"><g id="Слой_1-2" data-name="Слой 1"><path class="cls-1" d="M122.67,114.45c-41.28,29-68,23.59-95,59-18.28,24-23.14,48.85-25,59-2.15,11.66-9.82,57.27,17,101,35.53,57.93,102.56,65.22,111,66,44.05,4.06,75.93-13.93,131-45,24.38-13.76,62.79-35.85,101-78,34.84-38.44,60.06-66.26,65-109,6.48-56-23.51-123.89-84-153-44.87-21.59-98.35-17.94-136,4C162.26,44.89,176.87,76.35,122.67,114.45Z"/></g></g></svg>