<svg xmlns="http://www.w3.org/2000/svg" viewBox="0 0 471.67 537.16"><defs><style>.cls-1{fill:#c4ebe3;}</style></defs><g id="Слой_2" data-name="Слой 2"><g id="Слой_1-2" data-name="Слой 1"><path class="cls-1" d="M202,97.86c17.12-15,17.32-24.82,47-51,23.65-20.87,39.22-34.61,64-42,46.81-14,88.3,6.12,98,11,16.68,8.39,43.13,21.68,55,51,17.39,43-10.31,86.49-17,97-16.5,25.9-27.9,18.68-41,41-19.66,33.47-11.5,74.39-4,112,7.92,39.75,15,37.76,16,59,2.86,59.85-51.7,107.59-63,117C306.37,535,233.93,548,170,527.86,106.89,508,73.71,461,53,431.86,35.34,407-.87,354.4,0,279.86c.31-25.87,1.27-106.45,53-142C102,104.18,152.33,141.35,202,97.86Z"/></g></g></svg>