<svg xmlns="http://www.w3.org/2000/svg" viewBox="0 0 509.91 366.15"><defs><style>.cls-1{fill:#c4ebe3;}</style></defs><g id="Слой_2" data-name="Слой 2"><g id="Слой_1-2" data-name="Слой 1"><path class="cls-1" d="M169.1,22.15c18,16,10.51,25.43,32,47,30,30.14,68,35.12,76,36,15.93,1.76,30.63-1.57,60-8,56.47-12.37,59.88-22.06,86-21,6.79.27,51.07,2.06,74,35,16.43,23.59,13.19,50.66,11,69-4.72,39.5-24.87,66.43-41,88-10.63,14.21-30.16,40.23-65,62-55.59,34.72-110.48,36-130,36-48.46.1-84.31-13.06-108-22-35-13.23-78.62-29.56-115-73a211.8,211.8,0,0,1-44-88c-5-22.15-13-75.74,14-127,7.48-14.19,17-31,37-43C91.19-7.92,141-2.76,169.1,22.15Z"/></g></g></svg>