<svg xmlns="http://www.w3.org/2000/svg" viewBox="0 0 396.14 155.05"><defs><style>.cls-1{fill:#57585b;}</style></defs><g id="Слой_2" data-name="Слой 2"><g id="Слой_1-2" data-name="Слой 1"><path class="cls-1" d="M395,82.18c0,.48.27.23.33-1.07l-.25-1Z"/><path class="cls-1" d="M395.48,73.37a16.43,16.43,0,0,0-.66-2c-.23-.47-.42-.63-.46-.12.56,1.44.54,1.81,1.07,3.41.21,1.3,0,2.29-.08,2.07a6.92,6.92,0,0,1,.07,1.28,5.84,5.84,0,0,0,.09,1.46,15.58,15.58,0,0,0-.26-6.12C395.24,72.82,395.41,73.27,395.48,73.37Z"/><path class="cls-1" d="M294.15,6.92l.82.16C294.75,7,294.47,7,294.15,6.92Z"/><path class="cls-1" d="M214.21.49a3.13,3.13,0,0,0,.9-.06A3.77,3.77,0,0,0,214.21.49Z"/><path class="cls-1" d="M200.5.17h.81A3.7,3.7,0,0,0,200.5.17Z"/><path class="cls-1" d="M294.15,6.92l-2.1-.43A9.71,9.71,0,0,0,294.15,6.92Z"/><path class="cls-1" d="M388.79,57.11l.64,1c-.18-.31-.37-.61-.56-.92Z"/><path class="cls-1" d="M328.94,13.48l.63.16h.57Z"/><path class="cls-1" d="M354.59,22.65a1.66,1.66,0,0,0-1.13-.13,5.1,5.1,0,0,1,1.29.43S354.74,22.81,354.59,22.65Z"/><path class="cls-1" d="M386.47,51.4c.16.2.32.4.47.61C386.83,51.85,386.62,51.58,386.47,51.4Z"/><path class="cls-1" d="M309.94,9.26a.61.61,0,0,0-.23-.14S309.8,9.21,309.94,9.26Z"/><path class="cls-1" d="M379.38,107.92s0,0,0,0S379.54,107.78,379.38,107.92Z"/><path class="cls-1" d="M395.71,82.26l0,.43c0,.06.08.11.14.12Z"/><path class="cls-1" d="M175.39.7h.11C176.16.63,175.79.66,175.39.7Z"/><path class="cls-1" d="M9.05,103.24c-1.4-2.26,2.85,3.23.67-.11C9.86,103.5,7.19,100.51,9.05,103.24Z"/><path class="cls-1" d="M388.47,56.49c-.19-.31-.37-.63-.57-.94C388.16,56,388.33,56.27,388.47,56.49Z"/><path class="cls-1" d="M9.72,103.13h0l-.22-.34Z"/><path class="cls-1" d="M117.89,6.93a3.34,3.34,0,0,0,.6,0S118.33,6.92,117.89,6.93Z"/><path class="cls-1" d="M160.72,2.31l-1.07.06Z"/><path class="cls-1" d="M95.9,11a15.08,15.08,0,0,0-1.55.26h.25A6.69,6.69,0,0,1,95.9,11Z"/><path class="cls-1" d="M73.12,15.87l.43,0,.71-.19Z"/><path class="cls-1" d="M319.09,142.76a6.65,6.65,0,0,1,1.1-.09C319.79,142.59,323,141.47,319.09,142.76Z"/><path class="cls-1" d="M388.92,57a1.72,1.72,0,0,1-.45-.53l.4.65C388.94,57.18,389,57.17,388.92,57Z"/><path class="cls-1" d="M95.38,13.37,91.75,14Z"/><path class="cls-1" d="M153.78,150.07h.85A6.17,6.17,0,0,0,153.78,150.07Z"/><path class="cls-1" d="M81.06,16.27a17.31,17.31,0,0,0-2.06.26c-.14.06-.31.12-.4.17C79.42,16.55,80.24,16.4,81.06,16.27Z"/><path class="cls-1" d="M320.19,142.67Z"/><path class="cls-1" d="M342.2,132.82c-3.12,1.54-1.3,1.05-1.87,1.57-3.71,1.92-1.86.59-3.22,1-1.15.6-2.16,1.16-3.1,1.67a23.42,23.42,0,0,1-2.71,1.34c-.16,0-.52.12-.14-.12-2.42,1.35-7.6,3-10.54,4.32a1.67,1.67,0,0,1-.43,0c.56,0,.69.17.63.33-1.49.49-2.7,1.13-3.35,1.06a4.62,4.62,0,0,0,1.38-.61l-1.54.6c-1.52.11,2.11-.78,2-1a83.27,83.27,0,0,1-8.95,2.94c-.57-.17,5.52-1.65,2.28-1,1.23-.31,2.46-.61,3.69-.94-2.94.33,2.21-.63-.5-.41-4.82,1.3-5.32,1.72-10.19,2.82-1.05.45.43.19-.62.63a21.55,21.55,0,0,1-6,1.1,17.4,17.4,0,0,0-4.64.73,13.28,13.28,0,0,1-5.44,1.34l1.2-.57c-4.79.7-2.66,1-7.73,1.36.88-.26,3.77-.6,3-.56-3.3.1-2.27.54-4.79.8l-.56-.28c-5.11.62-10.78,1.22-16.5,1.53.32-.11,1.29-.26-.05-.31-7.21.48-15.42.34-22.39.12l-2.66.27c-.62,0-1.15-.14-.48-.19-2.72-.13-.14.19-1.45.29-1.55,0-2-.18-1.06-.26-4.8.21-13.68.37-18.74,0l1-.07c-3.94-.19-4.46.53-8.11.19l.71,0c-8.55-.27-18-.24-24.51-.88-1.25.4-8.45-.49-9,.09-4.86-.48-3.46-.55-10.32-1.05-1.83-.1-2.75.25-5,.18l0-.31-3.1.15-1.61-.47-2.13,0c.84.07,1.79.24,1.66.33a43,43,0,0,1-8.15-.9c-2.62-.11-5.24-.17-7.86-.32a19.64,19.64,0,0,1,2.55,0c-4.21,0-.74-.38-4.59-.41.51.11-.29.16-.39.21-1.89-.36-6.24-.68-9.45-.95l.63-.15c-2.89-.33-6-.61-9.09-.91s-6.37-.71-9.61-1.11c2.31.39,1.73.69-.18.49l-.72-.42c-1.25,0,2,.37-.58.3-2.42-.36-1.58-.58-.18-.5-1-.07-2-.21-3-.31-.16-.12.54-.07.73-.17-1.23,0-5-1.07-6.8-1l-.15-.12c-3.24-.45-5.56-.91-7.75-1.25s-4.25-.66-6.85-1.2c-.15.25-2.17-.25-3.77-.36-1.89-.47-3.9-.94-6-1.51s-4.24-1.22-6.52-1.81c-3.23-.7-1,0-2.48-.23-.17-.29-4.63-1.71-2.27-1.14l-6.3-1.94c-1.89-.61-3.9-1.41-7.26-2.59.68.37,1.47.73,1,.65-1.22-.43-2.7-1.17-2.48-1.22l.33.1a55.72,55.72,0,0,1-11.36-6.2c-3.65-2.46-7-5-9.62-6.76l.3.19-2.7-1.9c-.88-.66-1.74-1.34-2.61-2-2.28-2,1.51,1-.09-.54a38.88,38.88,0,0,1-3.71-3.1l-1.56-1.46-1.38-1.47c-.9-1-1.79-1.89-2.62-2.9s-1.77-2-2.68-3.12c-1.11-2-3.37-5.22-5.24-8.9A35.16,35.16,0,0,1,3.6,87.78a21.89,21.89,0,0,1-.88-5.13L2.58,83a8.22,8.22,0,0,1,0-3c-.17.16-.1,1.66-.25.72a33.62,33.62,0,0,1,5.3-19.06A68.91,68.91,0,0,1,21,46.24a16.93,16.93,0,0,0,2.82-3A15,15,0,0,1,27.73,40l-1.21,1.37a115.59,115.59,0,0,1,12.42-9.11A119.79,119.79,0,0,1,52.2,24.89a10,10,0,0,1-1.36.81c1-.36,2.76-1.1,4.28-1.8a15.7,15.7,0,0,0,2.81-1.37c1.46-.5.39,0,1.32-.18,2-.6,4.89-2,6-2.09.2,0-.54.24-.9.38.63-.26,2.17-.71,3.37-1.08s2.1-.63,1.42-.59c3.63-.89,6.89-1.92,9.83-2.44,1.83-.74,6.29-1.23,6.81-1.77-.18.48,6.5-1,8.8-1.58-.76.27,2-.23,1.17.12,2.66-.49,5.09-1,4.58-1.16,5-.38,9.81-2.11,12.69-1.9,7.9-1.46,15.24-2.7,22.41-3.66-.2.47-7.93,1-7.55,1.49,6.77-1.09,10.65-1.94,17.43-2.59,1.75-.13-1,.31-1.56.45C150.57,5,157,4.62,163,3.9a7.73,7.73,0,0,1-1.28.22c1.2-.11,2.79-.15,2.64-.35l-1.16.15c-1.94-.14,4.71-1,4.91-1.16-2,.73,6-.26,2.84.7.79-.09,1.77-.26,1.58-.38,1.18,0,1.55,0,.38.25,4.29-.36,2.75-.51,6.64-.7,0,.1-.79.17-1.19.31a47.14,47.14,0,0,1,7.23-.64c-.19.06.19.13-.79.17,5.65-.27,9.63-.86,15.85-.75-1.83.46,2.11.1,2.45.49l3.33-.13-1.34-.18c2.93,0,5.52-.28,8-.14L211,1.9l5.48,0-3.1-.17c3-.17-.32-.48,3.58-.34-.79,0,2.93,0,4.45.3h0a33.93,33.93,0,0,1,5.11,0c.56.13-.47.4-.1.49,1.44-.29,6.85.14,8.67-.12-.61,0-.65.25-.45.3l1.21-.21c1.35.15,1.55.2,1.32.34,4.07.25-1.27-.53,3.55-.09-.38,0-.2,0-1,0,4.85.35,9.39.38,13.84.84,1.28.47-3.9-.19-2.42.23,6.42.38,13.33.62,19.51,1.39l-1.15-.17c.92-.43,4.59.74,7.75.89-.78,0-1,.17-.83.14,4.23.59,8.67.93,15.1,1.72l-.82,0c2.48.46,6.54,1.07,9.21,1.56.82,0,2.35.29,1.45-.07,8.12,2.14,15.81,2.43,22.91,4.77-.87-.2-2.09-.36-1.4-.2l3.09.65,3.08.73a8.75,8.75,0,0,0-2-.85,32.24,32.24,0,0,1,4.08.8c-2.8-.55-.06.34,1.08.82-.18-.12.25-.08.16-.18,3.06,1.32.68-.33,4.92,1.25l-.26,0c1.62.48,3.17.74,4.87,1.41.62.51-1.73-.5-1.92-.3,2.41.81,4.94,1.19,7,2.32-1-.33-2.48-.93-3.53-1.2a46.52,46.52,0,0,0,4.25,2l-.17-.08c1.32.58,2.59,1.25,3.88,1.87l-1-.53c3.19.71,5.91,2.69,9.76,4.62-3.78-1.83-.71-.15-1.15-.06.9.62,2.21,1.65,1.77,1.45,1.81.93,2.66,2.06,5.11,3.55,0,.15,1.69,1.36,1.17,1.26,2.09,1.64-.37-.53-.12-.47C370.3,34.89,374,39,378.29,43l3.9,3.85a41.05,41.05,0,0,1,3.48,3.9c.4.69.14.48-.22.1l-.84-.93c1.42,2.13,2.52,3.69,3.88,5.68-.33-.37-.12.09.15.78,1,1.64,1,.93,2,3.24a15.19,15.19,0,0,1-1.24-1.51,48.72,48.72,0,0,1,3.22,6c.07.63-.74-1.23-1.19-1.92.28.58.6,1.27.89,2s.6,1.44.85,2.14a30.17,30.17,0,0,0,1.17,2.92L394,67.55c.28.92-.09.54-.32-.13a8.76,8.76,0,0,1-.93-3.25c.23.51.45,1,.64,1.55a5.81,5.81,0,0,0-.42-1.8,19.8,19.8,0,0,0-1.07-2.39c-.86-1.69-2-3.47-2.82-4.93.36.33.72.67,1.06,1-.66-1-1.34-1.91-2.06-2.81-.3-.68-.38-1.24.57.15-1.13-2.18-1.29-1.74-2.29-3.59-.1-.21,0-.13.11,0-.5-.62-1-1.25-1.51-1.85.35.32,0-.49.83.72-2.37-3.6-4.57-5.18-5.4-6.59l.26.25c-2.06-2.15-2.24-2.17-2.28-2.07s0,.33-1.66-1.11c-.52-.88-1.06-1.76-1.61-2.63l-.63-.18c-.44-.42-1.32-1.26-1.07-1.2-1.83-1.37.2.36-.91-.38-2-2.2-6.26-5.14-6.48-5.93-1-.47,2.08,1.91-.47.07-.39-1-3-2.12-5.06-3.79.84.23,2.87,1.8.77.07A14.67,14.67,0,0,1,358.19,25,33.71,33.71,0,0,0,354.75,23c-.13.14-1.25-.38-2.78-1.14s-3.5-1.62-5.31-2.24A23.83,23.83,0,0,0,343,18c-2.11-.85-4.71-1.7-6.38-2.3l.12,0c-.77.15-4.25-1-6.85-1.54.16-.18.65-.17,2.07.12-.8-.23-1.62-.42-2.43-.63a18.5,18.5,0,0,1-2.95-.53l.68-.11c-3.25-.78-6.6-1.25-10.75-2.29-.29.21,3.18,1.4-1.28.64-.13-.17-.25-.44.92-.25a16.92,16.92,0,0,1-2.13-.39l1.82.14c-1.89-.49-1,0-2.56-.34.07-.19-1.11-.35-.86-.47.4.06,1.32.33,1.92.38a40.45,40.45,0,0,1-4.44-1.16c.13.14-.05.27-1.32.05-3.27-.6-1.08-.44-3-.88-.82,0-2.88-.5-3-.22a4.5,4.5,0,0,1-1.47-.47c-1.71-.18-7.94-1.23-6.07-.63l.43.09-.28,0h0c-5.61-.58-11.56-1.88-17.13-2.42l0-.1c-3.33-.3-7.4-.78-9.79-.83-1-.1-2.3-.4-1.87-.48-2.55-.17-2.84-.11-6.5-.59,2.58,0-.86-.24,2.63.11a52.16,52.16,0,0,0-7.6-.63c1.23-.16-2.47-.5-4.05-.54l2.31.35c-1.77-.09-3.32-.23-4.89-.36l.87-.27c-6.76-.84-12.26,0-17.4-.89-1.8.17,3.68.3,2.07.52-3.12-.17-6.36-.76-7.34-.78-4.27-.3-4,.38-8.47.19.57.12,1.1.45-2.24.51C212.77.9,212.05.44,214,.36c.75,0,1.11,0,1.08.07,1,0,2.33-.06,1.09-.21l-.4.11C214.25.2,210,.19,211,0c-2.36.1-1,.19.74.26-4-.2-6.27,0-10.39-.08.65.05,1.26.18.61.19-6.06,0-2.67.26-6.76.39-2.34-.13.82-.46-3.3-.2-2.53-.06-.55-.3.45-.43-3.75.33-7,.09-9.18.14l2-.18C183.92.2,183,.23,182,.28l1.14.19a9.52,9.52,0,0,1-2.13,0c-1.19.22.94.35-1.43.68-1.55-.05-4.71.4-5.26.11,4.88-.18-.56-.28,3.56-.58-.79.09-1.76.14-2.93.17-.17,0,.16-.07.48-.11-4.68,0-2.12.48-6.95.8.6-.22-1.14-.26-1.93-.17,2-.12,1,.23-.82.5-3.1.11-3.35.37-5,.48l1.85-.08a32.23,32.23,0,0,1-4.31.57c-.19-.12,2-.27,1.18-.26-2.36.54-5.44.14-8.75.7-1.55,0-.18-.31-1.54-.26-3.71.6-4.07.18-8,.81,1.16.11,1.35,0-1.39.57l6.43-.89-4.1.81c1.94-.22,4.08-.62,5.26-.69-2,.39-1.76.32-.81.42-2.7-.07-5.24.8-8.34.9l0-.6c-4.65.32-8.17,1.3-14.17,2L126,6.15c-.77.35-3.69.53-5.61.92.15-.23-1.07-.11-1.92-.11.13.13-4.37.65-4.85,1.12-.9.05-1.81.1-2.71.17-4.82.71-5.4,1.44-10,2.21,1.35-.46-.77-.22,2.29-.93a13,13,0,0,0-2.93.63c-.92,0-4.22,1-5.67,1.11a10.31,10.31,0,0,1-2.54.76c-.19,0,0-.09,0-.09s-2.67.65-1.12.57c-4.86.3-13.19,2.77-17.38,3.31-3.31.87-7.26,2.08-10.22,3,.17-.12,0-.1.54-.26-4.13,1.17-2.34,1.32-7,2.8-1.22.31-.63,0,.07-.27s1.55-.57.8-.37c-.44-.2-1.81.37-3.47,1.08s-3.57,1.67-5.13,2.22l.71-.37c-2.4.85-5.43,2.92-9,5,0,0,.14-.15,0-.09-2.28,1.7-6.6,4.76-9.74,7.13.84-.93,1.38-1.15.62-.93-1.42,1.06.65,0-2.16,2.16-1,.55-3.1,2-3.54,2,.88-.69,1.76-1.36,2.65-2-1.59.73-3.43,2.62-4.83,3.69l.07-.26a41.39,41.39,0,0,0-3.81,3.55c-.93,1-1.91,2-3.86,3.9l.48-.31a12,12,0,0,1-1.87,2,9.51,9.51,0,0,0-1.86,2c-.3.13-.59.28-.89.43a70.84,70.84,0,0,0-5.79,8.79,44.58,44.58,0,0,1,4.53-7.55c-.62.77-1.66,2.1-2.53,3.4a21.45,21.45,0,0,0-1.79,3,15.1,15.1,0,0,1,1.35-2.22c-1.11,2.19-2.67,5-4.22,8.56-.2-.47-1.32,1.87-2.14,4.8-.23.73-.4,1.5-.56,2.26S.68,74.57.55,75.28.34,76.65.26,77.22.07,78.29,0,78.65a37.89,37.89,0,0,0,6.52,21c-1.1-2.73,1.34,2,1.57,1.22,1.1,1.52,1.57,2.07,1.63,2.23,1,1.63,2.22,3.1,3.36,4.65.76,1.15-1.27-1.28-1.26-1.06a22,22,0,0,1,1.72,2.19,4.81,4.81,0,0,0,1,1.42c-.11-.28.19-.07.73.42l2.14,2.1L16.3,111.6l-1.06-1.29c1,1,1.81,1.69,2.4,2.28s1,1.06,1.42,1.54a21.68,21.68,0,0,0,4,3.63l-1.53-1c.59.46,1.41,1.14,2.35,1.92L27.08,121a35.54,35.54,0,0,0,5.85,3.76c.4.36.89.89-.23.19a100.72,100.72,0,0,0,19,9.82l-.56-.06a26.23,26.23,0,0,1,3.76,1.34c-.1,0-.55-.06,0,.18s3.42.9,5.07,1.51l-1.49-.29c1.64.57,3.11,1,4.46,1.44a38.24,38.24,0,0,0,3.86,1c2.47.5,4.81.93,7.63,1.61-.13.5,5.17,1.74,7.82,2.4l-.11,0c3.93.93,7.33,1.34,10.64,1.84s6.57.82,10.27,1.28c1.13.29,2.66.6,4.43.91s3.81.53,5.93.81L126,150.34c-1.13-.2.22-.32,1.53-.23,1.73.28,4.83.16,4.51.53l-.61-.06c1.27.51,4.85.71,7.64,1l.5-.49a103.94,103.94,0,0,0,12.77,1.16c4.37.18,8.33.3,10.31.76,1.77,0,4,.06,5.7,0l-.1.28c4.88.3,7.32.44,13.36.58l-1.24.16c3.41.14,4.33-.66,7.47-.59l.93.45c5.94.17,11.95.67,17.83.4-.1.06-.27.18-1.23.18,2.79.07,10.81.48,9.8-.12.07.39,6.13.15,9.34,0l-.5.27a42.91,42.91,0,0,1,6.59-.46c.89,0,.78.23-.41.14,3,.18,2.33-.22,6-.05l-1.35.17a21.25,21.25,0,0,0,4.52-.25,30.07,30.07,0,0,1,6.29.33,15,15,0,0,1,3.91-.31c.25.09-.41.16-.75.19,5.15.15,7.65-.44,11.19-.25a1,1,0,0,0,.6.14c-4.09.11-7.38.16-7.07.13,0,.27,3.31.23.69.65,2.65-.25,7.17-.78,10.39-.81a3.87,3.87,0,0,1,.43.07l-.33,0a15.91,15.91,0,0,0,2-.13c1,0,1.68,0,2.67-.08.39.21,3.79-.12,5.44-.26-.16-.27,2-.39,0-.46a6.64,6.64,0,0,1-1.4.15l-.7.08.11,0c-1.07.1-2.48.19-4.08.28a25,25,0,0,1,4.47-.4c.83-.24,1.74-.5,2.25-.63,2.28.22,6.63,0,7.26.13,5-.69,11.76-1.82,14.77-2.93a6,6,0,0,1,2.18-.22c-.8.22-1.76.42-2.19.58,1.39-.36,3.47-.81,5.27-1.23a16.41,16.41,0,0,0,3.59-1.17c3.55-.68-1.88.83,2.91-.43l-.62.28A69.18,69.18,0,0,0,321,144.12c3.83-1.5,7.72-3.1,12.84-4.88a5.19,5.19,0,0,1-1.22.37,117,117,0,0,0,16.9-8.31c1.37-.8,2.71-1.64,4.06-2.45l4-2.54c2.62-1.7,5.24-3.35,7.82-5A28.41,28.41,0,0,0,370,117.7l.78-.2,2.69-2.43c1-.84,1.91-1.57,2.86-2.26l2.82-2.11c1-.72,1.9-1.54,2.91-2.43a36.28,36.28,0,0,0,3-3.25l-.74.46c.85-.8,2-2.28,3-3.41s1.61-2.14,1.59-1.92a6.41,6.41,0,0,1,.89-1.43l.17,0,1.42-2.51c.42-.87.8-1.75,1.21-2.62.56-1,.73-1.45.9-1.65s.21-.15.29-.16.19-.08.43-.54a13,13,0,0,0,1.1-2.87c.15-.6.32-1.32.48-2.06s.16-1.52.23-2.18c.1-1.33.12-2.22,0-1.78a8.5,8.5,0,0,1-.68,2.49l.29-2.18c-.4-.47-.61-2.08-1.8,3-.24,1.18-.45,2.38-.73,3.57l-.64,1c.17-.47.39-.94.54-1.43l.4-1.47a36.58,36.58,0,0,0-1.23,3.87,7.33,7.33,0,0,0-.82,1.3c-.43,1.11-.78,2.27-1.28,3.37-.39.27.54-1.54-.83.44-.72,1.53,1.21-1.16-.16,1.28a8.7,8.7,0,0,1-1.06,1.14,7.49,7.49,0,0,0-1,1.44c-.27.16-.07-.23.38-.92-.92,1.6-3,3.81-3.43,4.7a33.77,33.77,0,0,0-2.72,2.63c-1,.89-1.76,1.58-1.84,1.36a31.76,31.76,0,0,1-3.5,3.53c1-1.22-.18-.16-1.68,1s-3.22,2.45-3.06,2c-1.53,1.8-6.65,5-9.93,7.53a5.09,5.09,0,0,1,.82-.65c-1.95,1.25-2.58,1.5-3.88,2.25,0,.5-3,2.54-4.5,3.77-2.58,1.2,1.2-1.31.26-1.14.14.09-.84.83-1.76,1.48s-1.77,1.22-1.29,1.09a9.74,9.74,0,0,1-2.78,1.12c-.1.6-1.7,1.08-3.14,2.18-2.88,1.23-.91,0-3.9,1.67C339.55,134.33,342.2,132.82,342.2,132.82Zm-78.59,19.73h0l1.69-.08Zm-6.89.22,3-.06c.24.09,0,.2-.71.21A12.21,12.21,0,0,0,256.72,152.77Zm14.69,1.32a4.84,4.84,0,0,1-1.62,0c.52,0,1.13-.07,1.92-.15l.12,0A1.33,1.33,0,0,1,271.41,154.09Z"/><path class="cls-1" d="M273.35,153.57l.45,0-.65,0-.39.12Z"/><path class="cls-1" d="M295.12,7.11l-.15,0,.3.09Z"/><polygon class="cls-1" points="161.46 150.37 161.47 150.44 162.07 150.41 161.46 150.37"/><path class="cls-1" d="M332.16,15.65a1.85,1.85,0,0,0,.46.21A4,4,0,0,0,332.16,15.65Z"/><path class="cls-1" d="M347.63,21c.7.3,1.38.68,2.07,1C348.81,21.51,348.17,21.17,347.63,21Z"/><path class="cls-1" d="M358.72,26.74a.6.6,0,0,0,.27,0l0,0Z"/><path class="cls-1" d="M161.74,4.12l-.48,0C160.12,4.32,160.89,4.23,161.74,4.12Z"/><path class="cls-1" d="M221.37,1.66c-.63,0-1.26.08-1.92.1C220.51,1.8,221.34,1.82,221.37,1.66Z"/><path class="cls-1" d="M95.78,13.3h0l-.4.07Z"/><path class="cls-1" d="M216.67,1.71a26.84,26.84,0,0,0,2.78.05C218.58,1.73,217.55,1.68,216.67,1.71Z"/><path class="cls-1" d="M393.26,67.21l.15.58s0,0,.06,0Z"/><path class="cls-1" d="M393.47,67.84l.21.63A2.94,2.94,0,0,0,393.47,67.84Z"/><path class="cls-1" d="M394.1,69.8a12.8,12.8,0,0,0-.42-1.33A12.58,12.58,0,0,0,394.1,69.8Z"/><path class="cls-1" d="M386,52.5l-.19-.1C385.87,52.47,385.93,52.51,386,52.5Z"/><path class="cls-1" d="M382.94,48.49c.75.95,1.68,2.51,2.69,3.83l.16.08C385.22,51.85,383.82,49.26,382.94,48.49Z"/><path class="cls-1" d="M368.88,32.66q1.62,1.4,3.19,2.84c-.49-.57-1.13-1.33.35-.07C368.56,31.65,373.12,36.32,368.88,32.66Z"/><path class="cls-1" d="M358.19,24.78c2,1.17.06-.15.19-.14C357.05,24,356.73,23.86,358.19,24.78Z"/><path class="cls-1" d="M265.56,3.15l.25-.24C264.05,2.78,265.78,3,265.56,3.15Z"/><polygon class="cls-1" points="247.27 2.99 248.97 3.25 249.8 3.08 247.27 2.99"/><polygon class="cls-1" points="236.6 0.58 237.37 0.58 234.43 0.54 236.6 0.58"/><path class="cls-1" d="M77.09,14.65l.6.18C78.84,14.5,79,14.1,77.09,14.65Z"/><path class="cls-1" d="M16.57,47.23A13.62,13.62,0,0,0,13.76,50C14.85,48.84,16,47.81,16.57,47.23Z"/><polygon class="cls-1" points="142.98 151.72 141.58 151.73 144.21 151.82 142.98 151.72"/></g></g></svg>