<svg xmlns="http://www.w3.org/2000/svg" viewBox="0 0 92.28 44.92"><defs><style>.cls-1{fill:#1d1d1b;}</style></defs><g id="Слой_2" data-name="Слой 2"><g id="Слой_1-2" data-name="Слой 1"><path class="cls-1" d="M75.75,44.92H16.52A16.55,16.55,0,0,1,0,28.39V16.53a15.9,15.9,0,0,1,.23-2.76A17.05,17.05,0,0,1,4.84,4.84,17.06,17.06,0,0,1,16.52,0H75.75A16.54,16.54,0,0,1,92.28,16.53V28.39A16.55,16.55,0,0,1,75.75,44.92ZM16.52,1a16,16,0,0,0-11,4.55,15.93,15.93,0,0,0-4.33,8.39A14.9,14.9,0,0,0,1,16.52V28.39A15.54,15.54,0,0,0,16.52,43.92H75.75A15.55,15.55,0,0,0,91.28,28.39V16.53A15.55,15.55,0,0,0,75.75,1Z"/><path class="cls-1" d="M87.42,14a12,12,0,0,0-3.31-5.79,12.17,12.17,0,0,0-7.44-3.31l.08-1a13.1,13.1,0,0,1,8.06,3.58,13,13,0,0,1,3.58,6.27Z"/><path d="M22.45,20.6H20.78a.36.36,0,0,1-.26-.11.33.33,0,0,1-.11-.26v-8a.31.31,0,0,1,.11-.26.35.35,0,0,1,.26-.1h1.67a4.73,4.73,0,0,1,2.25.53,4,4,0,0,1,1.58,1.49,4.14,4.14,0,0,1,.58,2.21,4.5,4.5,0,0,1-.58,2.28A4.37,4.37,0,0,1,24.7,20,4.17,4.17,0,0,1,22.45,20.6Zm0-.78a3.46,3.46,0,0,0,2.6-1.09,3.71,3.71,0,0,0,1.05-2.66,3.23,3.23,0,0,0-1.05-2.51,3.67,3.67,0,0,0-2.6-1H21.37c-.12,0-.18,0-.18.14v6.89c0,.1.06.16.19.18Z"/><path d="M28.27,20.6a.43.43,0,0,1-.28-.1.36.36,0,0,1-.11-.26v-5A.36.36,0,0,1,28,15a.39.39,0,0,1,.28-.11.41.41,0,0,1,.28.11.33.33,0,0,1,.11.26v.37c0,.05,0,.08,0,.08a.13.13,0,0,0,.07,0c.1-.12.22-.25.37-.4a2.92,2.92,0,0,1,.41-.32.54.54,0,0,1,.22-.05l.19,0a.34.34,0,0,1,.23.17s0,0,0,0a.36.36,0,0,1,.05.21.68.68,0,0,1,0,.12c0,.07,0,.13-.14.19l-.25.18a3.62,3.62,0,0,0-.87.72,1.92,1.92,0,0,0-.32,1.24v2.51a.33.33,0,0,1-.11.26A.41.41,0,0,1,28.27,20.6Z"/><path d="M33.5,20.75a3,3,0,0,1-2.15-5.17,3.09,3.09,0,0,1,4.3,0,2.64,2.64,0,0,1,.75,1.54l0,.08a.65.65,0,0,1-.06.25c0,.1-.15.15-.32.15H31.45a.22.22,0,0,0-.16,0,.23.23,0,0,0,0,.13v.06a2.15,2.15,0,0,0,.66,1.47A2.18,2.18,0,0,0,33.5,20a2.08,2.08,0,0,0,.88-.19,1.74,1.74,0,0,0,.64-.47c.19-.24.36-.36.48-.36a.46.46,0,0,1,.24.08.36.36,0,0,1,.17.31.48.48,0,0,1-.12.3A2.88,2.88,0,0,1,33.5,20.75Zm1.85-3.92c.12,0,.18,0,.18-.07a.33.33,0,0,0-.07-.15h0a1.74,1.74,0,0,0-.38-.47,2.07,2.07,0,0,0-1.58-.7,2.12,2.12,0,0,0-1.6.7,4,4,0,0,0-.42.53.36.36,0,0,0,0,.11s0,0,0,0S32.79,16.83,35.35,16.83Z"/><path d="M40.21,20.75a3,3,0,0,1-2.16-.87,3,3,0,0,1,2.13-5.17,3.06,3.06,0,0,1,1.2.24,2.3,2.3,0,0,1,.93.68.1.1,0,0,0,.08,0l0,0s0-.07,0-.16v-.28a.36.36,0,0,1,.11-.26.38.38,0,0,1,.28-.11.37.37,0,0,1,.27.11.36.36,0,0,1,.11.26v5a.36.36,0,0,1-.11.26.37.37,0,0,1-.27.11.38.38,0,0,1-.28-.11.36.36,0,0,1-.11-.26v-.36c0-.07,0-.11-.06-.11l0,0A2.76,2.76,0,0,1,40.21,20.75Zm0-.72a2.14,2.14,0,0,0,1.59-.67,2.33,2.33,0,0,0,0-3.24,2.22,2.22,0,0,0-3.22,0,2.26,2.26,0,0,0-.65,1.62,2.22,2.22,0,0,0,.67,1.62A2.17,2.17,0,0,0,40.21,20Z"/><path d="M51.7,20.6a.41.41,0,0,1-.27-.1.36.36,0,0,1-.11-.26V17a1.49,1.49,0,0,0-.27-.95,1.42,1.42,0,0,0-.59-.46,1.67,1.67,0,0,0-.53-.12,1.1,1.1,0,0,0-1,.41,1.83,1.83,0,0,0-.3,1.09v3.31a.36.36,0,0,1-.11.26.45.45,0,0,1-.28.1.44.44,0,0,1-.29-.1.35.35,0,0,1-.1-.26v-3.3A1.63,1.63,0,0,0,47.6,16a1.4,1.4,0,0,0-.58-.46,1.57,1.57,0,0,0-.52-.12,1.13,1.13,0,0,0-1,.41,1.83,1.83,0,0,0-.3,1.09v3.31a.36.36,0,0,1-.11.26.41.41,0,0,1-.27.1.44.44,0,0,1-.29-.1.36.36,0,0,1-.11-.26v-5a.36.36,0,0,1,.11-.26.4.4,0,0,1,.29-.11.5.5,0,0,1,.26.08.29.29,0,0,1,.12.26v.13a0,0,0,0,0,0,0,.05.05,0,0,0,0,0,1.94,1.94,0,0,1,.57-.5,1.27,1.27,0,0,1,.63-.14,1.88,1.88,0,0,1,1.62.74c.06.1.11.16.15.16s.07,0,.12-.15a1.71,1.71,0,0,1,1.54-.75,2.31,2.31,0,0,1,1.33.38,2.05,2.05,0,0,1,.83,1.82v3.33a.36.36,0,0,1-.11.26A.41.41,0,0,1,51.7,20.6Z"/><path d="M56,20.6H53.66a.39.39,0,0,1-.27-.11.35.35,0,0,1-.1-.26v-8a.35.35,0,0,1,.1-.26.35.35,0,0,1,.27-.11h2.09a4.47,4.47,0,0,1,1.48.22,1.92,1.92,0,0,1,1.4,2,1.74,1.74,0,0,1-1,1.58c-.08,0-.12.09-.12.13s0,.07.1.11a3.47,3.47,0,0,1,1,.92,2.1,2.1,0,0,1,.41,1.27,2.21,2.21,0,0,1-.42,1.35,2.67,2.67,0,0,1-1.11.87A3.49,3.49,0,0,1,56,20.6Zm-.28-5.26a5.85,5.85,0,0,0,1.09-.09,1.39,1.39,0,0,0,.75-.36,1.15,1.15,0,0,0,.27-.83,1.32,1.32,0,0,0-.27-.89,2.24,2.24,0,0,0-1.78-.55H54.33c-.18,0-.26.08-.26.24v2.22a.23.23,0,0,0,.24.26ZM56,19.82a3,3,0,0,0,1.1-.2A1.94,1.94,0,0,0,58,19a1.48,1.48,0,0,0,.32-1,1.72,1.72,0,0,0-.68-1.41A2.43,2.43,0,0,0,56,16.12H54.31c-.16,0-.24.07-.24.22v3.21c0,.17.09.26.28.27Z"/><path d="M62.84,20.75A3,3,0,1,1,65,19.87,2.94,2.94,0,0,1,62.84,20.75Zm0-.72a2.11,2.11,0,0,0,1.59-.68,2.32,2.32,0,0,0,0-3.24,2.2,2.2,0,0,0-3.18,0,2.29,2.29,0,0,0,0,3.24A2.11,2.11,0,0,0,62.84,20Z"/><path d="M70.51,20.6h-.35a.63.63,0,0,1-.25-.07.52.52,0,0,1-.18-.18l-1-2.1c-.05-.16-.1-.24-.14-.24s-.07.06-.11.18l-1.09,2.16a.47.47,0,0,1-.19.18.55.55,0,0,1-.24.07h-.36c-.11,0-.16,0-.16-.12a.31.31,0,0,1,0-.13L68,17.72a.62.62,0,0,0,.11-.23l0,0c0-.06-.48-.85-1.38-2.35a.44.44,0,0,1,0-.1c0-.09.06-.14.17-.14h.36a.44.44,0,0,1,.24.07.43.43,0,0,1,.18.17l.75,1.56c.07.15.12.23.15.23s.09-.08.14-.23l.74-1.56a.42.42,0,0,1,.18-.17.47.47,0,0,1,.25-.07h.36c.11,0,.17,0,.17.13a.3.3,0,0,1,0,.11L69,17.32a.69.69,0,0,0-.1.21.49.49,0,0,0,.1.19l1.62,2.63a.26.26,0,0,1,0,.1Q70.69,20.6,70.51,20.6Z"/><path d="M23.7,33.6a.37.37,0,0,1-.27-.11.33.33,0,0,1-.11-.26v-1.8c0-.11,0-.18-.1-.21l-.32-.3a1,1,0,0,1-.14-.12l-.09,0a.13.13,0,0,0-.11.05l-.32.45-.64.89-.92,1.28a.39.39,0,0,1-.31.15.37.37,0,0,1-.26-.09.41.41,0,0,1-.13-.24.54.54,0,0,1,.07-.27l2-2.62a.19.19,0,0,0,0-.11.17.17,0,0,0-.05-.12l-.29-.27-.55-.51-.78-.71a.41.41,0,0,1-.11-.3.35.35,0,0,1,.11-.23.39.39,0,0,1,.27-.14.39.39,0,0,1,.26.1l.32.31.75.73.75.73c.22.22.35.34.39.37a.17.17,0,0,0,.11,0s.07,0,.07-.12V28.22a.33.33,0,0,1,.11-.26.37.37,0,0,1,.27-.11A.39.39,0,0,1,24,28a.36.36,0,0,1,.11.26v1.92c0,.08,0,.12.07.12a.16.16,0,0,0,.1,0s.17-.15.39-.37l.76-.73.74-.73.32-.31a.42.42,0,0,1,.28-.1.41.41,0,0,1,.26.13.39.39,0,0,1,.11.28.38.38,0,0,1-.13.26l-.23.22-.54.5-.55.5-.29.27a.17.17,0,0,0-.05.12.21.21,0,0,0,0,.1s.14.19.34.45l.67.89.68.89.29.4a.4.4,0,0,1,.07.24.36.36,0,0,1-.14.27.32.32,0,0,1-.24.09h-.12a.29.29,0,0,1-.19-.15l-.28-.38-1.26-1.79c-.18-.26-.29-.4-.31-.44a.17.17,0,0,0-.12,0,.28.28,0,0,0-.15.08,4.94,4.94,0,0,0-.44.36.23.23,0,0,0-.08.21v1.8a.36.36,0,0,1-.11.26A.39.39,0,0,1,23.7,33.6Z"/><path d="M31.69,35.71h-.08a.41.41,0,0,1-.46-.35v0A.41.41,0,0,1,31.3,35a.55.55,0,0,1,.32-.1,1.85,1.85,0,0,0,1.22-.58,2.28,2.28,0,0,0,.65-.94,1,1,0,0,0,0-.3c0-.22,0-.33-.07-.33h0a2.78,2.78,0,0,1-1.05.78,3.13,3.13,0,0,1-1.22.25,3,3,0,0,1-2.2-.81,2.91,2.91,0,0,1-.84-2.2,2.86,2.86,0,0,1,.9-2.19,3,3,0,0,1,2.14-.84,3,3,0,0,1,2.22,1h.07s0,0,0-.12v-.28A.44.44,0,0,1,33.6,28a.4.4,0,0,1,.29-.11.36.36,0,0,1,.26.11.33.33,0,0,1,.11.26v4.55a2.86,2.86,0,0,1-.87,2.1A3,3,0,0,1,31.69,35.71ZM31.18,33a2.24,2.24,0,0,0,1.63-.67,2.31,2.31,0,0,0-1.63-3.93,2.1,2.1,0,0,0-1.6.7,2.31,2.31,0,0,0-.66,1.61,2.27,2.27,0,0,0,.63,1.66A2.18,2.18,0,0,0,31.18,33Z"/><path d="M38.28,33.75a3,3,0,0,1-3-3,2.91,2.91,0,0,1,.88-2.14,3.09,3.09,0,0,1,4.3,0,2.66,2.66,0,0,1,.76,1.54v.08a.65.65,0,0,1-.06.25c0,.1-.15.15-.31.15h-4.6a.22.22,0,0,0-.16,0,.23.23,0,0,0,0,.13v.06a2.24,2.24,0,0,0,.66,1.47,2.19,2.19,0,0,0,1.58.73,2.05,2.05,0,0,0,.88-.19,1.88,1.88,0,0,0,.65-.47q.28-.36.48-.36a.52.52,0,0,1,.24.08.36.36,0,0,1,.16.31.48.48,0,0,1-.12.3A3,3,0,0,1,38.28,33.75Zm1.85-3.92c.12,0,.18,0,.18-.07a.25.25,0,0,0-.07-.15h0a1.9,1.9,0,0,0-.37-.47,2.16,2.16,0,0,0-3.18,0,2.83,2.83,0,0,0-.42.53.24.24,0,0,0,0,.11s0,0,0,0S37.57,29.83,40.13,29.83Z"/><path d="M44,33.6a.4.4,0,0,1-.29-.11.36.36,0,0,1-.11-.26V28.74a.16.16,0,0,0,0-.09.12.12,0,0,0-.09,0H42.24a.36.36,0,0,1-.26-.11.38.38,0,0,1-.11-.28A.37.37,0,0,1,42,28a.36.36,0,0,1,.26-.11h3.57a.36.36,0,0,1,.26.11.37.37,0,0,1,.11.27.38.38,0,0,1-.11.28.36.36,0,0,1-.26.11H44.52a.11.11,0,0,0-.08,0,.16.16,0,0,0,0,.09v4.49a.35.35,0,0,1-.1.26A.41.41,0,0,1,44,33.6Z"/><path d="M54.71,33.75a2.94,2.94,0,0,1-1.9-.55A3.84,3.84,0,0,1,51.61,30c0-.09,0-.33,0-.73a10.26,10.26,0,0,1,.26-1.72,3.62,3.62,0,0,1,1.19-2.1,3.22,3.22,0,0,1,2.16-.78,1.61,1.61,0,0,1,1.26.48,1.13,1.13,0,0,1,.3.77,2.54,2.54,0,0,1-.13.66c-.08.3-.47.67-1.17,1.12t0,0v0a0,0,0,0,0,0,0,3.1,3.1,0,0,1,1.62,1.07,2.87,2.87,0,0,1,.62,1.85,3,3,0,0,1-3,3Zm-2.22-5a.15.15,0,0,0,.08-.05,2.51,2.51,0,0,1,1.18-.84l.19-.07a8.84,8.84,0,0,0,.86-.34,3.55,3.55,0,0,0,.9-.58,1.07,1.07,0,0,0,.4-.84.56.56,0,0,0-.2-.45.91.91,0,0,0-.66-.19,2.39,2.39,0,0,0-1.6.55,3,3,0,0,0-1,1.49,5.07,5.07,0,0,0-.14.56,3.32,3.32,0,0,0-.11.65C52.42,28.71,52.44,28.75,52.49,28.75ZM54.71,33a2.14,2.14,0,0,0,1.6-.69,2.32,2.32,0,0,0,0-3.24,2.25,2.25,0,0,0-3.2,0,2.32,2.32,0,0,0,0,3.24A2.14,2.14,0,0,0,54.71,33Z"/><path d="M61.56,33.75a3,3,0,0,1-2.16-.87,2.89,2.89,0,0,1-.9-2.14,3,3,0,0,1,3-3,3,3,0,0,1,1.19.24,2.3,2.3,0,0,1,.93.68s.05.05.09.05l0,0s0-.07,0-.16v-.28a.33.33,0,0,1,.11-.26.37.37,0,0,1,.27-.11.39.39,0,0,1,.28.11.36.36,0,0,1,.11.26v5a.36.36,0,0,1-.11.26.39.39,0,0,1-.28.11.37.37,0,0,1-.27-.11.33.33,0,0,1-.11-.26v-.36c0-.07,0-.11-.06-.11a.06.06,0,0,0,0,0A2.78,2.78,0,0,1,61.56,33.75Zm0-.72a2.11,2.11,0,0,0,1.59-.67,2.25,2.25,0,0,0,.66-1.62,2.28,2.28,0,0,0-.67-1.62,2.21,2.21,0,0,0-3.21,0,2.27,2.27,0,0,0-.66,1.62A2.29,2.29,0,0,0,61.56,33Z"/><path d="M68.63,33.75a2.88,2.88,0,0,1-2.14-.89,2.94,2.94,0,0,1-.88-2.14,3,3,0,0,1,3-3,2.79,2.79,0,0,1,1.92.67.27.27,0,0,1,.1.24v.66c0,.11,0,.17-.08.17s-.1-.05-.19-.15a2.48,2.48,0,0,0-.77-.63,2.06,2.06,0,0,0-1-.24,2.16,2.16,0,0,0-1.6.67,2.32,2.32,0,0,0,0,3.24,2.14,2.14,0,0,0,1.6.69,2,2,0,0,0,1-.27,2.72,2.72,0,0,0,.79-.72c0-.07.1-.1.14-.1h0s0,.05,0,.12v.75a.28.28,0,0,1-.11.25A2.89,2.89,0,0,1,68.63,33.75Z"/></g></g></svg>