<svg xmlns="http://www.w3.org/2000/svg" viewBox="0 0 92.28 44.92"><defs><style>.cls-1{fill:#1d1d1b;}</style></defs><g id="Слой_2" data-name="Слой 2"><g id="Слой_1-2" data-name="Слой 1"><path class="cls-1" d="M75.75,44.92H16.52A16.55,16.55,0,0,1,0,28.39V16.53a15.9,15.9,0,0,1,.23-2.76A17.05,17.05,0,0,1,4.84,4.84,17.06,17.06,0,0,1,16.52,0H75.75A16.54,16.54,0,0,1,92.28,16.53V28.39A16.55,16.55,0,0,1,75.75,44.92ZM16.52,1a16,16,0,0,0-11,4.55,15.93,15.93,0,0,0-4.33,8.39A14.9,14.9,0,0,0,1,16.52V28.39A15.54,15.54,0,0,0,16.52,43.92H75.75A15.55,15.55,0,0,0,91.28,28.39V16.53A15.55,15.55,0,0,0,75.75,1Z"/><path class="cls-1" d="M87.42,14a12,12,0,0,0-3.31-5.79,12.17,12.17,0,0,0-7.44-3.31l.08-1a13.1,13.1,0,0,1,8.06,3.58,13,13,0,0,1,3.58,6.27Z"/><path d="M21,20.09a4.61,4.61,0,0,1-2.43-.65,4.92,4.92,0,0,1-1.76-1.75,4.9,4.9,0,0,1,0-4.88,4.89,4.89,0,0,1,1.76-1.74A4.7,4.7,0,0,1,21,10.42a4.37,4.37,0,0,1,1.7.33,5,5,0,0,1,1.4.83.3.3,0,0,1,.13.27v.82c0,.08,0,.12-.07.12s-.06,0-.1-.06a3.87,3.87,0,0,0-1.32-1.12A3.67,3.67,0,0,0,21,11.19a3.82,3.82,0,0,0-2.84,1.2,4.07,4.07,0,0,0-.64,4.89A4.25,4.25,0,0,0,19,18.77a3.84,3.84,0,0,0,2,.56,3.67,3.67,0,0,0,1.74-.43,3.87,3.87,0,0,0,1.32-1.12c0-.05.07-.07.1-.07s.07,0,.07.12v.82a.31.31,0,0,1-.13.28,4.86,4.86,0,0,1-1.4.85A4.55,4.55,0,0,1,21,20.09Z"/><path d="M28.21,20.09a3.1,3.1,0,0,1-2.28-.94A3.14,3.14,0,0,1,25,16.87a3.23,3.23,0,0,1,5.52-2.28,3.07,3.07,0,0,1,.95,2.28,3.23,3.23,0,0,1-3.24,3.22Zm0-.76a2.31,2.31,0,0,0,1.71-.73,2.46,2.46,0,0,0,.7-1.73,2.43,2.43,0,0,0-.7-1.73,2.36,2.36,0,0,0-3.41,0,2.39,2.39,0,0,0-.71,1.73,2.43,2.43,0,0,0,.71,1.73A2.32,2.32,0,0,0,28.21,19.33Z"/><path d="M36.39,19.93H36a.56.56,0,0,1-.26-.08.46.46,0,0,1-.2-.19l-1.11-2.24c-.06-.17-.11-.26-.16-.26s-.07.07-.11.19L33,19.66a.46.46,0,0,1-.2.19.52.52,0,0,1-.26.08h-.38c-.11,0-.17-.05-.17-.13a.39.39,0,0,1,0-.14l1.69-2.81a.71.71,0,0,0,.11-.24v-.05c0-.07-.52-.91-1.47-2.51a.26.26,0,0,1,0-.1c0-.11.06-.16.18-.16h.38a.56.56,0,0,1,.27.08.39.39,0,0,1,.18.18l.81,1.66c.07.17.12.25.15.25s.1-.08.16-.25l.78-1.66a.46.46,0,0,1,.2-.19.63.63,0,0,1,.26-.07h.38c.12,0,.18.05.18.14a.19.19,0,0,1,0,.12l-1.39,2.38a.58.58,0,0,0-.1.22.4.4,0,0,0,.1.2l1.73,2.81a.3.3,0,0,1,0,.11C36.59,19.88,36.52,19.93,36.39,19.93Z"/><path d="M37.76,21.72a.39.39,0,0,1-.28-.11.33.33,0,0,1-.11-.27V14.19a.37.37,0,0,1,.11-.28.36.36,0,0,1,.28-.12.41.41,0,0,1,.3.12.37.37,0,0,1,.11.28v.37c0,.08,0,.12.08.12a.11.11,0,0,0,.09,0,2.51,2.51,0,0,1,1-.73,3.29,3.29,0,0,1,1.28-.26,3.24,3.24,0,0,1,3.24,3.24,3.05,3.05,0,0,1-1,2.28,3.2,3.2,0,0,1-2.31.93,3.25,3.25,0,0,1-1.28-.25,2.42,2.42,0,0,1-1-.77s0,0,0,0h0s-.07,0-.07.11v2.19a.33.33,0,0,1-.11.27A.44.44,0,0,1,37.76,21.72Zm2.82-2.39A2.48,2.48,0,0,0,43,16.88a2.45,2.45,0,0,0-.71-1.74,2.31,2.31,0,0,0-1.71-.73,2.28,2.28,0,0,0-1.71.73,2.41,2.41,0,0,0-.71,1.74,2.36,2.36,0,0,0,.7,1.72A2.27,2.27,0,0,0,40.58,19.33Z"/><path d="M47.93,20.09a3.19,3.19,0,0,1-2.3-.93,3.21,3.21,0,0,1,0-4.57,3.12,3.12,0,0,1,2.29-.95,3.24,3.24,0,0,1,1.27.26,2.38,2.38,0,0,1,1,.73.14.14,0,0,0,.09,0l.06,0a.45.45,0,0,0,0-.17v-.3a.38.38,0,0,1,.12-.28.37.37,0,0,1,.29-.12.39.39,0,0,1,.41.4v5.35a.44.44,0,0,1-.11.29.44.44,0,0,1-.3.11.39.39,0,0,1-.41-.4v-.38q0-.12-.06-.12s-.05,0-.05,0A3,3,0,0,1,47.93,20.09Zm0-.76a2.28,2.28,0,0,0,1.7-.73,2.36,2.36,0,0,0,.7-1.72,2.45,2.45,0,0,0-.71-1.74,2.31,2.31,0,0,0-1.71-.73,2.28,2.28,0,0,0-1.72.73,2.44,2.44,0,0,0-.7,1.74,2.46,2.46,0,0,0,2.44,2.45Z"/><path d="M57.36,19.93a.41.41,0,0,1-.31-.12.36.36,0,0,1-.11-.28V17.28a.12.12,0,0,0-.12-.12H53.39a.12.12,0,0,0-.12.12v2.25a.36.36,0,0,1-.11.28.41.41,0,0,1-.3.12.39.39,0,0,1-.3-.12.36.36,0,0,1-.12-.28V14.19a.38.38,0,0,1,.12-.28.39.39,0,0,1,.3-.12.41.41,0,0,1,.3.12.37.37,0,0,1,.11.28v2a.12.12,0,0,0,.12.12h3.43a.12.12,0,0,0,.12-.12v-2a.37.37,0,0,1,.11-.28.41.41,0,0,1,.31-.12.37.37,0,0,1,.29.12.38.38,0,0,1,.12.28v5.34a.36.36,0,0,1-.12.28A.37.37,0,0,1,57.36,19.93Z"/><path d="M61.53,20.09a3,3,0,0,1-1.16-.23,2,2,0,0,1-.95-.8,2.84,2.84,0,0,1-.37-1.58V14.2a.38.38,0,0,1,.12-.29.43.43,0,0,1,.31-.12.41.41,0,0,1,.3.12.38.38,0,0,1,.11.29v3.23a1.86,1.86,0,0,0,.48,1.42,1.64,1.64,0,0,0,1.16.45q1.74,0,1.74-1.59V14.2a.39.39,0,0,1,.13-.29.41.41,0,0,1,.3-.12.39.39,0,0,1,.42.41v5.32a.42.42,0,0,1-.12.29.41.41,0,0,1-.3.12.49.49,0,0,1-.3-.1.37.37,0,0,1-.12-.29v-.11s0-.05,0-.05l-.05,0a1.52,1.52,0,0,1-.79.54A2.94,2.94,0,0,1,61.53,20.09Z"/><path d="M67.42,19.93a.39.39,0,0,1-.3-.12.36.36,0,0,1-.12-.28V14.74a.16.16,0,0,0,0-.09.13.13,0,0,0-.1,0H65.52a.44.44,0,0,1-.29-.11.44.44,0,0,1-.11-.3.42.42,0,0,1,.11-.29.4.4,0,0,1,.29-.12h3.8a.38.38,0,0,1,.28.12.38.38,0,0,1,.12.29.39.39,0,0,1-.4.41H68a.12.12,0,0,0-.08,0,.12.12,0,0,0,0,.09v4.79a.36.36,0,0,1-.11.28A.41.41,0,0,1,67.42,19.93Z"/><path d="M73.5,20.09a6.22,6.22,0,0,1-.94-.09,3.3,3.3,0,0,1-1-.37.3.3,0,0,0-.11,0,.05.05,0,0,0,0,0l-.07.1a.45.45,0,0,1-.1.14.25.25,0,0,1-.21.07.23.23,0,0,1-.2-.12.49.49,0,0,1-.08-.28V14.18a.36.36,0,0,1,.12-.28.43.43,0,0,1,.31-.11.42.42,0,0,1,.29.11.36.36,0,0,1,.12.28V15a.14.14,0,0,0,.16.16h0A10.65,10.65,0,0,1,73.5,15a2.8,2.8,0,0,1,1.48.36,2.2,2.2,0,0,1,.88.91,2.44,2.44,0,0,1,.3,1.18,2.62,2.62,0,0,1-.76,1.85A2.49,2.49,0,0,1,73.5,20.09Zm0-.76a1.68,1.68,0,0,0,1.32-.58,1.92,1.92,0,0,0,.51-1.32,1.64,1.64,0,0,0-.45-1.14,1.91,1.91,0,0,0-1.38-.54,8.14,8.14,0,0,0-1.3.08,1,1,0,0,0-.55.23.65.65,0,0,0-.12.41v2.31c0,.12.1.23.32.32A4.91,4.91,0,0,0,73.51,19.33Z"/><path d="M16.49,34a3.15,3.15,0,0,1-2-.59A4.1,4.1,0,0,1,13.19,30c0-.1,0-.36,0-.79a10.82,10.82,0,0,1,.27-1.83,3.92,3.92,0,0,1,1.27-2.24,3.47,3.47,0,0,1,2.31-.83,1.71,1.71,0,0,1,1.34.51,1.21,1.21,0,0,1,.32.82,2.84,2.84,0,0,1-.13.7c-.09.32-.51.72-1.25,1.2,0,0,0,0,0,0v0s0,0,0,0a3.17,3.17,0,0,1,1.72,1.14,3.05,3.05,0,0,1,.67,2A3.24,3.24,0,0,1,16.49,34Zm-2.37-5.34a.14.14,0,0,0,.09-.05,2.66,2.66,0,0,1,1.26-.9l.2-.08a8.48,8.48,0,0,0,.92-.36,3.76,3.76,0,0,0,1-.62,1.14,1.14,0,0,0,.43-.9.63.63,0,0,0-.21-.48,1,1,0,0,0-.71-.2,2.64,2.64,0,0,0-1.71.58,3.21,3.21,0,0,0-1,1.6,5.1,5.1,0,0,0-.16.6,4.83,4.83,0,0,0-.11.69C14.05,28.59,14.07,28.63,14.12,28.63Zm2.37,4.57a2.29,2.29,0,0,0,1.71-.74,2.42,2.42,0,0,0,.7-1.73A2.36,2.36,0,0,0,18.2,29a2.36,2.36,0,0,0-3.41,0,2.36,2.36,0,0,0-.7,1.72,2.42,2.42,0,0,0,.7,1.73A2.28,2.28,0,0,0,16.49,33.2Z"/><path d="M28.89,34a3.26,3.26,0,0,1-3.23-3.24,3.05,3.05,0,0,1,1-2.28,3.14,3.14,0,0,1,2.27-.94,2.75,2.75,0,0,1,2.2,1,.08.08,0,0,0,.07,0h.05s0,0,0-.08V24.84a.34.34,0,0,1,.12-.27.36.36,0,0,1,.28-.12.42.42,0,0,1,.32.12.34.34,0,0,1,.12.27v8.58a.34.34,0,0,1-.12.27.36.36,0,0,1-.27.11.43.43,0,0,1-.33-.11.34.34,0,0,1-.12-.27v-.49s0-.08,0-.08h0l0,0A2.91,2.91,0,0,1,28.89,34Zm0-.77a2.28,2.28,0,0,0,1.7-.74,2.43,2.43,0,0,0,.71-1.73A2.37,2.37,0,0,0,30.59,29a2.34,2.34,0,0,0-3.4,0,2.37,2.37,0,0,0-.71,1.72,2.43,2.43,0,0,0,.71,1.73A2.26,2.26,0,0,0,28.89,33.2Z"/><path d="M33.76,33.8a.4.4,0,0,1-.3-.11.33.33,0,0,1-.11-.27V28.06a.37.37,0,0,1,.11-.28.44.44,0,0,1,.3-.11.46.46,0,0,1,.3.11.38.38,0,0,1,.12.28v.4c0,.05,0,.08,0,.08a.09.09,0,0,0,.07,0,5,5,0,0,1,.4-.42,2.38,2.38,0,0,1,.44-.35.52.52,0,0,1,.23-.05l.2,0a.31.31,0,0,1,.24.18,0,0,0,0,0,0,0,.41.41,0,0,1,0,.23.85.85,0,0,1,0,.13c0,.07,0,.13-.15.2l-.26.19a3.53,3.53,0,0,0-.93.77,2,2,0,0,0-.34,1.32v2.68a.34.34,0,0,1-.12.27A.38.38,0,0,1,33.76,33.8Z"/><path d="M39.34,34a3.24,3.24,0,0,1-3.24-3.24,3.08,3.08,0,0,1,.95-2.28,3.26,3.26,0,0,1,4.58,0,2.82,2.82,0,0,1,.81,1.64v.09a.83.83,0,0,1-.06.27c0,.1-.16.15-.34.15h-4.9a.3.3,0,0,0-.17,0,.26.26,0,0,0,0,.14v.06a2.44,2.44,0,0,0,.71,1.58,2.35,2.35,0,0,0,1.69.78,2.22,2.22,0,0,0,.94-.21A2.11,2.11,0,0,0,41,32.5q.3-.39.51-.39a.56.56,0,0,1,.25.08.4.4,0,0,1,.18.33.51.51,0,0,1-.12.32A3.09,3.09,0,0,1,39.34,34Zm2-4.19c.13,0,.19,0,.19-.08a.25.25,0,0,0-.07-.15h0A1.79,1.79,0,0,0,41,29a2.27,2.27,0,0,0-3.39,0,2.9,2.9,0,0,0-.45.56.24.24,0,0,0,0,.12.05.05,0,0,0,0,0S38.58,29.78,41.31,29.78Z"/><path d="M46.5,34A3.17,3.17,0,0,1,44.19,33a3.05,3.05,0,0,1-1-2.28,3.24,3.24,0,0,1,3.24-3.24,3.29,3.29,0,0,1,1.28.26,2.51,2.51,0,0,1,1,.73.11.11,0,0,0,.09.05l.05,0s0-.07,0-.17v-.3a.37.37,0,0,1,.11-.28.44.44,0,0,1,.3-.11.44.44,0,0,1,.29.11.37.37,0,0,1,.11.28v5.36a.37.37,0,0,1-.11.28.39.39,0,0,1-.29.11.4.4,0,0,1-.3-.11.37.37,0,0,1-.11-.28V33c0-.07,0-.11-.07-.11l-.05,0A2.93,2.93,0,0,1,46.5,34Zm0-.77a2.26,2.26,0,0,0,1.69-.72,2.48,2.48,0,0,0,0-3.46,2.35,2.35,0,0,0-3.42,0,2.43,2.43,0,0,0-.71,1.73,2.38,2.38,0,0,0,.72,1.73A2.35,2.35,0,0,0,46.5,33.2Z"/><path d="M58.77,33.8a.4.4,0,0,1-.3-.11.33.33,0,0,1-.11-.27v-3.5a1.66,1.66,0,0,0-.28-1,1.47,1.47,0,0,0-.64-.49,1.67,1.67,0,0,0-.57-.14,1.22,1.22,0,0,0-1,.44,2,2,0,0,0-.32,1.16v3.54a.37.37,0,0,1-.11.27.4.4,0,0,1-.3.11.39.39,0,0,1-.3-.11.34.34,0,0,1-.12-.27V29.9a1.77,1.77,0,0,0-.29-1,1.47,1.47,0,0,0-.62-.48,1.67,1.67,0,0,0-.56-.14,1.21,1.21,0,0,0-1.05.44,1.92,1.92,0,0,0-.32,1.16v3.54a.34.34,0,0,1-.12.27.36.36,0,0,1-.29.11.41.41,0,0,1-.31-.11.33.33,0,0,1-.11-.27V28.06a.37.37,0,0,1,.11-.28.45.45,0,0,1,.31-.11.57.57,0,0,1,.28.08.31.31,0,0,1,.13.28v.14a0,0,0,0,0,0,0h0a2,2,0,0,1,.61-.54,1.3,1.3,0,0,1,.67-.16,2,2,0,0,1,1.73.8c.07.11.12.16.16.16s.08,0,.13-.15a1.82,1.82,0,0,1,1.64-.81,2.52,2.52,0,0,1,1.42.41,2.2,2.2,0,0,1,.89,1.95v3.55a.34.34,0,0,1-.12.27A.38.38,0,0,1,58.77,33.8Z"/><path d="M63.63,34a2.94,2.94,0,0,1-2.25-1.09s0,0,0,0h0s0,0,0,.08v.49a.34.34,0,0,1-.12.27.36.36,0,0,1-.28.11.43.43,0,0,1-.32-.11.37.37,0,0,1-.11-.27V24.84a.37.37,0,0,1,.11-.27.37.37,0,0,1,.27-.12.42.42,0,0,1,.33.12.34.34,0,0,1,.12.27v3.67s0,.08.08.08a.07.07,0,0,0,.06,0,2.77,2.77,0,0,1,2.2-1,3.14,3.14,0,0,1,2.28.94,3.08,3.08,0,0,1,1,2.28A3.24,3.24,0,0,1,63.63,34Zm0-.77a2.29,2.29,0,0,0,1.71-.74,2.42,2.42,0,0,0,.7-1.73,2.36,2.36,0,0,0-.7-1.72,2.36,2.36,0,0,0-3.41,0,2.36,2.36,0,0,0-.7,1.72,2.42,2.42,0,0,0,.7,1.73A2.28,2.28,0,0,0,63.63,33.2Z"/><path d="M70.91,34A3.24,3.24,0,1,1,73.2,33,3.11,3.11,0,0,1,70.91,34Zm0-.77a2.27,2.27,0,0,0,1.7-.73,2.49,2.49,0,0,0,0-3.46,2.34,2.34,0,0,0-3.4,0,2.46,2.46,0,0,0,0,3.46A2.27,2.27,0,0,0,70.91,33.2Z"/><path d="M79.09,33.8h-.37a.44.44,0,0,1-.26-.08.46.46,0,0,1-.2-.19l-1.12-2.24C77.08,31.12,77,31,77,31s-.07.06-.11.19l-1.17,2.3a.6.6,0,0,1-.46.27h-.39c-.11,0-.16,0-.16-.13a.78.78,0,0,1,0-.14l1.69-2.8a.58.58,0,0,0,.12-.25v-.05c0-.06-.52-.9-1.48-2.51a.44.44,0,0,1,0-.1q0-.15.18-.15h.38a.51.51,0,0,1,.26.07.55.55,0,0,1,.19.18l.81,1.67c.06.16.12.24.15.24s.09-.08.15-.24l.78-1.67a.59.59,0,0,1,.2-.18.54.54,0,0,1,.27-.07h.38c.12,0,.18,0,.18.14a.19.19,0,0,1,0,.11l-1.4,2.39a.83.83,0,0,0-.1.21.53.53,0,0,0,.1.21l1.73,2.8a.21.21,0,0,1,0,.12C79.28,33.75,79.22,33.8,79.09,33.8Z"/></g></g></svg>