<svg xmlns="http://www.w3.org/2000/svg" viewBox="0 0 77.81 115.83"><defs><style>.cls-1{fill:none;stroke:#485a83;stroke-miterlimit:10;stroke-width:5px;}</style></defs><g id="Слой_2" data-name="Слой 2"><g id="Слой_1-2" data-name="Слой 1"><path class="cls-1" d="M50.43,36.86a11.5,11.5,0,0,1-11.5,11.5,10,10,0,0,1-3.46-.53,12,12,0,0,1-8-11,11.68,11.68,0,0,1,11.5-11.5A11.5,11.5,0,0,1,50.43,36.86Z"/><path class="cls-1" d="M41.43,49.36c0,1.93.45,7.9,5,12,.92.83,4.85,4.37,8,3,2.8-1.21,3.7-5.72,3-9-1.35-6.34-9.07-9.9-9-10a84.89,84.89,0,0,0,8,5c3.48,1.81,5.81,3,9,3,1.78,0,5.64,0,8-3,1.72-2.18,2.39-5.63,1-8-1.12-1.93-3-2.18-10-4s-12.08-3.18-12-4c.06-.51,2.11-.55,6-1,8.58-1,12.91-1.51,15-4a8.39,8.39,0,0,0,1-9c-2.4-4.29-9.11-4-10-4-10.06.38-17.44,10.55-18,10s8.26-7.29,8-16c0-.86-.15-5.14-3-7-3.49-2.27-9.13.37-12,3-4.85,4.46-5.85,12.67-3,21"/><path class="cls-1" d="M35.43,49.36a44,44,0,0,0-1,9c0,8.43,2.44,12,6,26,1.78,7,2.7,10.68,3,16a61.39,61.39,0,0,1-1,15"/><path class="cls-1" d="M33.43,25.36a28.58,28.58,0,0,0-5-10c-2.54-3.26-6.64-8.52-12-8-3.6.36-7.53,3.31-8,7-.39,3.15,1.89,5.73,3,7,1.44,1.63,2.79,2.37,8,5,3.26,1.65,6,3,8,4"/><path class="cls-1" d="M25.43,32.36a24.17,24.17,0,0,0-10-3c-3.67-.26-7.27-.51-10,2a9.63,9.63,0,0,0-2,11c1.59,3,4.68,4,8,5,2.7.83,6.86,2.1,11,0a11.87,11.87,0,0,0,5-5"/><path class="cls-1" d="M34.43,47.36a18.56,18.56,0,0,1-4,9c-1.62,2-3.43,4.14-6,4-2.33-.13-4.21-2.13-5-4a6.2,6.2,0,0,1,0-5c.56-1,1.3-1.41,4-3,1.15-.67,2.87-1.69,5-3"/></g></g></svg>