<svg xmlns="http://www.w3.org/2000/svg" viewBox="0 0 334.06 312.23"><defs><style>.cls-1{fill:#fff;}</style></defs><g id="Слой_2" data-name="Слой 2"><g id="Слой_1-2" data-name="Слой 1"><path class="cls-1" d="M109.62,35.23a11.58,11.58,0,0,1-15.33-5.55,11.11,11.11,0,0,1-.38-8.81,11.55,11.55,0,0,1,21.3-1,11.15,11.15,0,0,1,.39,8.81A11.18,11.18,0,0,1,109.62,35.23Zm-1.17-2.49a8.15,8.15,0,0,0,4.41-4.94,8.83,8.83,0,0,0-5.24-11.18,8.38,8.38,0,0,0-11,5.15A8.77,8.77,0,0,0,101.86,33,8.12,8.12,0,0,0,108.45,32.74Z"/><path class="cls-1" d="M138.69,24.68a1.42,1.42,0,0,1-1.78-1L132.45,7.18a.41.41,0,0,0-.21-.27.4.4,0,0,0-.35,0L120.5,9.93a.35.35,0,0,0-.25.21.5.5,0,0,0,0,.34L124.68,27a1.36,1.36,0,0,1-.13,1.08,1.41,1.41,0,0,1-.91.67,1.5,1.5,0,0,1-1.17-.11,1.4,1.4,0,0,1-.66-.86l-5-18.41A1.36,1.36,0,0,1,117,8.28a1.34,1.34,0,0,1,.86-.66L133,3.52a1.33,1.33,0,0,1,1.07.13,1.4,1.4,0,0,1,.67.87l5,18.41A1.33,1.33,0,0,1,139.6,24,1.43,1.43,0,0,1,138.69,24.68Z"/><path class="cls-1" d="M161.74,21.84a2.7,2.7,0,0,1-1.58-.16,2.48,2.48,0,0,1-.78-.89L151.8,7.08a2.87,2.87,0,0,1-.28-.48,2.94,2.94,0,0,0-.23-.44c-.15-.35-.26-.52-.32-.52s-.07.15-.1.42a.33.33,0,0,0-.05.15c0,.06-.06.23-.14.49s-.16.56-.23.86-.36,1.18-.84,2.65-1,3.13-1.59,5l-2.19,7a2.53,2.53,0,0,1-.65,1.1,2.44,2.44,0,0,1-1.23.38h-.14a1.35,1.35,0,0,1-1-.31.75.75,0,0,1-.28-.57,1.31,1.31,0,0,1,0-.46L149.94,1c.18-.39.36-.59.54-.61s.44.14.69.48l1.72,2.86c1.11,1.91,2.38,4.1,3.83,6.56s2.73,4.65,3.88,6.59l1.91,3.26a1.69,1.69,0,0,1,.23.66C162.8,21.41,162.47,21.77,161.74,21.84Z"/><path class="cls-1" d="M176,23a11.38,11.38,0,0,1-7.95-4,10.89,10.89,0,0,1-2.81-8.37,11.2,11.2,0,0,1,4-7.91A11.14,11.14,0,0,1,177.67,0a11.71,11.71,0,0,1,4.46,1.25,9,9,0,0,1,3.34,2.87.39.39,0,0,0,.3.21.35.35,0,0,0,.19-.06c.07,0,.11-.24.14-.61l.08-1a1.37,1.37,0,0,1,.49-1,1.43,1.43,0,0,1,1.08-.33,1.46,1.46,0,0,1,1,.49,1.36,1.36,0,0,1,.34,1l-1.45,19.06a1.35,1.35,0,0,1-.49,1,1.54,1.54,0,0,1-2.09-.16,1.34,1.34,0,0,1-.34-1l.11-1.37c0-.28-.05-.42-.2-.43a.18.18,0,0,0-.19.08A10.61,10.61,0,0,1,176,23Zm.21-2.74a8.12,8.12,0,0,0,6.24-2.12,8.57,8.57,0,0,0,2.95-5.94,8.6,8.6,0,0,0-2.07-6.37,8.41,8.41,0,0,0-12.19-.93,8.66,8.66,0,0,0-3,6,8.46,8.46,0,0,0,2.09,6.33A8.39,8.39,0,0,0,176.22,20.29Z"/><path class="cls-1" d="M197.77,25.82a1.46,1.46,0,0,1-1-.65,1.36,1.36,0,0,1-.16-1.08l4-16.62a.57.57,0,0,0,0-.34.39.39,0,0,0-.3-.21L195.6,5.78a1.39,1.39,0,0,1-.89-.64A1.43,1.43,0,0,1,194.56,4a1.43,1.43,0,0,1,.65-.92,1.38,1.38,0,0,1,1.07-.17l13.21,3.19a1.38,1.38,0,0,1,.88.63,1.45,1.45,0,0,1,.15,1.12,1.42,1.42,0,0,1-.65.93A1.34,1.34,0,0,1,208.8,9L204,7.82a.37.37,0,0,0-.32.06.47.47,0,0,0-.18.28l-4,16.63a1.41,1.41,0,0,1-1.76,1Z"/><path class="cls-1" d="M217.71,33a11.4,11.4,0,0,1-6.3-6.27,10.94,10.94,0,0,1,0-8.83,11.54,11.54,0,0,1,15.15-6.18,11.48,11.48,0,0,1,3.84,2.61,8.82,8.82,0,0,1,2.25,3.77.43.43,0,0,0,.23.3.31.31,0,0,0,.19,0c.08,0,.19-.19.33-.53l.41-1a1.4,1.4,0,0,1,.76-.77,1.48,1.48,0,0,1,1.13,0,1.4,1.4,0,0,1,.81.79,1.31,1.31,0,0,1,0,1.08l-7.41,17.62a1.33,1.33,0,0,1-.77.77,1.39,1.39,0,0,1-1.13,0,1.45,1.45,0,0,1-.81-.78,1.42,1.42,0,0,1,0-1.09l.54-1.27c.1-.25.09-.4-.06-.46a.18.18,0,0,0-.2,0A10.56,10.56,0,0,1,217.71,33Zm1.06-2.53a8.13,8.13,0,0,0,6.59,0A8.84,8.84,0,0,0,230.1,19a8.42,8.42,0,0,0-11.27-4.74A8.62,8.62,0,0,0,214.11,19a8.46,8.46,0,0,0,0,6.66A8.42,8.42,0,0,0,218.77,30.44Z"/><path class="cls-1" d="M285.14,95.56a11.24,11.24,0,0,1-1.4-7.39q1.18-5.74,8.72-9.58l2.52-1.2a39.13,39.13,0,0,1,6.27-2.09,13.88,13.88,0,0,1,9.19.4,12.27,12.27,0,0,1,6.38,6,6.11,6.11,0,0,1,.55,5.11,4.25,4.25,0,0,1-2.09,2.35,10.56,10.56,0,0,1-2.44.7c-1.16.24-3.11-.44-5.83-2-.1,0-.15-.08-.16-.07l-.07,0a.31.31,0,0,0-.08.14,11.56,11.56,0,0,1-.82,7.35,11,11,0,0,1-5.2,5.32,11.55,11.55,0,0,1-15.54-5Zm2.45-1.24a8.13,8.13,0,0,0,5.1,4.22,8.65,8.65,0,0,0,6.66-.57,8.51,8.51,0,0,0,4.34-5,8.44,8.44,0,0,0-5.52-10.84,8.52,8.52,0,0,0-6.62.55,8.66,8.66,0,0,0-4.38,5A8.13,8.13,0,0,0,287.59,94.32ZM298.3,79.37a.48.48,0,0,0,.3.2,9.28,9.28,0,0,1,4.89,2.54l.58.53c.68.67,1.57,1.45,2.64,2.32A13.43,13.43,0,0,0,310.23,87a4.14,4.14,0,0,0,3.56-.1A2.25,2.25,0,0,0,315,85.47a3.67,3.67,0,0,0-.52-2.58,9.32,9.32,0,0,0-4.63-4.5,11.63,11.63,0,0,0-6.74-.69q-.94.17-2.16.48a15.39,15.39,0,0,0-2.39.76C298.29,79.06,298.21,79.2,298.3,79.37Z"/><path class="cls-1" d="M294.16,118.2a11.56,11.56,0,1,1,5.56,6.89A11.1,11.1,0,0,1,294.16,118.2Zm2.63-.78a8.15,8.15,0,0,0,4.22,5.1A8.82,8.82,0,0,0,312.85,119a8.08,8.08,0,0,0,.78-6.57,8.17,8.17,0,0,0-4.21-5.08,8.76,8.76,0,0,0-11.84,3.5A8.15,8.15,0,0,0,296.79,117.42Z"/><path class="cls-1" d="M298.5,138.42l-.06-.45q-.7-5.35,3-7.6h.05a1.73,1.73,0,0,1,.47-.25,3.91,3.91,0,0,1,.83,0,1.15,1.15,0,0,1,.73.51,1.84,1.84,0,0,1,.42.87,1.59,1.59,0,0,1-.09.56,1.75,1.75,0,0,1-.54.79c-.29.26-.53.47-.72.62a4,4,0,0,0-1.5,4.07,4.37,4.37,0,0,0,1.91,2.93,3.72,3.72,0,0,0,2.7.85,4,4,0,0,0,2.14-.86,4.81,4.81,0,0,0,1.24-2.5,9.21,9.21,0,0,0,.22-2,6.74,6.74,0,0,1,.14-1.54.85.85,0,0,1,.79-.7.89.89,0,0,1,1,.35,5.53,5.53,0,0,1,.51,1.27,11.54,11.54,0,0,0,.78,1.84,2.61,2.61,0,0,0,1.53,1.34,5,5,0,0,0,2.05.1q2.72-.69,2.31-3.82a3.53,3.53,0,0,0-1.74-2.67,3.66,3.66,0,0,1-1-.88,1,1,0,0,1-.25-.52,1.37,1.37,0,0,1,.13-.71,1.43,1.43,0,0,1,1.05-.78,1.67,1.67,0,0,1,.66,0,4.94,4.94,0,0,1,2.09,1.57,8.52,8.52,0,0,1,1.53,2.47,8.86,8.86,0,0,1,.42,1.74,5.54,5.54,0,0,1-1.42,4.67,6,6,0,0,1-3.17,1.84,6.39,6.39,0,0,1-3.1-.3,3.54,3.54,0,0,1-2.07-1.83.31.31,0,0,0-.3-.19c-.06,0-.11.1-.15.25a6.4,6.4,0,0,1-.81,2.23,5.48,5.48,0,0,1-4.1,2.48Q300.15,145,298.5,138.42Z"/><path class="cls-1" d="M299.58,159.12a11.18,11.18,0,0,1,2.27-7.17q3.76-4.5,12.22-4.3l2.79.13a38.79,38.79,0,0,1,6.51,1.14,13.87,13.87,0,0,1,7.9,4.7,12.23,12.23,0,0,1,2.78,8.3,6.09,6.09,0,0,1-1.94,4.76,4.3,4.3,0,0,1-2.95,1.08,10.86,10.86,0,0,1-2.48-.54q-1.69-.53-4.17-4.56a.53.53,0,0,0-.11-.14h-.07a.26.26,0,0,0-.14.09,11.61,11.61,0,0,1-4.21,6.08,11,11,0,0,1-7.09,2.22,11.58,11.58,0,0,1-11.31-11.79Zm2.75.06a8.05,8.05,0,0,0,2.49,6.14,8.83,8.83,0,0,0,12.34.29,8.46,8.46,0,0,0,.28-12.16,8.5,8.5,0,0,0-6.09-2.66,8.74,8.74,0,0,0-6.26,2.37A8.11,8.11,0,0,0,302.33,159.18Zm16.51-8.08a.5.5,0,0,0,.18.32,9.33,9.33,0,0,1,3.09,4.56l.26.73c.29.93.69,2,1.23,3.3a13.14,13.14,0,0,0,2.12,3.48,4.15,4.15,0,0,0,3.18,1.61,2.29,2.29,0,0,0,1.73-.72,3.63,3.63,0,0,0,.77-2.52,9.27,9.27,0,0,0-1.94-6.15,11.77,11.77,0,0,0-5.61-3.81q-.9-.3-2.13-.6a15.73,15.73,0,0,0-2.46-.47C319,150.83,318.85,150.92,318.84,151.1Z"/><path class="cls-1" d="M293.05,173a1.4,1.4,0,0,1,.6-.92,1.34,1.34,0,0,1,1-.18l25,5.28a1.39,1.39,0,0,1,.91.59,1.35,1.35,0,0,1,.19,1.09,1.45,1.45,0,0,1-.62.94,1.34,1.34,0,0,1-1.07.19l-1.3-.27c-.27-.06-.42,0-.46.19a.4.4,0,0,0,.12.35,8.84,8.84,0,0,1,1.81,4,11.69,11.69,0,0,1,0,4.64,11.56,11.56,0,0,1-13.71,8.93,10.92,10.92,0,0,1-7.26-5,11.36,11.36,0,0,1-1.56-8.74,11.76,11.76,0,0,1,1.84-4.31,8.76,8.76,0,0,1,3.43-2.94.18.18,0,0,0,.12-.12v0c0-.15-.08-.25-.32-.3l-7.65-1.62a1.26,1.26,0,0,1-.87-.61A1.49,1.49,0,0,1,293.05,173Zm6.29,11.62A8.78,8.78,0,0,0,306.08,195a8.62,8.62,0,0,0,6.59-1.21,8.4,8.4,0,0,0,2.52-11.94,8.85,8.85,0,0,0-12.07-2.6A8.1,8.1,0,0,0,299.34,184.66Z"/><path class="cls-1" d="M289.32,207.54a11.42,11.42,0,0,1,6.27-6.29,11,11,0,0,1,8.84,0,11.57,11.57,0,0,1,6.18,15.15,11.68,11.68,0,0,1-2.61,3.84,8.92,8.92,0,0,1-3.78,2.26.4.4,0,0,0-.29.22.34.34,0,0,0,0,.2c0,.07.2.18.54.32l1,.41a1.33,1.33,0,0,1,.77.77,1.39,1.39,0,0,1,0,1.13,1.41,1.41,0,0,1-.78.81,1.38,1.38,0,0,1-1.09,0l-17.62-7.41a1.39,1.39,0,0,1-.77-.77,1.48,1.48,0,0,1,0-1.13,1.46,1.46,0,0,1,.79-.81,1.4,1.4,0,0,1,1.08,0l1.27.53c.25.11.41.09.47,0a.18.18,0,0,0,0-.2A10.62,10.62,0,0,1,289.32,207.54Zm2.53,1.07a8.09,8.09,0,0,0,0,6.59,8.83,8.83,0,0,0,11.4,4.74A8.43,8.43,0,0,0,308,208.66a8.7,8.7,0,0,0-4.74-4.72,8.79,8.79,0,0,0-11.44,4.67Z"/><path class="cls-1" d="M279.78,227.26a1.5,1.5,0,0,1,.93-.71,1.4,1.4,0,0,1,1.07.19l14.48,9.09a.51.51,0,0,0,.34.07.42.42,0,0,0,.29-.21l2.58-4.11a1.34,1.34,0,0,1,.88-.63,1.57,1.57,0,0,1,1.79,1.11,1.42,1.42,0,0,1-.19,1.08l-7.22,11.5a1.35,1.35,0,0,1-.88.63,1.4,1.4,0,0,1-1.11-.21,1.41,1.41,0,0,1-.67-.91,1.36,1.36,0,0,1,.18-1.07l2.6-4.14a.35.35,0,0,0,0-.33.41.41,0,0,0-.21-.26l-14.48-9.09a1.38,1.38,0,0,1-.64-.89A1.44,1.44,0,0,1,279.78,227.26Z"/><path class="cls-1" d="M226.24,275.25a11.56,11.56,0,1,1-5.79,6.71A11.08,11.08,0,0,1,226.24,275.25Zm1.24,2.45a8.12,8.12,0,0,0-4.26,5.06,8.83,8.83,0,0,0,5.55,11,8.38,8.38,0,0,0,10.85-5.46,8.79,8.79,0,0,0-5.56-11A8.14,8.14,0,0,0,227.48,277.7Z"/><path class="cls-1" d="M201.34,278.72a1.51,1.51,0,0,1,1.17.09,1.38,1.38,0,0,1,.67.86l1.12,3.91c.06.21.18.3.37.28a11.77,11.77,0,0,1,8.21,1.62,11.61,11.61,0,0,1,4.22,14.85A11.51,11.51,0,0,1,211,306a.72.72,0,0,0-.15.12.27.27,0,0,0,0,.32l1.1,3.87a1.35,1.35,0,0,1-.12,1.08,1.44,1.44,0,0,1-.94.7,1.4,1.4,0,0,1-1.12-.11,1.31,1.31,0,0,1-.67-.85L208,307.22a.37.37,0,0,0-.2-.21.44.44,0,0,0-.26,0,12.75,12.75,0,0,1-5.44-.56,12.38,12.38,0,0,1-4.71-2.84,10.75,10.75,0,0,1-2.85-4.82,11.57,11.57,0,0,1,.65-8.3,10.5,10.5,0,0,1,6.08-5.61c.2-.06.27-.22.19-.48l-1.11-3.87a1.42,1.42,0,0,1,1-1.77Zm.69,8.74a9,9,0,0,0-4.71,10.48,9.76,9.76,0,0,0,2.08,3.78,8.94,8.94,0,0,0,3.44,2.45,6.1,6.1,0,0,0,4,.19c.2-.06.28-.18.23-.35l-4.69-16.4Q202.3,287.39,202,287.46Zm3.39-1c-.18.05-.25.13-.21.25l4.68,16.4c.06.2.17.28.31.24l.13,0a8.51,8.51,0,0,0,4.25-4.37,8.95,8.95,0,0,0-3.19-11.05A8.38,8.38,0,0,0,205.42,286.5Z"/><path class="cls-1" d="M178.44,288.92A11.56,11.56,0,0,1,191,299.36a11,11,0,0,1-2.61,8.42,11.7,11.7,0,0,1-16.3,1.53,9.92,9.92,0,0,1-3.41-5.56l-.08-.32a2.6,2.6,0,0,1,.14-1c.12-.38.5-.6,1.13-.66l17.44-1.63c.31,0,.5-.1.58-.22a.72.72,0,0,0,.09-.49l0-.22a8.55,8.55,0,0,0-3-5.37,8.37,8.37,0,0,0-6.27-2.21,7.78,7.78,0,0,0-3.27,1.06,6.73,6.73,0,0,0-2.27,2c-.65,1-1.21,1.49-1.7,1.54a2,2,0,0,1-.93-.19,1.39,1.39,0,0,1-.75-1.13,1.76,1.76,0,0,1,.35-1.18A11.51,11.51,0,0,1,178.44,288.92Zm-5.62,15.55q-.69.06-.66.33a.9.9,0,0,0,.32.53v0a6.07,6.07,0,0,0,1.58,1.64,8.13,8.13,0,0,0,12.06-1.13,11.83,11.83,0,0,0,1.41-2.15,1.1,1.1,0,0,0,.1-.42.21.21,0,0,0-.13-.15Q187.39,303.1,172.82,304.47Z"/><path class="cls-1" d="M164.4,284a1.4,1.4,0,0,1,1,.48,1.37,1.37,0,0,1,.3,1l-2.29,25.41a1.44,1.44,0,0,1-.48,1,1.34,1.34,0,0,1-1.06.32,1.4,1.4,0,0,1-1-.51,1.33,1.33,0,0,1-.32-1l.12-1.32c0-.27-.06-.41-.24-.43a.42.42,0,0,0-.34.15,8.93,8.93,0,0,1-3.76,2.28,11.58,11.58,0,0,1-4.61.5,11.55,11.55,0,0,1-10.49-12.56,10.93,10.93,0,0,1,4.15-7.8,11.38,11.38,0,0,1,8.5-2.58,11.52,11.52,0,0,1,4.49,1.32,8.76,8.76,0,0,1,3.33,3.06.17.17,0,0,0,.13.1h.05c.15,0,.23-.1.26-.34l.7-7.79a1.26,1.26,0,0,1,.5-.94A1.46,1.46,0,0,1,164.4,284Zm-10.79,7.61a8.78,8.78,0,0,0-9.48,7.91,8.62,8.62,0,0,0,2,6.4,8.4,8.4,0,0,0,12.16,1.1,8.83,8.83,0,0,0,1.15-12.29A8.07,8.07,0,0,0,153.61,291.64Z"/><path class="cls-1" d="M132.82,285.86a1.53,1.53,0,0,1,1,.67,1.45,1.45,0,0,1,.15,1.08l-4.25,16.57a.47.47,0,0,0,0,.33.39.39,0,0,0,.3.22l4.7,1.21a1.35,1.35,0,0,1,.87.64,1.54,1.54,0,0,1-.52,2,1.36,1.36,0,0,1-1.08.15l-13.15-3.37a1.36,1.36,0,0,1-.88-.65,1.48,1.48,0,0,1-.14-1.12,1.43,1.43,0,0,1,.66-.91,1.37,1.37,0,0,1,1.08-.15l4.74,1.21a.36.36,0,0,0,.32-.06.46.46,0,0,0,.19-.28l4.25-16.57a1.39,1.39,0,0,1,.64-.87A1.46,1.46,0,0,1,132.82,285.86Z"/><path class="cls-1" d="M113,278.44a11.36,11.36,0,0,1,6.2,6.36,10.87,10.87,0,0,1-.12,8.83,11.55,11.55,0,0,1-15.23,6,11.54,11.54,0,0,1-3.81-2.66,9,9,0,0,1-2.2-3.81.36.36,0,0,0-.22-.29.3.3,0,0,0-.19,0c-.08,0-.19.2-.33.53l-.43,1a1.31,1.31,0,0,1-.78.75,1.37,1.37,0,0,1-1.12,0,1.4,1.4,0,0,1-.8-.8,1.34,1.34,0,0,1,0-1.09l7.66-17.51a1.37,1.37,0,0,1,.78-.75,1.39,1.39,0,0,1,1.13,0,1.43,1.43,0,0,1,.8.8,1.35,1.35,0,0,1,0,1.08l-.55,1.26c-.1.25-.09.41,0,.47a.18.18,0,0,0,.2,0A10.58,10.58,0,0,1,113,278.44Zm-1.1,2.51a8.13,8.13,0,0,0-6.59-.06,8.82,8.82,0,0,0-4.9,11.33,8.41,8.41,0,0,0,11.2,4.9,8.64,8.64,0,0,0,4.79-4.67,8.46,8.46,0,0,0,.12-6.66A8.37,8.37,0,0,0,111.89,281Z"/><path class="cls-1" d="M69.76,237.09l.2.24a1.52,1.52,0,0,1,.13,2.18l-.1.09a1.5,1.5,0,0,1-1.39.45,2.09,2.09,0,0,1-1.09-.67,7.2,7.2,0,0,0-4.69-2.08,9,9,0,0,0-4.37.47,4.8,4.8,0,0,0-1,.64c-.58.58-.84.92-.76,1l0,0a10.3,10.3,0,0,1,4.83,1.09,11.85,11.85,0,0,1,3.79,2.89,11.59,11.59,0,0,1,3.13,8.36,11.12,11.12,0,0,1-4.27,7.9,11,11,0,0,1-8.57,2.88,11.75,11.75,0,0,1-10.5-12.9l0-.13-.09-.1s-.18,0-.41.23l-.8.68a1.65,1.65,0,0,1-1.2.5,1.49,1.49,0,0,1-1-.57,1.35,1.35,0,0,1-.34-1,1.39,1.39,0,0,1,.49-1L54.88,237a10.92,10.92,0,0,1,8.24-2.69A11.09,11.09,0,0,1,69.76,237.09Zm-6.45,8.14a8.56,8.56,0,0,0-6-3,8.37,8.37,0,0,0-6.36,2A8.89,8.89,0,0,0,50,256.69a8,8,0,0,0,6,2.85,8.8,8.8,0,0,0,6.29-2.09,8.67,8.67,0,0,0,3.23-5.93A8.33,8.33,0,0,0,63.31,245.23Z"/><path class="cls-1" d="M50.65,222.78A11.51,11.51,0,0,1,37.7,239.67a11.53,11.53,0,1,1,5.92-22.28A11.12,11.12,0,0,1,50.65,222.78Zm-2.38,1.38a8.11,8.11,0,0,0-5.3-4,8.83,8.83,0,0,0-10.69,6.18,8.37,8.37,0,0,0,6.08,10.51,8.79,8.79,0,0,0,10.69-6.18A8.13,8.13,0,0,0,48.27,224.16Z"/><path class="cls-1" d="M40.33,200.38a11.06,11.06,0,0,1-.37,8.84,11.22,11.22,0,0,1-6.5,6,11.46,11.46,0,0,1-14.75-6.84,10.71,10.71,0,0,1-.14-7.75c.06-.28.31-.5.73-.66l2.36-.87c.41-.15.64-.13.7,0s0,.43-.26.87a9.6,9.6,0,0,0-1.25,3.61,7.78,7.78,0,0,0,.43,3.81,8.14,8.14,0,0,0,4.53,4.81,8.47,8.47,0,0,0,6.64.23,8.64,8.64,0,0,0,4.94-4.5,8.07,8.07,0,0,0,.36-6.62A7.54,7.54,0,0,0,35.4,198a10,10,0,0,0-3.62-1.89c-.29-.08-.46-.2-.51-.34a.29.29,0,0,1,0-.14c0-.07.14-.15.4-.25l2.66-1a1.07,1.07,0,0,1,1,.05A11.1,11.1,0,0,1,40.33,200.38Z"/><path class="cls-1" d="M35.13,184a1.48,1.48,0,0,1-.17,1.16,1.41,1.41,0,0,1-.9.61l-16.73,3.55a.43.43,0,0,0-.29.18.39.39,0,0,0-.06.36l1,4.74a1.39,1.39,0,0,1-.19,1.07,1.56,1.56,0,0,1-2.06.44,1.36,1.36,0,0,1-.61-.9L12.3,181.91a1.39,1.39,0,0,1,.19-1.07,1.48,1.48,0,0,1,.95-.62,1.38,1.38,0,0,1,1.11.19,1.34,1.34,0,0,1,.61.89l1,4.79a.35.35,0,0,0,.19.26.5.5,0,0,0,.34.05l16.73-3.55a1.38,1.38,0,0,1,1.07.19A1.42,1.42,0,0,1,35.13,184Z"/><path class="cls-1" d="M33,162.92A11.4,11.4,0,0,1,30,171.3a10.92,10.92,0,0,1-8,3.82,11.15,11.15,0,0,1-8.34-3,11.17,11.17,0,0,1-3.78-8,11.74,11.74,0,0,1,.7-4.59,9,9,0,0,1,2.43-3.66.42.42,0,0,0,.17-.33.36.36,0,0,0-.08-.18c0-.06-.26-.08-.62-.06l-1.05,0a1.38,1.38,0,0,1-1-.36,1.46,1.46,0,0,1-.46-1,1.41,1.41,0,0,1,.36-1.07,1.33,1.33,0,0,1,1-.46l19.09-.93a1.34,1.34,0,0,1,1,.37,1.4,1.4,0,0,1,.46,1,1.36,1.36,0,0,1-.36,1.07,1.38,1.38,0,0,1-1,.46l-1.37.06c-.28,0-.41.1-.4.25a.19.19,0,0,0,.1.18A10.57,10.57,0,0,1,33,162.92Zm-2.74.13a8.12,8.12,0,0,0-2.88-5.93,8.83,8.83,0,0,0-12.33.65A8.22,8.22,0,0,0,12.7,164a8.14,8.14,0,0,0,2.93,6,8.68,8.68,0,0,0,6.31,2.22,8.47,8.47,0,0,0,6-2.86A8.42,8.42,0,0,0,30.24,163.05Z"/><path class="cls-1" d="M34.06,137.77A11.18,11.18,0,0,1,31,144.64q-4.24,4-12.63,2.88l-2.75-.45a39.79,39.79,0,0,1-6.34-1.87A13.84,13.84,0,0,1,2,139.62a12.19,12.19,0,0,1-1.82-8.56,6.11,6.11,0,0,1,2.46-4.5,4.22,4.22,0,0,1,3.06-.73,10.65,10.65,0,0,1,2.4.81q1.63.7,3.63,5,.08.15.09.15h.07s.08,0,.15-.07a11.6,11.6,0,0,1,4.87-5.56,11.07,11.07,0,0,1,7.3-1.39,11.07,11.07,0,0,1,7.65,4.47A11.08,11.08,0,0,1,34.06,137.77Zm-20,5.78a.52.52,0,0,0-.14-.34,9.41,9.41,0,0,1-2.56-4.88l-.17-.76c-.18-.95-.46-2.09-.85-3.42a13.38,13.38,0,0,0-1.7-3.7,4.16,4.16,0,0,0-3-1.95,2.25,2.25,0,0,0-1.8.51,3.68,3.68,0,0,0-1.05,2.42A9.37,9.37,0,0,0,4,137.76a11.71,11.71,0,0,0,5.14,4.42c.58.27,1.26.55,2,.84a14.61,14.61,0,0,0,2.39.74Q14,143.82,14,143.55Zm17.32-6.15A8.08,8.08,0,0,0,29.57,131a8.65,8.65,0,0,0-5.79-3.33,8.47,8.47,0,0,0-6.44,1.65,8.45,8.45,0,0,0-1.66,12,8.53,8.53,0,0,0,5.75,3.33,8.66,8.66,0,0,0,6.48-1.65A8.1,8.1,0,0,0,31.34,137.4Z"/><path class="cls-1" d="M36.35,122.45a1.46,1.46,0,0,1-.71.93,1.4,1.4,0,0,1-1.08.1l-18.25-5.55a1.34,1.34,0,0,1-.84-.69,1.46,1.46,0,0,1-.07-1.17,1.42,1.42,0,0,1,.7-.88,1.35,1.35,0,0,1,1.08-.1l7.09,2.15c.29.09.46.06.5-.08a.58.58,0,0,0-.07-.38l-.91-1.9q-.78-1.65-1.8-3.75c-.67-1.4-1.27-2.65-1.8-3.73l-.77-1.57a1.66,1.66,0,0,1,0-1.12,1.55,1.55,0,0,1,.74-.8,1.51,1.51,0,0,1,1.16-.1,1.46,1.46,0,0,1,.81.77l1.71,3.68c1,2.26,1.64,3.56,1.82,3.9a.65.65,0,0,0,.39.31.78.78,0,0,0,.44,0c.17-.05.85-.3,2-.74l4-1.49c1.51-.56,2.84-1.07,4-1.51l1.77-.61a1.54,1.54,0,0,1,1,0,1.34,1.34,0,0,1,.85.83,1.28,1.28,0,0,1,0,1l-.13.44a1.21,1.21,0,0,1-.74.54l-5.91,1.83c-1.56.52-3,1-4.16,1.34l-2.07.66a.52.52,0,0,0-.31.32.57.57,0,0,0,0,.36l.32.67.53,1,.51,1a1.21,1.21,0,0,0,.79.62l6.43,2a1.38,1.38,0,0,1,.85.68A1.42,1.42,0,0,1,36.35,122.45Z"/><path class="cls-1" d="M46.37,97.38a11.38,11.38,0,0,1-6.63,5.9,10.9,10.9,0,0,1-8.82-.52,11.54,11.54,0,0,1-5.26-15.49,11.44,11.44,0,0,1,2.83-3.67,8.94,8.94,0,0,1,3.9-2,.42.42,0,0,0,.31-.21.3.3,0,0,0,0-.19c0-.08-.19-.2-.52-.36l-.94-.46a1.41,1.41,0,0,1-.62-1.94,1.41,1.41,0,0,1,1.92-.69L49.7,86.17a1.36,1.36,0,0,1,.72.82,1.55,1.55,0,0,1-.93,1.88,1.35,1.35,0,0,1-1.08-.07l-1.23-.61c-.25-.12-.41-.11-.47,0a.2.2,0,0,0,0,.21A10.6,10.6,0,0,1,46.37,97.38Zm-2.46-1.22a8.09,8.09,0,0,0,.36-6.57,8.83,8.83,0,0,0-11.09-5.42,8.42,8.42,0,0,0-5.41,11,8.67,8.67,0,0,0,4.44,5,8.79,8.79,0,0,0,11.7-4Z"/></g></g></svg>