<svg xmlns="http://www.w3.org/2000/svg" viewBox="0 0 45.55 51.54"><defs><style>.cls-1{fill:#fff;}</style></defs><g id="Слой_2" data-name="Слой 2"><g id="Слой_1-2" data-name="Слой 1"><path class="cls-1" d="M15,32.06c0-.09-.09-.27-.19-.18l0,.34Z"/><path class="cls-1" d="M14,31.85a.79.79,0,0,0,.1.77c0-.35.09-.24.09-.66.1-.08.25,0,.28.13,0-.09.21,0,.19-.23-.25-.17-.46-.09-.58.19C14,32,14,31.91,14,31.85Z"/><path class="cls-1" d="M4,39.87l.07-.06A.13.13,0,0,0,4,39.87Z"/><path class="cls-1" d="M1,47.38c0-.07,0-.1,0-.11S.94,47.38,1,47.38Z"/><path class="cls-1" d="M.35,49.24l0-.14C.35,49.16.33,49.22.35,49.24Z"/><path class="cls-1" d="M4,39.87l-.2.13C3.92,40.07,4,40,4,39.87Z"/><path class="cls-1" d="M12.77,33.33a.31.31,0,0,0,.06-.13l-.07.08Z"/><path class="cls-1" d="M6,36.81l0-.05-.06-.13Z"/><path class="cls-1" d="M7.87,34.79s.12.26.19.37a.24.24,0,0,1,0-.24Z"/><path class="cls-1" d="M11.7,32.63l0-.08Z"/><path class="cls-1" d="M4.67,38.33l-.1,0A.18.18,0,0,0,4.67,38.33Z"/><path class="cls-1" d="M32.89,34.11l0,0S32.87,34.09,32.89,34.11Z"/><polygon class="cls-1" points="30.81 31.5 30.86 31.5 30.93 31.36 30.81 31.5"/><path class="cls-1" d="M2.58,51.16h0C2.44,51.19,2.51,51.18,2.58,51.16Z"/><path class="cls-1" d="M25.63,51.08c-.25-.25.43-.32,0-.6C25.7,50.59,25.31,50.92,25.63,51.08Z"/><path class="cls-1" d="M12.7,33.32l-.1.06Z"/><path class="cls-1" d="M25.67,50.48h0l0,0Z"/><path class="cls-1" d="M8.55,51a.31.31,0,0,0-.06-.13A.28.28,0,0,0,8.55,51Z"/><path class="cls-1" d="M4.29,50.6l.1,0A.26.26,0,0,0,4.29,50.6Z"/><path class="cls-1" d="M10.77,50.64c.05,0,.07.06.15,0s0,0,0,0S10.83,50.69,10.77,50.64Z"/><path class="cls-1" d="M13.07,50.65l0,0H13Z"/><path class="cls-1" d="M38,38.25a.92.92,0,0,1,.13-.24C38,38.17,37.71,38,38,38.25Z"/><path class="cls-1" d="M12.7,33.19c0,.07,0,.1,0,.13l.06,0A.23.23,0,0,0,12.7,33.19Z"/><path class="cls-1" d="M10.87,48.42l.37,0A2,2,0,0,0,10.87,48.42Z"/><path class="cls-1" d="M41.17,48.86l.08,0A.07.07,0,0,0,41.17,48.86Z"/><path class="cls-1" d="M12.32,48.43a.65.65,0,0,0,.21.2.16.16,0,0,0,0-.07Z"/><path class="cls-1" d="M38.11,38Z"/><path class="cls-1" d="M36.06,36.83c.22.24.35-.15.55-.26.36.2-.06.33-.1.55.25.1.62,0,.74.14s0,.09-.1.11c.39,0,.52.56,1,.55a.19.19,0,0,1,0,.09,1.57,1.57,0,0,1,.35-.37c.11.11.37.07.22.26-.06-.07-.13,0-.22,0l.19.05c-.18.33-.24-.08-.44.08.3.15.73.27.8.52-.23.25-.42-.37-.47.07l-.12-.37c-.24.56-.1-.2-.39.37.21.43.45.3.66.73.22,0,.21-.19.42-.22.69.35-.39.93.26,1.07.25,0,.64-.21.65.21l-.39.11c.22.4.61-.07.63.48-.17,0-.29-.25-.29-.17-.11.43.3.08.42.29l-.27.22a13,13,0,0,1,1,1.22c-.1,0-.24,0-.28.14a3.34,3.34,0,0,1,.58,2l.35.14a.13.13,0,0,1-.17.11c0,.27.18,0,.33,0s-.1.24-.21.18a1.8,1.8,0,0,1,.68,1.63l-.11-.07c0,.38.7.28.48.68l-.06-.05c0,.94.37,1.43-.09,1.38.22.17.21.27.14.26s-.17,0,.05.27a2.71,2.71,0,0,1-.66-.6s0,.37-.26.43V48.8l-.31.32-.16-.37-.21.08a.24.24,0,0,1,.16.23.73.73,0,0,1-.81-.38l-.78.26c0-.13.15-.17.26-.25-.42.31-.08-.32-.46,0,.05.07,0,.19,0,.25a1.14,1.14,0,0,0-.94-.12l.06-.21c-.58-.06-1.22.1-1.87.09.23.1.18.47,0,.5l-.07-.32c-.12.2.2.12-.06.37-.24,0-.16-.38,0-.48l-.29.11c0-.1.05-.15.07-.27-.12.2-.51-.33-.69,0v-.1c-.65,0-1,.11-1.48.12,0,.28-.21.22-.37.44a4.69,4.69,0,0,0-1.29-.29c-.33.14-.1.24-.25.4,0-.25-.49-.23-.24-.41a4.58,4.58,0,0,0-1.43.25c.07.1.16.15.11.23a.22.22,0,0,1-.27-.23l0,0c-.8.38-1.83-.76-2.47-.23l0,0-.66.28c-.3,0,.18-.19,0-.35-.71.42-1.12-.07-1.71.21-.45-.76-1.61,0-2.22-.44l0,.18c-.16.17-.19-.11-.31-.15,0,.14.17.16.07.26-1.34.21-2.76-.28-4.13-.44-.51-.05-.29.92-.92.49l.18-.33c-1,.39-2.08,0-3.07.3.06-.07.06-.17.16-.17-.21-.24-.78,0-.78.18-.16,0,0-.18-.13-.28s-.53.31-.64.07c0,0,.06-.08.1-.1-.14.12-.64,0-.51.24-.37-.13-.71.12-1,0-.2.31-.64-.15-.7.28,0-.45-.65-.37-.89-.15.08-.14-.2-.15-.11-.34-.27,0-.51.09-.47.32-.49-.54-1,.43-1.27-.26a15,15,0,0,1-2.26.5c0-.45.79,0,.77-.51-.69.18-1.08.56-1.76.45-.17-.06.1-.19.16-.27-.68.18-1.31,0-1.92.19,0,0,.07-.09.13-.12-.12,0-.28-.07-.26.14l.11-.06c.19.3-.47.62-.5.78.21-.59-.59-.15-.27-.89a.26.26,0,0,0-.16.27c-.07,0-.06-.12,0-.28C3,48.79,3,49,2.77,49c0-.1.09-.14.15-.26-.13.2-.38.39-.5.3.06-.06.1-.13.14-.13a1.05,1.05,0,0,0-.27.09l-.18.07s-.06,0-.09,0-.15-.21,0-.46c.44-.07.16-.18.55-.29l-.1-.1-.19.07c0-.07,0-.14-.08-.23a.37.37,0,0,1,0-.35l.12.23,0-.53-.19.27c-.14-.32-.47-.05-.3-.41,0,.09.06-.28.3-.38h0a.43.43,0,0,1,0-.52c.13,0,.39.14.48.13-.27-.21.08-.66-.2-.92a.44.44,0,0,0,.29.12l-.21-.18c.11-.1.15-.11.29,0,.17-.37-.49,0-.15-.41,0,0,0,0,.06.12.26-.41.14-.92.4-1.28.39,0,0,.38.31.36.15-.59,0-1.36.39-1.87l-.08.08c-.45-.3.43-.29.35-.67,0,.08.21.22.17.18a5.13,5.13,0,0,0,.45-1.43l.08.14c.23-.15.37-.52.58-.7-.07-.14,0-.25-.18-.28.56-.12.68-.49.8-.87s.27-.74.74-.81c-.05.06,0,.23,0,.18A4.77,4.77,0,0,1,7,37.66c-.2-.12-.16,0-.38,0a.53.53,0,0,1,.09-.47c-.07.31.28.25.46.25-.07,0-.1-.12-.16-.16.52,0-.3-.35.2-.49l.07.1c.07-.16.06-.39.21-.5.24.14,0,.22.11.38.16-.19,0-.7.35-.67,0,.12-.13.23-.16.36.4.05.36,0,.53-.11h0l.4-.18H8.56c-.25-.73.37-.52.4-1.13,0,.59.11.23.28.48.14,0,.32,0,.34.06,0-.31.37,0,.36-.51.07.07.17-.12.29.1.15-.2-.16-.1-.21-.21.12-.49,1-.21,1.18-.9.31-.42.22-.74.53-1.13.21,0,.07.37.07.37a.67.67,0,0,0,.59-.34c0,.1.08.14.19.2.15-.1-.06-.37.23-.35a1.21,1.21,0,0,1,0,.43c.15-.18.26-.45.43-.63.13.12,0,.29,0,.43.19-.19.51-.45.48-.71l-.2,0c.09-.05.15.19.11.26-.11.29-.33.06-.38,0l.12-.13c-.41-.44-.55.39-.86.51l-.07-.43-.14.46c-.12-.06-.28-.24-.16-.37-.32-.07-.11.23-.41.14,0,0,0,0,0-.06l-.14.23c0-.1-.19-.23,0-.26-.5,0-.43.63-.73.45v0c-.42.43.11.28-.05.82l-.67-.44.13.28c-.06,0-.17.08-.22,0-.06.3.11.08.12.32-.41-.06-.58.57-.92.24.06.25.32,0,.18.28-.39-.35-.22.3-.58.29-.11-.26.18-.32-.18-.33.17.46-.48.26-.59.48.23.28-.26.46-.46.81-.07-.11-.67.35-1,.54l0-.05c.22.3-.08.52-.21.77a.42.42,0,0,1-.16-.42L6,36.76a.39.39,0,0,1,0,.37L5.8,36.9c-.21.28-.18.74-.6,1,.19.17.78.17.63.62-.12-.07-.32-.2-.29-.32,0,0,0,.17-.09.2l-.07-.28c-.2.09.09.19,0,.3-.16-.12-.19,0-.3-.1s.15-.06.13-.15a.78.78,0,0,1-.52.19c.1.05.21.16.16.28-.18.29-.26,0-.46.06.07.15-.17.25.07.42-.06.08-.18,0-.27,0,0,.21-.41.72,0,.72l0,0v0h0c0,.64-.76.92-.89,1.5l-.09-.05c-.05.36-.28.71-.19,1a.26.26,0,0,1-.35,0c0,.27.06.34-.24.62,0-.3-.17,0,0-.29-.21.27-.39.29-.27.73-.19-.21-.41.12-.38.3L2,43.52a1.75,1.75,0,0,1-.17.47l-.29-.2c-.61.56.25,1.4-.52,1.73.18.24.25-.32.48-.09-.13.29-.67.5-.7.6-.29.39.37.51.16.93a.39.39,0,0,1,.5.33c-.1.3-.56.3-.62.08s.05-.11.09-.1-.05-.25-.2-.15l.11.06c-.15.14-.22.58-.39.44.06.31.18.13.27,0a1.47,1.47,0,0,0-.2.68,4.13,4.13,0,0,1-.12.83c.08-.13.23-.26.22-.16-.25,1,.19.29.19.79-.23.44-.46.2-.35.68-.13.45-.38.41-.45.3a.47.47,0,0,1,0,.17s.16,0,.22,0A1.54,1.54,0,0,1,.61,51a2.21,2.21,0,0,0,.55.21l-.44.09a2.36,2.36,0,0,1,.62,0A2,2,0,0,1,1.29,51c.17,0,.34,0,.29.14.28-.15.07-.39.53-.6.19.12.7-.13.73.19-.75-.11.05.31-.68.36a1.15,1.15,0,0,1,.52,0s0,.06-.1.08c.41.14.56.06.58-.07s.12-.28.36-.27c-.06.18.11.34.18.3-.19,0-.09-.3.09-.43.31.14.34-.1.5-.09l-.19-.06c.07-.18.22-.16.43-.21,0,.14-.19.09-.11.15.24-.31.53.33.86.12.16.12,0,.34.15.42.37-.23.4.24.79,0-.11-.23-.13-.18.15-.41l-.64.17.41-.35c-.19,0-.41.15-.53.11.2-.19.18-.14.09-.33.26.36.53-.21.83,0v.59c.46.27.82-.29,1.42-.14l-.2-.11c.09-.23.37,0,.57-.12,0,.2.1.27.18.39,0-.14.44,0,.5-.38l.26.27c.48.11.56-.56,1-.49-.14.21.07.35-.24.5.15,0,.29,0,.29-.09.09.12.44-.27.58-.08.06-.09.09-.29.26-.28a.15.15,0,0,1,0,.1c0-.1.27-.13.12-.35.48.62,1.34,0,1.75.5a6.9,6.9,0,0,1,1.05-.14c0,.06,0,.1-.06.08.43.18.27-.57.75-.36.24.32-.26.17-.11.29.07.65.59-.09.91.3l-.08,0c.25.23.61-.24,1-.19a.16.16,0,0,0,0,.1,2.19,2.19,0,0,1,1.19-.53c-.12.26-.18.13-.1.39.17,0-.05-.41.3-.48.11.14.36.26.39.54H18c.17.36.43,0,.6,0l0,.16c.5-.05.51-.44,1-.41l0-.12c.3-.39.25.22.54-.07l.09.4a4.9,4.9,0,0,1,1-.45,2.86,2.86,0,0,1-.87.61c.2,0,.66,0,.76-.22-.08,0-.17.13-.25.07a1.09,1.09,0,0,1,.94-.45c-.08.77,1,.2,1.28.8.68-.28,1.35.13,2.15.08-.28-.59.23,0,.19-.62.18,0,.25,0,.27,0l.56.37c.13.18-.18.13-.16.27.4.05.17.26.43.42-.05-.22.15-.31.38-.23L26.55,51c.57-.32.49.52,1.06.2l-.18.19c.29-.11,1.08,0,1.37-.48.05.07.12.24,0,.28.7.08,1.56-.51,2.11-.21l-.06.15c.13,0,.23-.28.4-.13,0,.07-.06.15,0,.16s.35-.26.52-.17l-.14.17c.68.2,1.05-.41,1.62-.51,0,.44.53.59.8.66v.07a6.77,6.77,0,0,0,2.09-.53c.46.48,1.55.21,2.29.48-.12-.08,0-.34.15-.39s.48-.3.45.1H39c.12.39.48.29.76.3l0-.53c.72.78,1.9-.27,2.29.42.2-.13.65-.12.87-.25l.07.28a12.53,12.53,0,0,0,2.39,0,1.41,1.41,0,0,1,0,.2.5.5,0,0,0,.19,0s-.06-.17-.09-.25a6.1,6.1,0,0,0-.34-.54,2.88,2.88,0,0,1-.51-.87A3.39,3.39,0,0,0,45,50c0-.49,0-1,0-1.47a1.55,1.55,0,0,0-.33-1.1c.07,0,.19,0,.22.1,0-.29.08-1.19-.47-.95.36-.09-.12-.64-.36-.91l.28,0c-.41-.18-.49-.17-.71-.51,0-.1.19-.14.16,0,0-.34-.32-.15-.3-.55l.22.08c-.08-.31-.16-.25-.41-.35a.54.54,0,0,1,.09-.72c-.16,0-.42-.07-.42-.27a.2.2,0,0,1,.2,0c0-.56-.58-.61-.48-1,.08,0,.11-.09.12-.12a3,3,0,0,1,.25.68c.24-.1.15-.43.58-.32-.28-.19-.86-.44-.9-.79,0,0,0-.05.06-.08l0,0a.23.23,0,0,0-.13-.17.82.82,0,0,0-.05-.28c.17-.13-.06-.42-.15-.57-.24.15-.31-.07-.41.22,0,0,0,0,.11.11l.06,0h0c.06.1.13.23.2.37-.18-.06-.35-.12-.29-.36h-.52c.24-.38.2-.88.37-1.06-.38-.38-.74-1-1.35-1-.14-.08,0-.23.06-.32s.14.13.23.12c-.27-.17-.53-.68-.88-.51-.09-.39.4,0,0-.41h.13c-.16-1.19-1.73-.64-1.92-1.94,0,.08,0,.12,0,.18-.66-1.13-2.05-1.54-2.74-2.66-.22-.3-.39-.13-.66-.11l.1-.29-.5.09c-.57,0-.35-1.14-1.19-1l0,.22c-.18-.14-.7-.25-.56-.43,0,0-.17.15-.2,0l.07-.15H32c-.36-.29.34-.54-.26-.84-.25-.05-.82.13-.77.27a.31.31,0,0,1,.13.34h-.23c-.22.41-.54.78-.21,1.29l.44-.11v.25l-.28-.11c.07.27.24.14.4.07a.44.44,0,0,0,0,.29l.51-.26c0,.18-.3.26-.14.45.24-.11.05-.44.35-.43.05.27-.07.4.19.33a.23.23,0,0,1-.2.18c.22,0,.44.17.64,0,0,.31.56.23.31.6A.84.84,0,0,1,33.5,34c-.53.28.5.35.12.78.46-.29.75.28,1.22.29,0,0-.12.06-.13,0,.15.16.12.31.17.46.27-.3.59-.15.88-.21,0,.46-.41.24-.58.58.19-.25.55.06.66-.2,0,.31.06.2-.08.51.35-.35.2.06.53-.05.06.37-.25.38.08.5C36.38,36.91,36.06,36.83,36.06,36.83Zm5.19,5.69h0l-.08-.13Zm.28.6a1.3,1.3,0,0,0-.1-.27c.07-.06.18-.08.2,0S41.57,43,41.53,43.12ZM42.66,41c.09.09.05.15,0,.19L42.55,41h0Z"/><path class="cls-1" d="M42.24,41l0,0,0,.09h.09Z"/><path class="cls-1" d="M4.13,39.81h0Z"/><polygon class="cls-1" points="41.93 48.73 41.93 48.8 41.99 48.74 41.93 48.73"/><path class="cls-1" d="M7.16,37.39a.11.11,0,0,0,.08,0Z"/><path class="cls-1" d="M8.31,36.3l.23-.08A.67.67,0,0,0,8.31,36.3Z"/><path class="cls-1" d="M9.3,35.59a.54.54,0,0,0-.06-.11h0Z"/><path class="cls-1" d="M4.21,48.72h0C4.37,48.65,4.3,48.68,4.21,48.72Z"/><path class="cls-1" d="M2.15,46.88a.64.64,0,0,1,.09.21C2.28,47,2.3,46.92,2.15,46.88Z"/><polygon class="cls-1" points="10.83 48.42 10.83 48.42 10.87 48.42 10.83 48.42"/><path class="cls-1" d="M2.19,47.35a.24.24,0,0,0,.05-.26A.47.47,0,0,0,2.19,47.35Z"/><path class="cls-1" d="M13.74,32.85h0a.09.09,0,0,1,0-.05Z"/><path class="cls-1" d="M13.78,32.79l0,0S13.77,32.76,13.78,32.79Z"/><path class="cls-1" d="M13.92,32.62l-.1.12S13.92,32.7,13.92,32.62Z"/><path class="cls-1" d="M12.27,33.49l0,.1A.22.22,0,0,0,12.27,33.49Z"/><path class="cls-1" d="M11.87,33.77c.11,0,.36,0,.46-.11l0-.07C12.32,33.76,11.88,33.56,11.87,33.77Z"/><path class="cls-1" d="M9.43,33.9l.4-.19c-.12,0-.29-.1-.15-.24C9,33.53,9.92,33.6,9.43,33.9Z"/><path class="cls-1" d="M8.29,34.62c.15-.18-.11-.11-.14-.17C8.1,34.62,8.09,34.66,8.29,34.62Z"/><path class="cls-1" d="M2.51,42.37l-.22-.12C2.25,42.43,2.38,42.29,2.51,42.37Z"/><polygon class="cls-1" points="3.08 44.54 3.28 44.44 3.09 44.28 3.08 44.54"/><polygon class="cls-1" points="1.01 45.01 0.99 44.92 1 45.25 1.01 45.01"/><path class="cls-1" d="M12.66,50.9l-.05-.32C12.49,50.64,12.46,51,12.66,50.9Z"/><path class="cls-1" d="M19.52,50.62c.08.15.27.26.39.1C19.75,50.7,19.6,50.58,19.52,50.62Z"/><polygon class="cls-1" points="40.09 51.24 39.96 51.35 40.22 51.26 40.09 51.24"/><path class="cls-1" d="M34.56,14.17c.09,0,.29,0,.24-.1L34.47,14Z"/><path class="cls-1" d="M35.14,13.39a.81.81,0,0,0-.76-.15c.33.1.2.14.58.26,0,.12-.1.21-.22.19.09,0-.06.18.15.24.25-.16.25-.35,0-.54A.33.33,0,0,1,35.14,13.39Z"/><path class="cls-1" d="M30.1,3.35l0,.08S30.12,3.38,30.1,3.35Z"/><path class="cls-1" d="M23.3.75a.1.1,0,0,0,.09-.07C23.33.7,23.29.72,23.3.75Z"/><path class="cls-1" d="M22,.36h.08S22,.33,22,.36Z"/><path class="cls-1" d="M30.1,3.35,30,3.15C29.93,3.23,30,3.28,30.1,3.35Z"/><path class="cls-1" d="M34.17,12a.21.21,0,0,0,.1.08.41.41,0,0,1-.05-.09Z"/><path class="cls-1" d="M32.69,5.35l0,.05.14-.05Z"/><path class="cls-1" d="M34.19,7.39c0-.06-.27.07-.39.11a.27.27,0,0,1,.23,0Z"/><path class="cls-1" d="M35.18,11.23l0,.06Z"/><path class="cls-1" d="M31.46,4l.05-.09A.13.13,0,0,0,31.46,4Z"/><path class="cls-1" d="M33.64,16.64h0S33.64,16.62,33.64,16.64Z"/><polygon class="cls-1" points="35.3 14.17 35.31 14.21 35.47 14.22 35.3 14.17"/><path class="cls-1" d="M19.58.26h0S19.62.23,19.58.26Z"/><path class="cls-1" d="M8.74,17.13c.19-.29.42.31.6-.1C9.24,17.09,8.83,16.79,8.74,17.13Z"/><path class="cls-1" d="M34.2,11.91a.29.29,0,0,1,0-.09S34.18,11.89,34.2,11.91Z"/><path class="cls-1" d="M9.34,17h0l0,0Z"/><path class="cls-1" d="M14.51,2.58l.12.07A.25.25,0,0,0,14.51,2.58Z"/><path class="cls-1" d="M18.36,1.16h-.11A.2.2,0,0,0,18.36,1.16Z"/><path class="cls-1" d="M13.11,4.22s-.09,0-.12.09h0C13,4.27,13,4.23,13.11,4.22Z"/><path class="cls-1" d="M11.65,5.83h.07l0-.06Z"/><path class="cls-1" d="M31.28,21.69a1.06,1.06,0,0,1,.25.09C31.36,21.68,31.49,21.43,31.28,21.69Z"/><path class="cls-1" d="M34.32,12c-.07,0-.1,0-.12,0l0,.06Z"/><path class="cls-1" d="M14.57,5.89l-.24.17A1,1,0,0,0,14.57,5.89Z"/><path class="cls-1" d="M19.18,25.38h.08A.08.08,0,0,0,19.18,25.38Z"/><path class="cls-1" d="M13.78,6.72a.56.56,0,0,0-.26,0s0,0,0,.07Z"/><path class="cls-1" d="M31.54,21.79h0Z"/><path class="cls-1" d="M32.1,19.82c-.15.22.24.29.39.45-.09.35-.31,0-.53,0,0,.23.17.55.06.67-.06,0-.09,0-.13-.09.1.35-.38.54-.26,1l-.09,0a1.54,1.54,0,0,1,.41.29c-.08.1,0,.34-.2.22.06-.06,0-.13,0-.21l0,.18c-.34-.14,0-.22-.16-.39-.09.27-.09.7-.3.79-.28-.21.24-.44-.17-.44l.31-.15c-.56-.18.15-.11-.42-.33-.34.22-.16.46-.52.66.06.2.21.18.28.38-.21.65-.91-.33-.92.29.06.24.29.6-.1.61l-.15-.36c-.33.2.15.57-.34.61,0-.16.18-.29.1-.29-.38-.08,0,.29-.19.42l-.22-.26c-.33.25-.58.73-1,1,0-.1,0-.23-.14-.27a2,2,0,0,1-.81.41A6,6,0,0,1,26,25l-.1.35c-.05,0-.13-.1-.1-.17-.24-.05.05.18,0,.32s-.21-.12-.16-.23c-.29.34-.95.81-1.42.54l.07-.1c-.33-.07-.28.65-.62.43l.06-.06c-.71-.08-1.5.23-2-.27-.13.42-.66-.22-.77.34-.36-.35-.23-.43-.74-.71-.14,0-.28.32-.48.33l.07-.3-.32.25,0-.39-.18,0a.24.24,0,0,1,.07.25c-.31.08-.58-.38-.53-.54l-.68,0c.06-.11.18-.11.28-.16-.43.18.06-.32-.33-.16,0,.08-.09.16-.12.22a.81.81,0,0,0-.65-.42l.14-.17c-.4-.23-.9-.37-1.34-.64.1.17-.13.46-.29.41l.13-.3c-.2.11.07.18-.24.28-.15-.15.1-.38.25-.4l-.26-.05c.05-.09.12-.1.2-.19-.19.1-.12-.51-.45-.31l.05-.08c-.42-.3-.63-.4-1-.67-.2.2-.29.05-.54.12a3.44,3.44,0,0,0-.5-1c-.28-.12-.23.09-.44.1.19-.18-.06-.47.21-.42a6.62,6.62,0,0,0-.88-.81c-.06.11-.06.2-.15.21s0-.26.07-.31h0c-.71-.39-.05-1.66-.73-1.9l0,0-.45-.4c0-.25.24.07.32-.15-.62-.41-.18-.89-.59-1.27a.75.75,0,0,0,.17-.89c-.12-.32-.23-.67,0-.93l-.17,0c-.18-.12.09-.16.13-.25-.14,0-.16.14-.26.07-.28-1.09.31-2.24.72-3.21.14-.37-.83-.46-.3-.84l.29.23a2.27,2.27,0,0,1,.23-1.21,3,3,0,0,0,.41-1.17c0,.08.13.13.09.2.29,0,.33-.52.16-.63.09-.1.17.06.3.05s-.05-.53.21-.47c0,0,0,.08,0,.12,0-.15.33-.39,0-.47.29-.15.24-.54.53-.62-.13-.32.45-.28.17-.61.32.32.6-.15.61-.42,0,.14.22,0,.3.18.15-.14.24-.34.06-.49.62.13.36-.85,1-.44a3.37,3.37,0,0,1,.6-.78,4.46,4.46,0,0,1,.68-.63c.18.39-.55.36-.29.76.35-.46.51-.91,1.05-1.07.16,0,0,.22,0,.31.44-.4,1-.35,1.4-.74,0,0,0,.1-.07.15s.24,0,.18-.19l-.08.08c-.24-.25.21-.7.2-.86,0,.61.53,0,.44.81a.29.29,0,0,0,.06-.3c.11,0,.15.09.09.26.31-.2.16-.36.47-.42,0,.1,0,.15-.05.27.12-.22.26-.43.54-.39,0,.06,0,.13,0,.14.44-.11.75-.58,1.29-.43-.14.44.18.13.21.5l.27-.11-.11-.18c.24,0,.47-.24.68-.11l-.19.14.46,0L23.15,2c.26-.18,0-.47.33-.35-.07,0,.26,0,.36.26h0c.14-.1.28-.2.45-.08s-.1.4-.08.48c.17-.28.58,0,.8-.29a.47.47,0,0,0-.1.3L25.06,2a.24.24,0,0,1,.05.3c.32.13,0-.49.35-.19,0,0,0,.06-.1.08.37.2.82,0,1.13.3,0,.39-.33,0-.32.32.52.1,1.21-.05,1.65.28l-.07-.08c.3-.44.24.41.59.31-.08,0-.22.21-.17.17.26.26.68.25,1.24.42L29.28,4c.1.23.41.39.55.58.14-.07.23,0,.29-.18a.86.86,0,0,0,.67.8c.33.12.65.27.62.73-.05-.06-.21,0-.17,0l.45.31c.15-.18.06-.14.12-.34a.44.44,0,0,1,.43.11c-.29-.09-.28.23-.32.4,0-.06.13-.08.18-.13-.15.48.39-.26.41.23l-.11.06c.14.08.35.09.42.24-.18.21-.2-.05-.38.07.14.16.68.06.56.38-.11,0-.18-.15-.3-.18-.13.35-.07.33,0,.49v0l.06.39,0-.13c.73-.12.42.4,1,.52-.54-.12-.25.07-.53.18,0,.12-.06.29-.15.29.29,0-.06.34.37.4-.08,0,.07.17-.17.23.16.17.13-.11.25-.15.46.19-.09.89.51,1.2.3.35.63.34.9.71-.12.17-.38,0-.38,0a.54.54,0,0,0,.13.58c-.09,0-.15,0-.25.12s.37,0,.26.28a2.17,2.17,0,0,1-.41-.09c.12.17.32.33.44.52-.16.07-.27-.09-.39-.14.11.21.24.55.5.59l.09-.15c0,.08-.23.06-.28,0-.24-.17,0-.29.14-.31l.09.13c.54-.22-.18-.57-.19-.85l.43.05-.39-.24c.09-.08.32-.18.4,0,.16-.26-.19-.16,0-.39a.06.06,0,0,1,.08,0L35,11.05c.1,0,.28-.1.25,0,.14-.44-.45-.52-.19-.75l0,0c-.29-.47-.31,0-.78-.22l.62-.5-.3,0s0-.16.1-.19c-.27-.11-.12.08-.34,0,.18-.35-.39-.61,0-.86-.25,0-.05.3-.32.12.44-.3-.22-.26-.11-.58.27-.05.25.22.36-.11-.47.08-.12-.47-.32-.61-.32.17-.36-.31-.64-.54.13-.06-.21-.64-.31-1l.06,0c-.34.17-.46-.15-.69-.27a.42.42,0,0,1,.43-.12l-.15-.17a.41.41,0,0,1-.35-.06l.24-.14C32.39,5,32,5,31.82,4.55c-.19.17-.28.71-.69.57.09-.11.24-.3.36-.26,0,0-.17,0-.18-.09l.28-.06c-.06-.2-.2.08-.29,0,.13-.15,0-.18.14-.28s0,.14.13.12a.61.61,0,0,1-.11-.5c-.07.09-.18.2-.28.14s.08-.25,0-.45c-.14,0-.21-.18-.4,0-.07-.06,0-.18,0-.26-.21,0-.62-.42-.66-.06l0,0h0c-.56-.08-.8-.72-1.3-.89l.05-.08c-.32-.06-.64-.25-.92-.15a.28.28,0,0,1,0-.35c-.24,0-.3.05-.55-.22.28-.07,0-.17.27,0-.25-.18-.27-.36-.67-.22.19-.2-.11-.38-.28-.36l.15.25a1.16,1.16,0,0,1-.43-.16L26.6,1c-.53-.56-1.28.36-1.61-.38-.21.2.31.21.11.45-.27-.08-.5-.6-.59-.62-.39-.24-.44.42-.84.25a.42.42,0,0,1-.25.54c-.27-.06-.32-.52-.13-.6s.1,0,.1.07.22-.08.12-.22l-.05.12C23.32.45,22.92.44,23,.25c-.23.11-.1.19.06.26-.37-.18-.59,0-1-.14.06.07.12.2.06.21-.57-.12-.24.23-.61.3-.23-.17.05-.43-.33-.26-.24-.11-.08-.31,0-.41-.34.23-.68-.07-.9-.09L20.51,0a.66.66,0,0,1-.3.1l.14.22c-.11,0-.21,0-.22-.11-.09.17.15.38,0,.62-.16-.09-.41.19-.52-.1.47,0-.12-.31.27-.42a.39.39,0,0,1-.29,0s0-.07,0-.09c-.5-.17-.13.4-.57.5,0-.18-.19-.3-.26-.24.19,0,.17.26,0,.44-.32-.06-.28.18-.43.2l.18,0c0,.18-.15.19-.31.32-.06-.13.14-.15.05-.19-.11.37-.58-.13-.81.18-.18-.06-.13-.31-.28-.34-.25.33-.46-.07-.73.27.2.16.19.1.05.43L17,1.43l-.22.49c.17-.08.29-.31.41-.31-.1.24-.1.19,0,.33-.36-.22-.35.4-.7.31l-.26-.54c-.53-.05-.55.63-1.11.79h.21c.06.24-.28.21-.38.38-.1-.17-.23-.17-.37-.23.09.11-.35.24-.16.59l-.35-.06c-.44.2-.08.75-.43,1,0-.25-.29-.23-.17-.54-.11.1-.23.16-.14.26-.15,0-.12.47-.35.43,0,.1.14.26,0,.36A.21.21,0,0,1,13,4.61c.07.07-.08.27.17.32-.73-.09-.81.91-1.42.9a8.94,8.94,0,0,1-.47.88s-.08,0,0-.09c-.36.24.35.52-.05.78-.39,0,0-.29-.2-.23-.59-.28-.22.5-.69.59V7.68c-.3.11,0,.63-.23,1a.19.19,0,0,0-.09,0A2.42,2.42,0,0,1,10,9.81c-.21-.19-.07-.2-.34-.22,0,.17.4.1.36.42-.16.05-.36.23-.63.18,0-.1.06-.19.09-.29-.4,0-.12.38-.21.52l-.15-.06c-.07.48.31.58.16,1.06l.13,0c.32.34-.26.18,0,.5l-.4,0a6.58,6.58,0,0,1,.32,1c-.29-.2-.37-.6-.51-.87,0,.18-.06.63.12.74,0-.08-.11-.18,0-.24a1.11,1.11,0,0,1,.39.9c-.76-.1-.25.92-.8,1.2a1.76,1.76,0,0,1,.11,1,4.38,4.38,0,0,0,0,1.08c.55-.37,0,.22.65.06.06.16.08.22,0,.25l-.22.59c-.14.17-.18-.13-.31-.08.06.4-.21.23-.29.53.19-.11.33.05.31.29L9,18c.44.43-.35.61.14,1l-.24-.11c.2.24.36,1,.95,1.06,0,.07-.16.2-.26.11.22.68,1.16,1.08,1.18,1.68l-.15,0c.1.08.34,0,.31.24,0,0-.15.05-.12.1s.41.12.44.3h-.22c.24.66.94.56,1.38.87-.33.29-.09.79.06,1l-.05,0a4.32,4.32,0,0,0,1.9.89c.06.67,1.12,1,1.64,1.56-.07-.12.17-.3.3-.28s.54-.08.35.27l-.05,0c0,.41.3.48.56.57l.23-.47a1.13,1.13,0,0,0,1.08.62c.42,0,.8,0,.91.41.2-.08.4,0,.59-.15l-.06.28a3.34,3.34,0,0,0,1.28.21l-.14.2c.34,0,.49-.79.77-.8l.08.43c.55.05,1.16.35,1.7-.05,0,.06,0,.18-.1.21.26,0,1.08.15.9-.4.06.37.59,0,.85-.27v.28c.18-.41.16-.5.48-.69.08,0,.12.2,0,.16.3.07.14-.31.5-.25l-.07.2c.28-.05.24-.13.32-.38a.45.45,0,0,1,.65.1c0-.15.06-.4.24-.39a.19.19,0,0,1,0,.19c.53,0,.51-.58.93-.46,0,.08.08.11.12.12a2.85,2.85,0,0,1-.62.25c.1.24.41.14.32.58.17-.29.37-.86.7-.88l.07.06v0a.2.2,0,0,0,.15-.13.53.53,0,0,0,.26-.06c.14.17.37-.09.51-.16-.16-.24,0-.3-.25-.4,0,0,0,0-.09.11l0,0v0l-.32.21c0-.19.08-.35.31-.31,0-.19-.05-.39-.06-.49.38.23.85.19,1,.34.28-.42.86-.75.72-1.36,0-.14.21,0,.3,0s-.09.15-.08.23c.11-.28.56-.57.35-.88.36-.11.1.38.39,0l0,.13c.52-.14.61-.58.7-1s.13-.85.74-1a.24.24,0,0,1-.18,0c.93-.78.94-2.12,1.78-3,.21-.27,0-.38-.1-.62l.31,0-.25-.42c-.15-.5,1-.61.57-1.31l-.22,0c.08-.2,0-.68.21-.61,0,0-.2-.1-.08-.17l.16,0a3.71,3.71,0,0,0-.22-.55c.14-.39.62.12.68-.49,0-.24-.42-.65-.53-.56a.28.28,0,0,1-.27.22l-.07-.19c-.47,0-.94-.17-1.29.26l.27.31-.23.09v-.26c-.22.14,0,.24.09.35a.37.37,0,0,0-.26.11l.43.33c-.18,0-.34-.16-.47,0,.19.16.43-.09.53.16-.24.12-.4.05-.25.25a.23.23,0,0,1-.23-.12c.12.17,0,.41.23.53-.27.1,0,.52-.45.41a.75.75,0,0,1,.25.48c-.45-.38-.16.5-.69.27.42.32,0,.69.12,1.1,0,0-.09-.1,0-.12-.1.16-.26.16-.38.24.35.17.31.47.46.72-.45.05-.36-.32-.72-.41.29.12.12.49.39.54-.29.05-.17.08-.5,0,.42.25,0,.18.19.45-.34.1-.43-.17-.44.14C32.12,20.11,32.1,19.82,32.1,19.82ZM28,24.89h0l.12-.07Zm-.52.25a1.46,1.46,0,0,0,.23-.1c.06.08.09.18,0,.2S27.54,25.18,27.43,25.14Zm2.06,1.12c-.07.09-.12.06-.17,0a.79.79,0,0,0,.14-.13v0A.39.39,0,0,1,29.49,26.26Z"/><path class="cls-1" d="M29.46,25.85l0,0-.08,0v.1Z"/><path class="cls-1" d="M30.15,3.44h0s0,0,0,0S30.15,3.46,30.15,3.44Z"/><polygon class="cls-1" points="19.81 25.4 19.8 25.47 19.86 25.42 19.81 25.4"/><path class="cls-1" d="M31.92,6.42a.15.15,0,0,0,0,.08Z"/><path class="cls-1" d="M32.68,7.58V7.8A.71.71,0,0,0,32.68,7.58Z"/><path class="cls-1" d="M33.09,8.56l.12,0h0Z"/><path class="cls-1" d="M19,2.94l0,0C18.88,3,18.93,3,19,2.94Z"/><path class="cls-1" d="M23.84,1.86,23.66,2C23.75,2,23.82,2,23.84,1.86Z"/><polygon class="cls-1" points="14.6 5.88 14.6 5.87 14.57 5.89 14.6 5.88"/><path class="cls-1" d="M23.43,2a.22.22,0,0,0,.23,0A.26.26,0,0,0,23.43,2Z"/><path class="cls-1" d="M34.28,12.9v0h0Z"/><path class="cls-1" d="M34.32,13l0,.05S34.36,13,34.32,13Z"/><path class="cls-1" d="M34.44,13.11,34.36,13A.09.09,0,0,0,34.44,13.11Z"/><path class="cls-1" d="M34.18,11.51h0Z"/><path class="cls-1" d="M34.05,11.11c0,.11-.15.3-.06.42h.09C33.91,11.49,34.24,11.16,34.05,11.11Z"/><path class="cls-1" d="M34.65,9c0,.13,0,.27.06.4.08-.11.18-.25.27-.09C35.11,8.67,34.79,9.45,34.65,9Z"/><path class="cls-1" d="M34.26,7.79c.14.17.14-.08.2-.1C34.31,7.62,34.27,7.6,34.26,7.79Z"/><path class="cls-1" d="M27.9,1.88,28,1.66C27.85,1.62,28,1.75,27.9,1.88Z"/><path class="cls-1" d="M25.93,2.55l.09.19.14-.2Z"/><polygon class="cls-1" points="25.46 0.55 25.54 0.53 25.24 0.55 25.46 0.55"/><path class="cls-1" d="M11.69,5.36l.27.17C12,5.41,11.74,5.16,11.69,5.36Z"/><path class="cls-1" d="M9.16,11.33c-.18,0-.31.2-.17.34C9,11.53,9.18,11.41,9.16,11.33Z"/><polygon class="cls-1" points="17.54 27.35 17.38 27.41 17.65 27.41 17.54 27.35"/></g></g></svg>