<svg xmlns="http://www.w3.org/2000/svg" viewBox="0 0 31.25 43.93"><defs><style>.cls-1{fill:#79cbd6;}</style></defs><g id="Слой_2" data-name="Слой 2"><g id="Слой_1-2" data-name="Слой 1"><path class="cls-1" d="M20.1,1.17c0-.07,0-.21-.09-.18l-.07.25Z"/><path class="cls-1" d="M19.38.71a.56.56,0,0,0-.19.56c.13-.24.16-.14.29-.42a.14.14,0,0,1,.17.17c0-.07.17.05.23-.1a.3.3,0,0,0-.5-.05C19.34.82,19.38.76,19.38.71Z"/><path class="cls-1" d="M8.91.32,9,.35Z"/><path class="cls-1" d="M2.75,2.76a.08.08,0,0,0,0-.09S2.72,2.75,2.75,2.76Z"/><path class="cls-1" d="M1.78,3.53l.05,0S1.78,3.5,1.78,3.53Z"/><path class="cls-1" d="M8.91.32,8.74.24C8.73.33,8.83.3,8.91.32Z"/><path class="cls-1" d="M17.94,1.31A.16.16,0,0,0,18,1.24l-.08,0Z"/><path class="cls-1" d="M11.77.12h.06a1,1,0,0,0,0-.1Z"/><path class="cls-1" d="M14,.08c-.05,0-.07.2-.09.3A.23.23,0,0,1,14,.23,1,1,0,0,0,14,.08Z"/><path class="cls-1" d="M17.45.45l.06,0Z"/><path class="cls-1" d="M10.2.08a.15.15,0,0,0,0-.08A.24.24,0,0,0,10.2.08Z"/><path class="cls-1" d="M17.56,42v0S17.58,42,17.56,42Z"/><polygon class="cls-1" points="20.11 43.07 20.07 43.08 20.06 43.2 20.11 43.07"/><path class="cls-1" d="M.55,5.46h0C.55,5.39.54,5.42.55,5.46Z"/><path class="cls-1" d="M.34,24.35c.19-.21.24.34.45,0C.71,24.4.46,24.08.34,24.35Z"/><path class="cls-1" d="M17.88,1.28h-.09A.14.14,0,0,0,17.88,1.28Z"/><path class="cls-1" d="M.79,24.37h0l0,0Z"/><path class="cls-1" d="M.31,10.41a.19.19,0,0,0,.09-.05S.36,10.37.31,10.41Z"/><path class="cls-1" d="M.68,6.86l0,.08Z"/><path class="cls-1" d="M.61,12.22s0,.06,0,.12l0,0S.58,12.27.61,12.22Z"/><path class="cls-1" d="M.61,14.1l0,0V14Z"/><path class="cls-1" d="M11.85,42.12a.77.77,0,0,1,.08.19C11.9,42.16,12.18,42.11,11.85,42.12Z"/><path class="cls-1" d="M17.94,1.19q0,.08-.06.09H18A.19.19,0,0,0,17.94,1.19Z"/><path class="cls-1" d="M2.27,12.29l0,.3A1.32,1.32,0,0,0,2.27,12.29Z"/><path class="cls-1" d="M2.16,36.86l0,.06A.05.05,0,0,0,2.16,36.86Z"/><path class="cls-1" d="M2.27,13.48a.44.44,0,0,0-.14.17l.05,0Z"/><path class="cls-1" d="M11.93,42.32h0Z"/><path class="cls-1" d="M13.9,41.82c-.28,0-.13.27-.19.43-.34.07-.16-.21-.28-.35-.21.07-.37.33-.53.32,0,0,0-.06,0-.12-.22.22-.66,0-.92.29l0-.07a.88.88,0,0,1,0,.38c-.12,0-.23.17-.28,0,.08,0,.08-.07.12-.12l-.13.08c-.12-.26.18-.09.18-.29-.26.09-.57.3-.77.23,0-.26.47-.09.2-.31l.31.09c-.23-.4.19,0,0-.4-.4-.07-.45.13-.86.06-.09.14,0,.21-.06.35-.57.25-.45-.64-.88-.3-.11.17-.15.49-.45.32l.1-.29c-.39,0-.22.42-.63.22.07-.11.31-.09.25-.13-.27-.23-.2.17-.39.16l0-.26a6.68,6.68,0,0,1-1.23.15c0-.07.12-.14,0-.23A2.17,2.17,0,0,1,6,41.37l-.27.12s0-.12,0-.14c-.14-.15-.08.12-.2.16a.11.11,0,0,1,0-.21c-.38,0-1.08-.17-1.21-.6h.09c-.15-.25-.54.13-.61-.2h.07C3.51,40,2.9,39.57,3,39c-.35.09-.16-.59-.58-.43,0-.42.17-.36.13-.85,0-.13-.31-.11-.4-.26l.22-.06L2,37.23l.25-.18-.08-.13a.23.23,0,0,1-.15.15.49.49,0,0,1,.19-.62L2,35.91c.1,0,.13.1.2.17-.25-.29.23,0,0-.33-.05,0-.14,0-.18,0A1,1,0,0,0,2.12,35l.16,0c0-.48-.08-1-.07-1.53-.08.19-.36.15-.38,0l.24-.06c-.15-.1-.09.16-.27,0,0-.19.27-.13.35,0l-.08-.25c.07,0,.11,0,.2.06-.15-.1.25-.41,0-.56h.08c0-.53-.09-.77-.1-1.2-.21,0-.16-.18-.33-.31A3.84,3.84,0,0,0,2.11,30c-.1-.27-.18-.08-.3-.2.19,0,.17-.4.31-.2a4.7,4.7,0,0,0-.19-1.17c-.08.06-.12.14-.18.1a.19.19,0,0,1,.17-.23l0,0c-.29-.65.56-1.5.16-2l0,0-.21-.54c0-.25.15.15.27,0-.33-.58,0-.92-.17-1.4.56-.37,0-1.31.32-1.81l-.13,0c-.13-.13.07-.16.1-.25s-.12.14-.19.06A13.93,13.93,0,0,1,2.43,19c0-.41-.69-.23-.38-.75l.25.15c-.29-.83,0-1.69-.24-2.5.06.05.13.05.13.13.18-.17,0-.64-.14-.64,0-.12.14,0,.21-.11s-.23-.43,0-.52.06,0,.07.08,0-.52-.18-.41c.1-.3-.1-.58,0-.82-.23-.16.11-.52-.22-.58.34,0,.27-.53.11-.72.11.06.11-.17.25-.09,0-.22-.06-.42-.24-.38.41-.41-.33-.82.19-1A14,14,0,0,1,1.84,9c.34,0,0,.64.39.62-.14-.56-.43-.88-.35-1.43.05-.14.15.08.2.13-.13-.59,0-1-.07-1.45,0,0,.06.06.08.1s.08-.18-.07-.2l0,.09c-.24.11-.4-.43-.51-.48.39.24.23-.42.71,0a.22.22,0,0,0-.17-.16c.05-.08.11-.09.2,0,0-.32-.19-.27-.08-.54.07,0,.08.09.15.15a.51.51,0,0,1,0-.58s.1,0,.07.1c.16-.38,0-.83.36-1.16.2.3.17-.08.42.07L3.25,4H3.09c.14-.16.09-.46.3-.53l0,.19.24-.33-.23.09c0-.26-.28-.22,0-.39,0,.07.16-.17.36-.12h0c0-.14.06-.29.23-.34s.17.26.23.29c-.07-.27.37-.36.34-.65a.35.35,0,0,0,.11.21l0-.21c.12,0,.14,0,.19.12.29-.13-.27-.26.13-.31,0,0,0,0,0,.1.36-.13.58-.46.94-.51.2.22-.24.19,0,.36.4-.25.82-.68,1.31-.73H7c0-.41.39.1.59-.11,0,0,0,.23,0,.18A4.48,4.48,0,0,0,8.71,1l-.06.11a4.4,4.4,0,0,0,.75.09c.06-.1.19-.08.11-.23.68.58,1.3-.31,1.9.17-.07,0-.17.09-.12.09l.52-.09c0-.18-.07-.11-.18-.24A.42.42,0,0,1,12,.71c-.23.11,0,.27.1.37,0-.05,0-.11,0-.17.27.31,0-.34.41-.14l0,.09c.14,0,.26-.16.41-.14.06.2-.14.1-.15.26.2,0,.41-.38.59-.18-.09.06-.21.06-.3.11.2.24.23.18.38.22h0l.36.11-.09-.06c.26-.53.52-.1.87-.44-.34.32,0,.18-.08.41.09.06.23.14.19.2.16-.18.27.14.51-.12,0,.07.17,0,.14.19.21-.06,0-.13,0-.22.33-.25.78.3,1.26,0,.41-.14.48-.39.86-.51.13.11-.1.26-.1.26a.59.59,0,0,0,.56,0c0,.06,0,.12.06.2s.1-.27.31-.16a.84.84,0,0,1-.16.29c.19-.06.37-.2.56-.27.05.13-.11.2-.18.28.22-.06.56-.12.62-.32L18.9.86c.07,0,0,.17,0,.21S18.61,1,18.6.93l.14-.05c-.14-.43-.55.07-.82,0L18,.61l-.28.26c-.06-.08-.1-.25,0-.3-.19-.15-.17.11-.34-.06s0,0,0-.06l-.19.1c0-.07,0-.22.08-.18-.34-.18-.55.24-.68,0l0,0c-.48.11-.05.23-.41.5L16,.28l0,.23c-.05,0-.15,0-.13-.12-.18.16,0,.1-.07.25-.24-.21-.66.1-.71-.26-.09.17.23.13,0,.25C15,.24,14.76.7,14.54.52c.07-.2.27-.1.06-.28-.13.34-.43-.07-.61,0,0,.27-.4.12-.7.21,0-.09-.58-.15-.87-.25v0c-.06.28-.35.23-.57.28A.31.31,0,0,1,12,.12h-.2a.32.32,0,0,1-.25.17l.06-.21c-.27,0-.55.24-.89.11,0,.19.27.53-.09.66,0-.1,0-.28.07-.32s-.12.08-.18,0L10.7.39c-.16-.07-.08.15-.21.13S10.4.42,10.41.3s.11.06.16,0A.54.54,0,0,1,10.2.08c0,.08,0,.19-.1.21C9.83.3,10,.12,9.85,0c-.07.1-.24,0-.24.22-.08,0-.09-.11-.12-.17-.14.1-.65,0-.5.27H9C8.56.61,8,.26,7.57.44V.37c-.27.11-.62.15-.77.36A.2.2,0,0,1,6.58.55c-.2.1-.19.2-.53.18C6.22.54,6,.65,6.24.57,6,.6,5.84.51,5.63.8c0-.22-.29-.13-.4,0l.24,0A1.22,1.22,0,0,1,5.08,1L5,.74c-.7,0-.68,1-1.32.79,0,.23.34-.08.34.16-.24.13-.69,0-.75.08-.38.15,0,.49-.38.7a.27.27,0,0,1,.16.42c-.2.16-.5,0-.43-.19s.08-.06.1,0,.09-.2,0-.19l0,.09c-.16,0-.42.32-.47.16-.06.22.05.16.19.08-.32.19-.35.42-.64.67.08,0,.19,0,.16,0-.38.38,0,.29-.14.6-.22.11-.25-.23-.32.15-.18.15-.23-.07-.25-.19,0,.39-.41.52-.5.7v-.2a.62.62,0,0,1-.07.29l.21,0C.85,4.93.81,5,.75,5c.07.15.3,0,.38.29-.15.09,0,.41-.28.39C1,5.27.6,5.64.68,5.27a.48.48,0,0,1-.09.25s0,0,0-.06c-.32.36.2.27.08.69-.11-.09-.27,0-.25.12,0-.18.23,0,.3.14-.14.25,0,.31,0,.45L.75,6.7c.13.08.08.2.11.39C.75,7.1.8,6.92.75,7c.21.22-.27.45-.13.76-.1.13-.25,0-.31.12.17.31-.19.33,0,.65.18-.09.13-.11.31.12L.45,8.1l.26.34C.71,8.28.6,8.11.63,8c.14.16.1.15.25.07-.27.22.15.43,0,.68H.41c-.2.38.23.67.12,1.16L.6,9.75c.18.07,0,.3.1.46-.15,0-.2.08-.3.15.11,0,0,.36.29.4L.5,11c-.08.39.42.45.37.83-.16-.12-.27.06-.38-.2,0,.13,0,.24.07.25-.09.07.2.35.06.46.06.06.22.07.21.22a.15.15,0,0,1-.08,0c.08,0,.1.23.27.1-.47.39,0,1.09-.37,1.43a7,7,0,0,1,.11.86s-.07,0-.06-.05c-.13.35.43.21.27.61-.23.2-.12-.21-.22-.09-.48.06.07.48-.21.74l0-.06c-.17.2.18.49.15.82a.2.2,0,0,0-.08,0,1.9,1.9,0,0,1,.4,1c-.19-.09-.1-.14-.29-.08,0,.14.31,0,.36.24-.1.1-.19.3-.4.33v-.27c-.27.14,0,.35,0,.49l-.11,0c0,.41.33.42.31.86l.09-.05c.29.25-.17.21,0,.45l-.3.07a4.25,4.25,0,0,1,.35.84A2.33,2.33,0,0,1,.52,20c0,.16,0,.54.17.62,0-.06-.1-.14,0-.21A1,1,0,0,1,1,21.2C.4,21.14.83,22,.39,22.25.6,22.8.3,23.35.33,24c.45-.23,0,.19.47.15,0,.15,0,.21,0,.22l-.27.46c-.13.11-.1-.14-.2-.13,0,.33-.2.14-.32.36.16,0,.23.11.17.3l.21-.26c.25.46-.38.4-.14.86L.1,25.82c.08.23,0,.88.36,1.11-.05,0-.18.1-.21,0,0,.57.39,1.27.17,1.71l-.12,0c0,.11.21.18.1.32-.05,0-.11,0-.12,0s.2.29.13.43l-.12-.12c-.15.56.3.85.38,1.32-.33,0-.44.44-.49.66h0a5.93,5.93,0,0,0,.41,1.71c-.36.37-.15,1.26-.35,1.86.06-.09.25,0,.29.12s.23.39-.08.37v0c-.3.1-.22.39-.23.62l.4,0A1.17,1.17,0,0,0,.5,37c.11.39.27.7.07.95.14.12.18.32.34.43l-.2.06a2.8,2.8,0,0,0,.47,1.14l-.19,0c.13.3.73,0,.88.27l-.22.24c.28.44.43,1.06,1,1.24a.15.15,0,0,1-.19,0c.15.21.59.84.8.45-.19.23.41.37.71.42l-.15.14a1,1,0,0,1,.71,0c0,.06,0,.17-.09.08.17.22.27-.07.49.18l-.17.06c.23.14.25.06.45,0a.48.48,0,0,1,.4.44c.07-.09.26-.19.39-.09s-.07.1-.11.11c.38.29.7,0,.94.23a.19.19,0,0,0,0,.14,3.19,3.19,0,0,1-.59-.18c-.06.19.23.29-.08.49.28-.09.74-.29,1-.15l0,.07,0,0a.31.31,0,0,0,.19,0,.51.51,0,0,0,.22.09c0,.17.33.14.48.15,0-.22.19-.17,0-.35,0,0,0,0-.12,0l-.06,0v0l-.36,0c.13-.09.25-.16.4,0,.09-.13.18-.26.22-.33.16.3.55.48.6.66.4-.12,1-.08,1.21-.47.11,0,.13.11.17.17s-.14,0-.18.09c.23-.1.68,0,.74-.31.29.12-.16.25.24.21l-.06.08c.79.44,1.28-.71,2.15-.14-.06,0-.09,0-.1-.1,1,.26,2-.23,3,.17.28.08.31-.1.48-.23l.06.22.29-.26c.41-.19.71.56,1.24.19L18,43.34c.19,0,.59-.09.56.09,0,0,.06-.16.14-.08v.12l.46-.21c.36.09,0,.47.47.5.19,0,.55-.35.48-.43a.22.22,0,0,1-.21-.19l.18-.06c0-.35.17-.71-.27-.95l-.3.21-.1-.17h.26c-.15-.16-.24,0-.34.08a.34.34,0,0,0-.13-.19l-.3.34c0-.14.14-.27-.06-.35-.14.16.13.31-.1.41-.15-.16-.1-.29-.27-.15a.15.15,0,0,1,.08-.19c-.15.11-.4,0-.48.23-.15-.2-.51,0-.5-.28a.76.76,0,0,1-.41.27c.26-.39-.52,0-.45-.44-.19.35-.68.15-1,.35,0,0,.05-.08.08-.06-.18,0-.24-.14-.36-.21,0,.29-.32.36-.47.54-.23-.28.14-.34.06-.61,0,.23-.4.23-.32.43-.17-.17-.15-.08-.24-.33,0,.37-.16.07-.31.29-.25-.18-.06-.34-.34-.23C13.65,42,13.9,41.82,13.9,41.82Zm-6.54.5Zm-.5-.11.22.06c0,.07,0,.14-.09.12S6.92,42.28,6.86,42.21Zm.92,1.65c-.1,0-.13,0-.14-.07h.18v0A.23.23,0,0,1,7.78,43.86Z"/><path class="cls-1" d="M8,43.6H8s0,0,0-.05l0,.06Z"/><path class="cls-1" d="M9,.36H9l0,0S9,.36,9,.36Z"/><polygon class="cls-1" points="2.38 37.37 2.33 37.38 2.38 37.41 2.38 37.37"/><path class="cls-1" d="M12.07,1.08a.1.1,0,0,0,0,0Z"/><path class="cls-1" d="M13.4,1.13l.19.07A.76.76,0,0,0,13.4,1.13Z"/><path class="cls-1" d="M14.42,1.23a.29.29,0,0,0,0-.09h0Z"/><path class="cls-1" d="M2.09,7V7C2.12,7.09,2.11,7,2.09,7Z"/><path class="cls-1" d="M3.72,2.91a.85.85,0,0,1,0,.17C3.75,3,3.8,3,3.72,2.91Z"/><polygon class="cls-1" points="2.28 12.26 2.27 12.26 2.27 12.29 2.28 12.26"/><path class="cls-1" d="M3.53,3.23a.21.21,0,0,0,.15-.15A.43.43,0,0,0,3.53,3.23Z"/><path class="cls-1" d="M18.85,1.33h0s0,0,0,0Z"/><path class="cls-1" d="M18.91,1.3l.05,0S18.91,1.28,18.91,1.3Z"/><path class="cls-1" d="M19.08,1.22,19,1.28A.11.11,0,0,0,19.08,1.22Z"/><path class="cls-1" d="M17.5,1.23l0,.08A.15.15,0,0,0,17.5,1.23Z"/><path class="cls-1" d="M17.09,1.25c.1,0,.24.17.38.12V1.31C17.42,1.42,17.18,1.12,17.09,1.25Z"/><path class="cls-1" d="M15.37.31l.35.06c-.06-.08-.14-.19,0-.21C15.3-.08,15.82.34,15.37.31Z"/><path class="cls-1" d="M14.3.19c.19,0,0-.12,0-.17S14.16.12,14.3.19Z"/><path class="cls-1" d="M6.48.5l0-.19C6.3.37,6.47.38,6.48.5Z"/><polygon class="cls-1" points="5.46 1.95 5.63 2 5.61 1.82 5.46 1.95"/><polygon class="cls-1" points="4.01 1.21 4.05 1.14 3.87 1.35 4.01 1.21"/><path class="cls-1" d="M.42,13.76l.24,0C.62,13.62.35,13.6.42,13.76Z"/><path class="cls-1" d="M.67,19.36c-.12.06-.2.22-.08.31C.6,19.55.7,19.42.67,19.36Z"/><polygon class="cls-1" points="0.29 36.18 0.21 36.06 0.29 36.3 0.29 36.18"/><path class="cls-1" d="M30.23,22.27c0-.07,0-.21,0-.18v.25Z"/><path class="cls-1" d="M30,21.82a1.57,1.57,0,0,0,0,.56,3.71,3.71,0,0,0,.06-.43s.05.08.05.17c0-.06.05.05.05-.1s-.08-.2-.12,0A.45.45,0,0,1,30,21.82Z"/><path class="cls-1" d="M27.35,21.52l0,0S27.36,21.52,27.35,21.52Z"/><path class="cls-1" d="M25.7,21.43s0,0,0-.05A0,0,0,0,0,25.7,21.43Z"/><path class="cls-1" d="M25.41,21.17h0S25.41,21.15,25.41,21.17Z"/><path class="cls-1" d="M27.35,21.52l0-.08C27.31,21.52,27.33,21.5,27.35,21.52Z"/><path class="cls-1" d="M29.69,22.43a.25.25,0,0,1,0-.07s0,0,0,0Z"/><path class="cls-1" d="M28.07,21.29h0v-.1Z"/><path class="cls-1" d="M28.63,21.24a2,2,0,0,0,0,.29.3.3,0,0,1,0-.14Z"/><path class="cls-1" d="M29.53,21.58v0Z"/><path class="cls-1" d="M27.67,21.26v0Z"/><path class="cls-1" d="M11.93,22.87v0A.1.1,0,0,0,11.93,22.87Z"/><polygon class="cls-1" points="11.44 21.72 11.45 21.71 11.49 21.6 11.44 21.72"/><path class="cls-1" d="M24.89,20.91h0S24.89,20.89,24.89,20.91Z"/><path class="cls-1" d="M20.16,21.16c.06.19-.08.25,0,.45C20.15,21.53,20.23,21.28,20.16,21.16Z"/><path class="cls-1" d="M29.67,22.4h0S29.66,22.41,29.67,22.4Z"/><polygon class="cls-1" points="20.16 21.61 20.16 21.62 20.17 21.64 20.16 21.61"/><path class="cls-1" d="M23.7,21.07l0,.09A.64.64,0,0,1,23.7,21.07Z"/><path class="cls-1" d="M24.59,21.34l0,0S24.59,21.34,24.59,21.34Z"/><path class="cls-1" d="M23.25,21.37s0,0,0,0v0S23.23,21.34,23.25,21.37Z"/><path class="cls-1" d="M22.77,21.39v0h0Z"/><path class="cls-1" d="M13.47,22.88a1.23,1.23,0,0,1,0-.19C13.45,22.84,13.38,22.89,13.47,22.88Z"/><path class="cls-1" d="M29.68,22.31c0,.05,0,.08,0,.09h0S29.68,22.33,29.68,22.31Z"/><path class="cls-1" d="M23.27,23l-.08,0A.11.11,0,0,0,23.27,23Z"/><path class="cls-1" d="M16.94,22.92v0S16.94,22.94,16.94,22.92Z"/><path class="cls-1" d="M23,23a.62.62,0,0,0,0-.14V23Z"/><path class="cls-1" d="M13.45,22.69Z"/><path class="cls-1" d="M12.91,23.16c.07,0,.05-.27.08-.43s0,.21,0,.35c.06-.07.12-.32.16-.31a.49.49,0,0,1,0,.12c.07-.21.18,0,.26-.27v.07c0-.14,0-.28,0-.38s.07-.17.07,0c0,0,0,.06,0,.12l0-.08c0,.26,0,.09-.06.28.08-.08.16-.29.21-.21,0,.25-.12.08-.06.31l-.08-.11c0,.41,0,0,0,.41.1.08.13-.13.23-.05,0-.14,0-.21,0-.35s.09.65.21.31c0-.17.06-.49.13-.32l0,.29c.1,0,.07-.41.17-.22s-.09.1-.07.13c.06.23.05-.16.1-.16v.26c.11,0,.23-.22.35-.27a.49.49,0,0,0,0,.24c.15-.13.32,0,.46.19l.06-.22s0,.1,0,.14,0-.13,0-.22,0,.13,0,.19c.11-.18.29-.4.39-.16l0,.06c.08.09.1-.45.17-.24v0c.18.1.37-.1.51.23,0-.32.17.14.19-.3.1.22.07.3.21.45s.06-.28.1-.32V23l.07-.25,0,.28.05-.06a.3.3,0,0,1,0-.17c.07-.1.17.16.17.28l.16-.2a.43.43,0,0,1,0,.19c.09-.24,0,.24.1,0a1.2,1.2,0,0,1,0-.19c0,.14.14.14.2.08v.16c.12,0,.25-.07.39-.07a.55.55,0,0,1,0-.38l0,.25c0-.16,0-.1,0-.28.05,0,0,.28,0,.36l.07-.09a2.06,2.06,0,0,1,0,.21c0-.16.11.24.15,0v.07c.14,0,.2-.08.31-.1,0-.21,0-.16.07-.33.08.06.18.23.27.21s0-.18.05-.3c0,.19.11.17.06.31.11,0,.15,0,.29-.2a.58.58,0,0,1,0-.18s.06.08.05.17v0c.16-.28.39.56.52.16v0l.13-.21c.07,0,0,.14,0,.26.14-.32.23.05.35-.17.1.57.34,0,.47.31V23c0-.13,0,.08.06.11s0-.12,0-.19c.27-.17.58.18.87.3.1,0,0-.69.18-.38l0,.25c.2-.3.43,0,.63-.26,0,.06,0,.14,0,.14.05.18.16,0,.16-.15,0,0,0,.14,0,.21s.11-.23.13-.05a.07.07,0,0,1,0,.07c0-.09.14,0,.11-.19.08.1.14-.09.21,0,0-.23.13.11.14-.22,0,.34.14.27.19.11,0,.1,0,.11,0,.25s.1-.07.09-.25c.11.41.2-.33.27.19a1.8,1.8,0,0,1,.46-.4c0,.34-.17,0-.15.4.14-.15.21-.44.35-.36s0,.15,0,.2c.13-.14.27,0,.39-.16a.24.24,0,0,1,0,.09s.06.05.05-.1l0,0c-.05-.22.08-.47.08-.59,0,.45.13.11.08.67a.45.45,0,0,0,0-.21.31.31,0,0,1,0,.21c.09-.08.05-.25.13-.25a1.5,1.5,0,0,1,0,.2c0-.15.08-.3.15-.24s0,.11,0,.11.19-.4.32-.26c0,.33,0,.11.06.39l.07-.09,0-.13c.06,0,.11-.21.16-.12l0,.12.11-.06-.06-.1c.05-.15,0-.35.06-.28s.06,0,.1.17h0c0-.09.05-.19.1-.12s0,.31,0,.37c0-.23.14-.07.17-.32a1,1,0,0,0,0,.24l0-.19a.36.36,0,0,1,0,.2c.08,0,0-.35.07-.2s0,0,0,.07.19-.12.28,0c0,.28-.08.07,0,.3.13-.05.27-.34.4-.28l0,0c0-.4.11.19.16,0a1.74,1.74,0,0,0,0,.18c.09.06.18-.1.31-.23v.1c.05.09.14.05.19.1,0-.11.05-.09,0-.24.2.58.32-.32.49.16,0,0,0,.09,0,.09l.12-.1a.78.78,0,0,0-.05-.24c0-.1.05-.18.08-.18a.59.59,0,0,0,0,.37v-.17c.08.31,0-.34.1-.14V22c0-.05.06-.17.1-.14,0,.2,0,.09,0,.26.06,0,.1-.39.15-.19s0,.06-.07.12c.06.23.06.17.1.21h0l.09.11,0-.07c.05-.52.14-.1.21-.44-.07.32,0,.18,0,.41a.46.46,0,0,1,.05.2c0-.19.08.14.13-.13,0,.07,0,0,0,.19,0-.06,0-.13,0-.22.08-.25.21.3.32,0,.1-.14.11-.39.2-.52a.5.5,0,0,1,0,.27c.05.1.09.08.14,0a.49.49,0,0,0,0,.2s0-.27.08-.16,0,.21,0,.29a2.24,2.24,0,0,1,.13-.27.55.55,0,0,1,0,.27A.4.4,0,0,0,30,22l0-.07s0,.17,0,.21-.07-.07-.08-.14l0-.05c-.05-.43-.13.08-.2.05v-.31l-.06.26a.61.61,0,0,1,0-.3c-.06-.15,0,.11-.09-.06,0,0,0,0,0-.05l-.05.09c0-.06,0-.22,0-.17-.09-.18-.13.24-.18,0v0c-.12.11,0,.23-.08.5l-.09-.56v.23s0,0,0-.12c0,.16,0,.1,0,.25-.07-.21-.16.1-.19-.26,0,.18.07.13,0,.26,0-.4-.08.07-.14-.11s.07-.1,0-.28c0,.34-.11-.07-.16,0,0,.27-.1.11-.17.21,0-.09-.15-.15-.23-.24v-.05c0,.28-.08.23-.13.29a.65.65,0,0,1,0-.31h-.05a.27.27,0,0,1-.06.17v-.2c-.07,0-.13.24-.23.11,0,.19.09.53,0,.66a1.54,1.54,0,0,1,0-.32s0,.08,0,0l0-.18c0-.07,0,.15,0,.14s0-.11,0-.23,0,.06,0,0a.5.5,0,0,1-.1-.23c0,.09,0,.2,0,.22s0-.18-.07-.25c0,.1-.06,0,0,.22,0,0,0-.1,0-.16,0,.09-.16,0-.12.26v0h0c-.11.22-.25-.12-.36,0v-.08c-.07.09-.15.06-.2.22,0,0-.05-.13,0-.22s-.06.14-.14,0,0-.12.05-.1-.08-.18-.15,0c0-.19-.06-.24-.09-.18l.05.13s-.07,0-.1,0v-.25c-.15-.3-.24.52-.36,0,0,.17.08.12.05.32-.06,0-.14-.39-.16-.39s-.07.37-.16.28c0,.09,0,.33,0,.41s-.09-.37,0-.44,0,0,0,.05a.17.17,0,0,0,0-.17v.09c0-.09-.13-.08-.11-.23a.16.16,0,0,0,0,.2c-.09-.13-.13,0-.22-.09a.31.31,0,0,1,0,.15c-.13-.1-.05.17-.13.22,0-.14,0-.33-.08-.21a.47.47,0,0,1,0-.31c-.08.17-.15-.11-.2-.14l0-.07s0,0-.06,0l0,.18a.11.11,0,0,1-.05-.11,2.5,2.5,0,0,1,0,.46c0-.09-.09.1-.11-.14.1.08,0-.23.07-.27s0,0-.06,0a.06.06,0,0,1,0-.06c-.11-.21,0,.27-.14.27s0-.26-.05-.23,0,.22,0,.33c-.06-.11-.06.08-.1.06l0,.05c0,.14,0,.12-.08.16s0-.07,0-.12c0,.24-.12-.24-.18-.08,0-.09,0-.25,0-.31-.08.18-.09-.18-.17,0a.42.42,0,0,1,0,.31l.13-.13-.08.26s.08-.11.11-.08a.31.31,0,0,0,0,.25c-.06-.27-.11.16-.18,0v-.45c-.1-.19-.16.23-.29.13l.05.07c0,.18-.08,0-.12.1a1.55,1.55,0,0,0,0-.29c0,.11-.1,0-.1.29l-.06-.2c-.1-.07-.1.43-.2.38s0-.27,0-.38-.06,0-.06.07c0-.09-.09.2-.12.06,0,.07,0,.22,0,.21v-.07c0,.07-.05.1,0,.26-.11-.46-.28,0-.37-.35a.57.57,0,0,1-.22.11s0-.07,0-.06,0,.43-.14.28.05-.13,0-.22c0-.49-.12.07-.19-.22l0,0c-.06-.16-.13.19-.21.16v-.08a.64.64,0,0,1-.24.41.75.75,0,0,0,0-.3s0,.31,0,.37a1.25,1.25,0,0,1-.09-.4h.07c0-.27-.09,0-.13,0v-.11c-.1,0-.1.33-.21.31l0,.09c-.06.29-.06-.16-.12,0l0-.29a1.48,1.48,0,0,1-.21.34,2,2,0,0,1,.17-.46s-.13,0-.15.17c0,0,0-.1.05-.06-.05.24-.11.35-.19.35,0-.58-.21-.14-.28-.59-.13.22-.28-.09-.44-.05.06.45-.05,0,0,.47q-.06,0-.06,0L20,21.34c0-.13,0-.1,0-.2s0-.19-.1-.32c0,.17,0,.24-.07.18l.07.21c-.12.24-.11-.38-.22-.14l0-.15c-.06.09-.22,0-.28.37a.49.49,0,0,1,0-.21c-.14,0-.32.4-.43.17v-.11s0,.21-.08.1,0-.12,0-.12-.07.19-.11.13l0-.13c-.14-.14-.22.31-.33.39a.63.63,0,0,0-.17-.49V21c-.17,0-.28.28-.43.41-.1-.36-.32-.15-.48-.35a.46.46,0,0,1,0,.29c0-.07-.1.23-.09-.07h0c0-.29-.1-.22-.15-.22v.39c-.15-.57-.4.21-.48-.3,0,.1-.08.1-.12.2V21.1a.28.28,0,0,0-.28,0l0-.15c-.07,0-.09.61-.16.62v-.31c-.12,0-.25-.28-.37,0,0,0,0-.14,0-.15s-.22-.22-.2.21c0-.28-.13,0-.2.1l0-.21c-.06.27-.07.34-.14.41s0-.16,0-.11c-.06-.11-.06.2-.13.08l0-.13c-.06,0-.06.06-.09.21s-.12,0-.13-.24c0,.11-.05.27-.08.21a.24.24,0,0,1,0-.14c-.11-.14-.17.24-.23,0s0-.1,0-.12.15,0,.14,0a1.39,1.39,0,0,1,0-.5c-.06.15-.16.46-.22.37v-.09s0,0,0,0,0-.06-.06-.06c0-.16-.07-.09-.1-.1,0,.21-.05.18,0,.35t0,0s0,0,0,0v0h.08c0,.1-.06.19-.09.07,0,.14-.05.28-.06.34,0-.29-.12-.45-.13-.64-.1.12-.24.08-.32.47,0,.05,0-.11,0-.18s0,0,.05-.09c-.06.11-.17,0-.2.31-.06-.12.06-.25-.05-.21l0-.08c-.17-.45-.35.69-.54.11a.25.25,0,0,1,0,.1c-.24-.26-.54.21-.74-.22-.06-.08-.09.09-.14.22v-.22l-.1.25c-.13.18-.11-.57-.28-.22v.15s-.15.06-.11-.11c0,0,0,.15,0,.07l0-.11-.14.17c-.06-.09.12-.45,0-.49a1.26,1.26,0,0,0-.23.39s0,.07,0,.19l-.06.05a1.77,1.77,0,0,0-.21.92l.15-.18v.17h-.09c0,.16.07,0,.13-.05a.39.39,0,0,0,0,.19l.17-.31c0,.14-.1.26-.05.35.07-.15,0-.31.11-.4,0,.17,0,.29,0,.17a.28.28,0,0,1,0,.18c.06-.1.13,0,.19-.2,0,.2.14,0,.1.29,0-.08.1-.25.14-.26-.12.39.14,0,.07.46.09-.35.2-.14.31-.33,0,0,0,.08,0,.07s.06.14.09.21a1.65,1.65,0,0,1,.17-.53c0,.29-.07.34-.07.61,0-.23.13-.22.12-.42a1.22,1.22,0,0,1,0,.33c0-.37.05-.06.1-.29,0,.19,0,.35.08.24A.44.44,0,0,1,12.91,23.16Zm1.75-.57h0Zm.15,0h-.06a.23.23,0,0,1,0-.14A.53.53,0,0,0,14.81,22.59Zm-.27-1.46s0,0,0,.05l0,0v-.08Z"/><path class="cls-1" d="M14.5,21.4v0Z"/><path class="cls-1" d="M27.37,21.55h0v0Z"/><polygon class="cls-1" points="16.78 23.02 16.78 22.97 16.77 23.01 16.78 23.02"/><path class="cls-1" d="M28.18,22.25a.43.43,0,0,0,0,.05A.11.11,0,0,0,28.18,22.25Z"/><path class="cls-1" d="M28.52,22.29l.05.07A.25.25,0,0,0,28.52,22.29Z"/><path class="cls-1" d="M28.79,22.38v-.09h0Z"/><path class="cls-1" d="M24.65,22.75h0S24.63,22.79,24.65,22.75Z"/><path class="cls-1" d="M25.87,22.23a1,1,0,0,1,0,.1S25.87,22.35,25.87,22.23Z"/><polygon class="cls-1" points="23.27 23.04 23.27 23.04 23.27 23.04 23.27 23.04"/><path class="cls-1" d="M25.77,22.33s0,0,.06,0S25.79,22.29,25.77,22.33Z"/><path class="cls-1" d="M29.92,22.44h0v0Z"/><path class="cls-1" d="M29.93,22.41v0S29.93,22.39,29.93,22.41Z"/><path class="cls-1" d="M30,22.33l0,.06S30,22.39,30,22.33Z"/><path class="cls-1" d="M29.57,22.35v0Z"/><path class="cls-1" d="M29.47,22.38s.06.16.1.11v-.06C29.56,22.54,29.48,22.25,29.47,22.38Z"/><path class="cls-1" d="M29,21.45l.08.06c0-.08,0-.19,0-.21C29,21.06,29.11,21.48,29,21.45Z"/><path class="cls-1" d="M28.72,21.34c.05,0,0-.12,0-.16S28.68,21.27,28.72,21.34Z"/><path class="cls-1" d="M26.75,21.4v-.19S26.76,21.29,26.75,21.4Z"/><polygon class="cls-1" points="26.41 22.41 26.45 22.52 26.46 22.35 26.41 22.41"/><polygon class="cls-1" points="26.15 21.05 26.16 21.02 26.1 21.09 26.15 21.05"/><path class="cls-1" d="M22.85,21.2l0,.23S22.89,21.13,22.85,21.2Z"/><path class="cls-1" d="M21.43,21.47c0-.12-.06-.2-.08-.08S21.42,21.5,21.43,21.47Z"/><polygon class="cls-1" points="17.16 21.12 17.19 21.05 17.14 21.11 17.16 21.12"/><path class="cls-1" d="M26.06,24.79c0,.06.13.16.13.13L26,24.73Z"/><path class="cls-1" d="M26.44,25.08a3.12,3.12,0,0,0-.35-.45l.25.35s-.08,0-.13-.11-.06,0,0,.09.16.13.08,0Z"/><path class="cls-1" d="M27.8,24.41h0Z"/><path class="cls-1" d="M28.57,23.92a.09.09,0,0,0,0,0A.13.13,0,0,0,28.57,23.92Z"/><path class="cls-1" d="M28.87,24h0S28.88,24.05,28.87,24Z"/><path class="cls-1" d="M27.8,24.41l.07.05C27.81,24.39,27.82,24.42,27.8,24.41Z"/><path class="cls-1" d="M26.2,24.49a.15.15,0,0,0,0,.06v0Z"/><path class="cls-1" d="M27.63,24.83h0l.06.08Z"/><path class="cls-1" d="M27.42,25.06s-.13-.16-.18-.23l.08.11Z"/><path class="cls-1" d="M26.81,25.09v0Z"/><path class="cls-1" d="M27.82,24.72l.05.05Z"/><path class="cls-1" d="M26,19.22l0,0Z"/><polygon class="cls-1" points="26.42 18.22 26.43 18.21 26.52 18.13 26.42 18.22"/><path class="cls-1" d="M29.26,24.05h0S29.27,24.06,29.26,24.05Z"/><path class="cls-1" d="M31,21.36c-.2.08-.35,0-.56.1A2.28,2.28,0,0,0,31,21.36Z"/><path class="cls-1" d="M26.22,24.51h0S26.22,24.5,26.22,24.51Z"/><polygon class="cls-1" points="30.39 21.46 30.39 21.46 30.37 21.47 30.39 21.46"/><path class="cls-1" d="M29.67,23.53l-.07-.07Z"/><path class="cls-1" d="M29.11,23.62h0Z"/><path class="cls-1" d="M29.71,23.1s0,0,0,0l0,0S29.74,23.12,29.71,23.1Z"/><path class="cls-1" d="M30,22.85l0,0h0Z"/><path class="cls-1" d="M26.62,19.7l.12-.15C26.64,19.66,26.57,19.67,26.62,19.7Z"/><path class="cls-1" d="M26.27,24.58l-.05-.07h0Z"/><path class="cls-1" d="M28.51,21.94h0Z"/><path class="cls-1" d="M28,21h0Z"/><path class="cls-1" d="M28.53,21.92l.12.09,0,0Z"/><path class="cls-1" d="M26.74,19.55Z"/><path class="cls-1" d="M26.19,19.72s.2-.18.32-.29-.12.16-.21.28c.07,0,.26-.2.27-.18l-.08.09c.17-.14.08.05.29-.12l0,.05.25-.28s.15-.11,0,0c0,0-.06,0-.1.08l.07-.05c-.17.21-.08.05-.21.19.08,0,.26-.16.23-.09s-.11,0-.23.21l0-.1c-.25.31,0,0-.27.29,0,.1.13,0,.12.05l.25-.25c.23-.13-.39.51-.12.3s.36-.34.27-.19l-.21.2c0,.06.31-.28.22-.1s-.1,0-.12.07c-.13.19.13-.1.16-.08l-.17.19c.07,0,.24-.08.32-.07a.65.65,0,0,0-.16.17c.14,0,.1.14.06.31l.17-.14a.62.62,0,0,1-.09.11c0,.08.09-.1.16-.16s-.07.11-.12.15c.17-.1.39-.19.27,0l-.05,0c0,.09.34-.3.23-.12l0,0c0,.14.22.06.05.36.22-.22,0,.17.28-.15-.11.2-.18.24-.22.4s.21-.18.26-.19l-.16.17.19-.16-.17.22L28,21a.79.79,0,0,1,.11-.14c.1-.05-.05.18-.13.27l.2-.08a.44.44,0,0,1-.15.11c.2-.14-.16.19,0,.06a1.59,1.59,0,0,1,.13-.13c-.08.11,0,.15,0,.13l-.11.11c0,.08.15,0,.21.1a.89.89,0,0,1,.26-.28l-.17.19c.12-.1.05-.09.2-.2s-.18.21-.24.26l.08,0-.15.14c.12-.1-.12.22.07,0l0,.06c.06.05.14,0,.19.05a1.52,1.52,0,0,1,.26-.22c0,.09-.12.21-.09.21l.23-.2a1.9,1.9,0,0,1-.23.21s0,0,.2-.07l.15-.11s-.06.06-.14.11h0c.31-.1-.49.3-.08.13h0l.25-.06s-.17.05-.29.09c.38-.08,0,0,.23,0-.69.13.09,0-.38.09h.31c.1,0,.09,0,0,0a3.52,3.52,0,0,1-.47,0s.89.15.47.09l-.31-.06c.35.09,0,0,.22.12l-.13-.05c-.19-.08,0,0,.13.07a1.44,1.44,0,0,1-.21-.09c-.11-.05.21.12,0,0l-.07,0a.58.58,0,0,0,.16.1c-.09,0,.07.07-.05,0,.19.14-.1-.06.16.15-.27-.22-.22-.17-.11-.05l-.19-.17.16.18c-.26-.31.16.3-.2-.08a1.4,1.4,0,0,1,.05.46c-.22-.26.05-.08-.18-.35,0,.15.18.4.07.39s-.09-.12-.12-.16c0,.15-.13.07-.06.26l-.05-.08s-.06,0,0,.09v0a3.22,3.22,0,0,1,.33.48c-.27-.35-.12,0-.46-.48l.12.17a.48.48,0,0,1-.13-.16c0,.1.13.21.1.24l-.12-.16c.08.13.16.25.09.23s-.07-.08-.06-.09.17.37,0,.31c-.19-.26-.08-.07-.27-.28l0,.09.1.09s.08.2,0,.15l-.06-.11v.08l.1.06c.06.13.23.27.15.24s0,0-.15-.1h0c0,.08.09.16,0,.12l-.24-.28c.14.19,0,.1.13.31,0-.05-.13-.16-.15-.19l.11.16a.7.7,0,0,1-.14-.15c-.06,0,.24.26.1.18l0-.06c-.1,0,0,.16-.1.12-.2-.2,0-.08-.18-.25,0,.09.1.35,0,.35l0,0c.25.3-.17-.12-.08.05a1.07,1.07,0,0,0-.1-.14c-.08,0,0,.13,0,.28l-.06-.09c-.08-.05-.09,0-.14,0a.81.81,0,0,0,.14.19c-.45-.38.06.35-.32,0,0,0,0-.09,0-.08v.12a1.15,1.15,0,0,0,.18.16c.06.09.1.16.08.17a.93.93,0,0,0-.25-.27l.1.12c-.23-.21.23.27.05.15l-.05-.07c0,.05.08.15,0,.14s0-.08-.15-.21c0,0,.21.33.06.19a.49.49,0,0,1,0-.11c-.18-.16-.14-.11-.18-.13h0l-.11,0,.06,0c.31.42,0,.12.19.41-.18-.28-.12-.15-.26-.32a.5.5,0,0,1-.15-.14c.1.16-.13-.08,0,.14,0-.05,0,0-.14-.13,0,.07.09.09.15.17s-.28-.16-.11.14c.05.14.21.34.25.47a1,1,0,0,1-.17-.22c-.09-.06-.09,0-.06.05a.92.92,0,0,0-.14-.14s.17.21.08.15l-.18-.24a1.92,1.92,0,0,0,.12.25.85.85,0,0,1-.16-.22.51.51,0,0,0,.14.3l.06,0-.14-.16c-.08-.14.08,0,.13.08v.05c.3.31,0-.1.06-.11l.19.25-.14-.23a1.33,1.33,0,0,1,.2.24c.12.09-.06-.1.07,0l0,0,0-.09c0,.06.14.17.1.15.16.1-.09-.23.08-.07v0c0-.12-.15-.18-.29-.41l.4.4-.15-.17s0,0,.09.07c-.08-.13-.06-.07-.15-.19.16.13,0-.14.25.14-.11-.14-.11-.09-.16-.2.26.29,0-.08.12,0s0,.1.18.21c-.21-.27.09,0,.07,0-.18-.2,0-.12-.06-.21.06.07.16.06.25.1l0,0c-.17-.21-.11-.2-.12-.26a1.11,1.11,0,0,1,.18.24l0,0c-.05-.07-.08-.11-.08-.15l.13.16s-.11-.23,0-.16a2.63,2.63,0,0,1-.42-.51,1.66,1.66,0,0,1,.2.26s0-.08,0-.05l.1.14c.07.05-.08-.12-.06-.11a1.93,1.93,0,0,1,.15.16s0,0,0,0a.54.54,0,0,1,.19.14.51.51,0,0,1-.13-.18s.13.13.19.17,0,0-.11-.18.07.07.12.11.05-.08-.12-.25h0c-.1-.21.18,0,.17-.11l0,.06c0-.09,0-.09-.05-.23s.11.08.16.15-.06-.12.05-.06.08.08,0,.09.15.11.05-.07c.11.15.18.16.15.11l-.1-.09s0,0,0,0l.16.2c.25.18-.24-.48.14-.14-.1-.14-.11-.06-.23-.23.05,0,.31.25.32.24s-.21-.3-.11-.26a1.59,1.59,0,0,1-.25-.33,1.06,1.06,0,0,1,.31.32s0,0,0,0a.27.27,0,0,0,.1.14L28.64,24c.08.06.11,0,.19.14A.23.23,0,0,0,28.7,24c.12.07.06,0,.15,0a.55.55,0,0,1-.11-.11c.13,0-.08-.15-.07-.21.11.09.2.26.16.14a.76.76,0,0,1,.2.24c-.08-.16.13,0,.17,0l0,.07s0-.05,0-.06L29.11,24s0,0,.08.06c-.06-.1-.2-.22-.28-.35.07.05,0-.11.13.06-.09,0,.16.18.15.24s0,0,0,0l0,.05c.18.13-.16-.22-.11-.25s.17.18.16.16-.15-.17-.2-.26c.09.06,0-.08,0-.08l-.05,0c-.08-.1-.06-.1-.07-.15s0,.07.07.1c-.13-.19.2.14.13,0,.07.06.16.19.22.22-.09-.15.15.11.09,0a.76.76,0,0,1-.19-.25l0,.14-.14-.22s0,.11,0,.1a.62.62,0,0,0-.16-.2c.2.19-.05-.16.09,0l.29.33c.17.12-.08-.23.05-.19l-.07,0c-.11-.14,0-.05,0-.12a1.39,1.39,0,0,0,.2.21c-.07-.08,0,0-.14-.25l.15.13c.09,0-.23-.36-.14-.37s.19.19.22.31.06,0,0-.09c.08,0-.08-.19,0-.11,0,0-.15-.16-.13-.17l.06.05c0-.05,0-.09-.18-.19.41.26.1-.13.49.06,0-.07,0-.14,0-.17l.05,0c.18,0-.38-.23-.18-.2s.1.09.21.11c.49.22,0-.09.33,0l0,0c.22,0-.11-.15,0-.17l.09,0a.72.72,0,0,1-.33-.24,2.79,2.79,0,0,0,.34.09s-.38-.08-.41-.13c.14,0,.28,0,.54.07l0,0c.35.05,0-.05.12-.05l.15,0c0-.07-.37-.13-.28-.18h-.12c-.37-.07.25,0,0-.06l.42,0c-.07,0-.32-.1-.36-.13a1.83,1.83,0,0,1,.55.13s.06-.08-.14-.1c0,0,.13,0,0,0-.27,0-.41-.07-.4-.1h0c.86,0,.11-.1.7-.16-.38-.07-.06-.18-.23-.29-.52.12-.05,0-.61.07-.05,0-.05,0,0,0a2.1,2.1,0,0,0,.26-.13c.14,0,.15,0,.27,0s.2-.07.3-.15c-.18.05-.29.05-.26,0l-.19.11c-.35,0,.36-.18,0-.19L31,21c-.14,0-.17-.17-.58-.05a.56.56,0,0,1,.21-.09c-.06-.13-.59,0-.46-.2l.11-.06s-.21.09-.14,0,.1-.06.1-.08-.21.08-.18,0l.12,0c0-.19-.39,0-.51,0a.89.89,0,0,0,.26-.43l0,0c0-.1-.3.09-.45.13.21-.3,0-.23.05-.44a1,1,0,0,1-.21.2c0-.06-.2.13,0-.09h0c.19-.22.11-.2.09-.22l-.27.28c.33-.47-.3,0,0-.4-.09.06-.1,0-.19.1l.15-.15c0-.08,0-.12-.09-.13l.12-.1s-.46.41-.49.4l.21-.24c-.06,0,.09-.29-.16-.13l.11-.1s.06-.24-.23.08c.2-.2,0-.06-.14,0l.15-.14a1.48,1.48,0,0,1-.34.25s.11-.13.08-.08c0-.11-.16.12-.11,0l.1-.08s-.06,0-.18.11,0-.08.12-.22c-.09.08-.21.18-.18.13a.3.3,0,0,1,.1-.1c.05-.14-.23.12-.12-.06l.08-.09s.05.07,0,.07a2,2,0,0,1,.33-.36c-.12.09-.38.28-.34.19l0-.05h0s0,0,0,0a.39.39,0,0,0,0-.06c.1-.12,0-.09,0-.11-.15.15-.14.11-.24.25h0l0,0c-.08.07-.16.13-.09,0l-.25.23c.18-.23.25-.38.37-.52a.68.68,0,0,0-.44.23c-.05,0,.06-.1.1-.15l.08,0c-.09,0-.1,0-.29.16.05-.12.19-.17.12-.18l.06-.06c.22-.39-.61.39-.31-.1l-.06.08c.07-.28-.37,0-.2-.41,0-.08-.09,0-.2.12l.15-.17-.21.16c-.18.1.3-.47,0-.26l-.09.12s-.13,0,0-.11-.12.11-.07,0l.08-.09-.19.11c0-.1.33-.34.3-.41a1.23,1.23,0,0,0-.34.27.69.69,0,0,1-.12.16l-.06,0a4.62,4.62,0,0,0-.62.72l.18-.12-.11.13,0,0c-.1.13,0,0,.08,0l-.11.14.26-.21c-.09.1-.2.18-.23.26.12-.1.19-.24.29-.29-.1.13-.19.22-.08.14a.76.76,0,0,1-.14.13c.09-.07.08,0,.21-.13-.12.16.09,0-.14.26a.73.73,0,0,1,.23-.16c-.3.26,0,.06-.26.36.26-.24.18,0,.35-.16,0,0-.07.06-.06,0s-.07.13-.1.19a2.54,2.54,0,0,1,.42-.35,4.49,4.49,0,0,1-.43.44c.16-.17.2-.13.33-.29a1.51,1.51,0,0,1-.2.27c.25-.27.06,0,.23-.18-.1.15-.23.25-.13.2A.64.64,0,0,1,26.19,19.72Zm1.12.18h0Zm.06.05,0,0c0-.05.1-.11.1-.1S27.4,19.9,27.37,20Zm.88-1.18s0,0,0,.06h0l0,0Z"/><path class="cls-1" d="M28,19h0l0,0,.05-.05Z"/><path class="cls-1" d="M27.77,24.39h0l0,0Z"/><polygon class="cls-1" points="27.87 20.98 27.91 20.95 27.87 20.98 27.87 20.98"/><path class="cls-1" d="M27,24.13l0,0Z"/><path class="cls-1" d="M26.8,24.21l-.07,0S26.78,24.21,26.8,24.21Z"/><path class="cls-1" d="M26.62,24.23l.06.07h0Z"/><path class="cls-1" d="M28.18,22.56h0S28.16,22.52,28.18,22.56Z"/><path class="cls-1" d="M28,23.37l0-.09S27.91,23.28,28,23.37Z"/><polygon class="cls-1" points="28.51 21.93 28.51 21.94 28.51 21.94 28.51 21.93"/><path class="cls-1" d="M28,23.26s0,0,0,0S28,23.29,28,23.26Z"/><path class="cls-1" d="M26.09,24.56h0l0,0Z"/><path class="cls-1" d="M26.1,24.58v0Z"/><path class="cls-1" d="M26.13,24.66l0-.05S26.09,24.61,26.13,24.66Z"/><path class="cls-1" d="M26.29,24.51l0-.06Z"/><path class="cls-1" d="M26.32,24.46s-.13-.11-.11-.06l0,.05C26.18,24.36,26.4,24.56,26.32,24.46Z"/><path class="cls-1" d="M27.12,25h-.07c.06.06.14.13.13.16C27.39,25.3,27.05,25,27.12,25Z"/><path class="cls-1" d="M27.31,25s.08.09.11.12A.26.26,0,0,0,27.31,25Z"/><path class="cls-1" d="M28.13,24.3l.12.15S28.21,24.39,28.13,24.3Z"/><polygon class="cls-1" points="27.64 23.42 27.55 23.34 27.65 23.48 27.64 23.42"/><polygon class="cls-1" points="28.62 24.37 28.64 24.4 28.61 24.32 28.62 24.37"/><path class="cls-1" d="M30.11,23l-.21-.13S30.14,23.07,30.11,23Z"/><path class="cls-1" d="M30.76,22.12c.17,0,.3,0,.16,0S30.73,22.1,30.76,22.12Z"/><polygon class="cls-1" points="29.32 19.75 29.39 19.7 29.32 19.73 29.32 19.75"/></g></g></svg>