<svg xmlns="http://www.w3.org/2000/svg" viewBox="0 0 48.04 50.72"><defs><style>.cls-1{fill:#fff;}</style></defs><g id="Слой_2" data-name="Слой 2"><g id="Слой_1-2" data-name="Слой 1"><path class="cls-1" d="M12.39,38.93c-.05-.07-.2-.2-.19-.16l.23.24Z"/><path class="cls-1" d="M11.84,38.61a3.86,3.86,0,0,0,.51.55c-.21-.24-.11-.15-.36-.44,0,0,.1.05.19.13-.06-.06.07,0-.07-.12s-.23-.14-.11,0C11.94,38.72,11.89,38.65,11.84,38.61Z"/><path class="cls-1" d="M9.88,39.88h0S9.88,39.87,9.88,39.88Z"/><path class="cls-1" d="M8.75,40.76s0,0,0-.06Z"/><path class="cls-1" d="M8.32,40.67h0S8.31,40.65,8.32,40.67Z"/><path class="cls-1" d="M9.88,39.88l-.11-.05C9.85,39.91,9.85,39.87,9.88,39.88Z"/><path class="cls-1" d="M12.19,39.39a.18.18,0,0,0,0-.07s0,0,0,0Z"/><path class="cls-1" d="M10.12,39.24h0a.45.45,0,0,1-.09-.1Z"/><path class="cls-1" d="M10.42,38.87s.18.19.27.28q-.12-.12-.12-.15Z"/><path class="cls-1" d="M11.3,38.67v0S11.3,38.66,11.3,38.67Z"/><path class="cls-1" d="M9.84,39.44l-.08-.06Z"/><path class="cls-1" d="M2,50.47l0,0Z"/><path class="cls-1" d="M.58,49.89v0l-.11-.11Z"/><path class="cls-1" d="M7.76,40.74Z"/><path class="cls-1" d="M5.06,43.77c.21.15.18.28.43.43C5.4,44.13,5.22,43.85,5.06,43.77Z"/><path class="cls-1" d="M12.16,39.38h0Z"/><path class="cls-1" d="M5.49,44.2Z"/><path class="cls-1" d="M7.17,41.58l.09.08Z"/><path class="cls-1" d="M8,41.32H8Z"/><path class="cls-1" d="M7.17,42.14s0,0,0,0l0,0S7.13,42.12,7.17,42.14Z"/><path class="cls-1" d="M6.89,42.43s0,0,0,0v0Z"/><path class="cls-1" d="M2.74,49.48a1.35,1.35,0,0,1-.19-.16C2.69,49.46,2.7,49.55,2.74,49.48Z"/><path class="cls-1" d="M12.08,39.28a.41.41,0,0,1,.08.1v0Z"/><path class="cls-1" d="M8.74,43.71H8.67A.08.08,0,0,0,8.74,43.71Z"/><path class="cls-1" d="M4.77,47.36l0,0S4.79,47.38,4.77,47.36Z"/><path class="cls-1" d="M8.56,43.89l-.16-.11,0,.06Z"/><path class="cls-1" d="M2.54,49.32h0Z"/><path class="cls-1" d="M2.72,50.09s-.24-.27-.38-.43.22.17.37.28c0-.1-.25-.36-.22-.38a.6.6,0,0,1,.12.11c-.18-.24.09-.11-.14-.41l.07.06L2.18,49s-.13-.2,0,0c0,0,0,.08.1.14L2.27,49c.27.23.06.11.24.29,0-.11-.2-.36-.1-.33.25.24,0,.16.27.33l-.14,0c.42.34-.06,0,.39.37.13,0-.06-.19.08-.18-.13-.15-.21-.19-.33-.34-.15-.33.68.53.42.15-.14-.18-.44-.49-.23-.37l.25.28c.09,0-.36-.42-.11-.3s0,.13.09.16c.25.17-.13-.19-.1-.22l.25.23c0-.1-.08-.34,0-.46a1.15,1.15,0,0,0,.22.22c0-.21.22-.17.45-.11L3.7,48.4s.1.08.14.12-.13-.13-.2-.22.15.09.2.16c-.12-.23-.22-.55.07-.39l0,.07c.13,0-.37-.47-.13-.33l0,0c.2,0,.13-.33.52-.1-.28-.31.24,0-.17-.39.27.14.32.23.55.28,0,0-.23-.29-.24-.36l.22.21-.2-.26.29.24,0-.09a.63.63,0,0,1-.19-.13c0-.14.26,0,.37.15l-.09-.28a1.05,1.05,0,0,1,.15.21c-.18-.28.24.21.08,0a1.36,1.36,0,0,1-.17-.17c.15.1.21,0,.19-.05l.15.16c.11,0,.08-.23.16-.31a1.21,1.21,0,0,1-.36-.35l.25.22c-.13-.16-.12-.06-.26-.27.06,0,.28.24.34.33l0-.11a1.9,1.9,0,0,1,.18.2c-.13-.16.3.16.07-.11l.07.07c.09-.08,0-.2.1-.28-.2-.19-.13-.18-.27-.36.11,0,.32.12.36,0s-.16-.18-.26-.31c.19.17.23.1.33.26,0-.1,0-.13,0-.37a.9.9,0,0,1-.18-.15s.11,0,.2.13v0c-.17-.37.76.29.46-.16l0,0-.12-.28c.07,0,.12.16.26.24-.22-.39.18-.1,0-.37.6.47.16-.24.58,0l-.13-.12c-.1-.14.1,0,.14.06s-.13-.09-.19-.17c0-.32.53-.17.82-.23.09,0-.62-.68-.24-.47l.21.26c-.16-.41.27-.25.15-.62,0,.06.12.13.11.15.19.14.1-.09,0-.23,0,0,.13.12.22.18s-.16-.29,0-.13a.12.12,0,0,1,0,.08c-.06-.1.11-.06-.11-.24.14,0,0-.18.16-.1-.2-.24.18,0-.12-.29.32.32.34.17.22,0,.08.11.12.08.25.22,0,0,0-.13-.18-.29.45.32-.18-.43.35,0a1.86,1.86,0,0,1-.09-.64c.32.32-.06.13.28.46,0-.22-.28-.54-.12-.55s.13.15.18.21c-.05-.21.19-.14.09-.39a.26.26,0,0,1,.07.11s.09,0-.06-.13l0,0a4.05,4.05,0,0,1-.49-.61c.39.44.18,0,.67.59a.86.86,0,0,0-.18-.21c.05,0,.11.06.21.19,0-.13-.21-.27-.15-.31s.08.1.16.19c-.11-.16-.22-.32-.12-.31s.1.1.08.11-.24-.48,0-.43c.28.33.12.07.39.33l0-.12-.15-.11s-.12-.26,0-.2l.08.13,0-.11-.14-.06c-.1-.18-.34-.33-.22-.31s0,0,.21.1h0c-.06-.1-.13-.2,0-.17s.29.3.35.35c-.2-.24,0-.15-.19-.4a2.26,2.26,0,0,0,.22.22l-.17-.19a.63.63,0,0,1,.21.18c.09,0-.35-.32-.14-.24a.56.56,0,0,1,.05.08c.14,0,0-.23.15-.2.28.25,0,.12.26.32,0-.13-.16-.48,0-.5h0c-.37-.39.25.12.11-.09a1,1,0,0,0,.15.17c.12,0,0-.2,0-.4l.09.11c.12,0,.13,0,.21,0-.09-.1-.06-.11-.21-.23.66.44-.1-.5.46-.14,0,0,.05.11.06.11v-.17a1.66,1.66,0,0,0-.25-.2c-.09-.11-.14-.2-.12-.22a1.05,1.05,0,0,0,.37.33l-.16-.15c.34.24-.32-.34-.07-.2l.08.09c0-.07-.11-.2-.07-.2.2.18.07.11.23.27,0,0-.3-.42-.08-.26a1.56,1.56,0,0,0,.06.15c.25.19.2.13.26.14h0l.15,0-.07,0c-.46-.53,0-.17-.28-.55.25.36.17.18.38.4a1.12,1.12,0,0,1,.22.16c-.15-.2.17.09,0-.2.07.07,0,0,.2.16,0-.09-.13-.11-.21-.2-.19-.29.4.16.15-.23-.07-.2-.3-.44-.35-.62a.93.93,0,0,1,.23.27c.14.07.14,0,.09-.08a1.18,1.18,0,0,0,.2.17s-.24-.26-.1-.19a3.61,3.61,0,0,1,.25.3c0-.09-.13-.25-.17-.34a1.4,1.4,0,0,1,.24.29.71.71,0,0,0-.21-.4l-.09,0s.17.15.2.19-.11,0-.18-.09l0-.06c-.43-.38,0,.15-.09.17l-.28-.31.21.28a1.06,1.06,0,0,1-.28-.28c-.18-.12.07.13-.12,0l0,0,.06.12c0-.07-.21-.2-.15-.18-.22-.11.14.31-.11.1v0c0,.18.21.22.41.53l-.57-.49.21.22s-.05,0-.13-.09c.12.18.1.09.22.25-.23-.16,0,.19-.36-.14.15.17.16.09.24.24-.39-.36,0,.11-.19,0s-.05-.13-.25-.26c.3.34-.14,0-.1.08.25.26,0,.17.08.3-.08-.09-.23,0-.37-.1l0,0c.26.27.16.26.18.35a1.65,1.65,0,0,1-.26-.31l0,0a.44.44,0,0,1,.12.2l-.19-.2c0,.05.15.31,0,.23.18.18.55.46.61.64a1.88,1.88,0,0,1-.29-.32s.06.1,0,.07l-.15-.19c-.09,0,.13.15.1.16s-.12-.09-.23-.2.08,0,0,0a.57.57,0,0,1-.27-.16c.08.08.19.19.19.22s-.18-.15-.28-.19c.09.1,0,0,.17.24,0,0-.11-.09-.18-.14.08.11-.07.13.18.32h0v0h0c.14.27-.27,0-.25.18L9.63,40c0,.12,0,.14.08.31,0,0-.16-.09-.24-.18,0,.08.1.16-.06.1s-.12-.1-.06-.12c-.1,0-.22-.12-.07.11-.17-.19-.26-.19-.23-.12l.16.1s0,0-.06.06l-.23-.25c-.37-.2.34.64-.21.23.15.18.16.07.34.28-.07,0-.45-.29-.47-.28-.18-.07.3.39.16.36a1.56,1.56,0,0,1,.36.41c-.07,0-.4-.3-.45-.39s0,0,.06,0,0-.1-.14-.17l.08.08c-.11-.06-.15,0-.28-.15a.29.29,0,0,0,.2.17c-.18-.07-.09.08-.22,0a.77.77,0,0,1,.15.13c-.18,0,.13.19.12.28-.16-.09-.3-.31-.24-.15a1,1,0,0,1-.29-.3c.12.21-.19,0-.25,0l0-.09c0,.06,0,.07,0,.08l.18.15c-.05,0-.06,0-.13-.07.1.12.29.26.42.44-.11-.06,0,.15-.2-.06.14,0-.23-.22-.22-.3s0,0,0,0a.22.22,0,0,1,0-.06c-.26-.14.23.27.16.33-.12-.13-.25-.22-.24-.19s.23.2.3.32c-.14-.06,0,.11,0,.12l.07,0c.12.13.08.14.1.2s-.05-.09-.1-.12c.19.25-.3-.16-.19,0-.1-.06-.24-.23-.31-.27.12.21-.23-.12-.14.06a.84.84,0,0,1,.28.31l0-.2.19.3s0-.16,0-.15a.92.92,0,0,0,.23.25c-.29-.22.08.21-.13.08l-.42-.42c-.24-.12.12.32-.07.29l.1,0c.16.17,0,.07,0,.16a1.77,1.77,0,0,0-.3-.25c.11.1-.06,0,.21.33l-.22-.15c-.13,0,.33.46.23.48-.14-.17-.26-.24-.33-.39,0,0-.07,0,0,.11-.1-.08.14.24,0,.12.06.07.2.22.17.23l-.07-.07c.07.07.06.13.24.26-.5-.37-.14.2-.57-.11a.4.4,0,0,1,0,.23s-.07-.07-.05-.06c-.18-.08.38.43.17.35s-.09-.16-.2-.22c-.47-.45,0,.13-.32-.09v0c-.19-.12.1.25,0,.27l-.07-.07a.92.92,0,0,1,.23.53,1.2,1.2,0,0,0-.26-.29c0,.05.3.28.31.38a3.11,3.11,0,0,1-.43-.33l0-.05c-.28-.23,0,.06-.11,0L6.09,43c0,.1.25.37.16.42l.09.08c.24.31-.18-.12,0,.12L6,43.36a2.22,2.22,0,0,1,.2.45,2.7,2.7,0,0,1-.33-.54s-.06.11.06.25c0,0-.07-.11,0-.08.19.25.26.39.21.44-.54-.55-.26,0-.72-.39.11.28-.26.09-.32.22.46.38,0,0,.42.46,0,0,0,.06,0,0L5.16,44c-.14-.11-.08-.12-.18-.21s-.2-.16-.35-.24c.16.14.21.23.12.2l.24.16c.16.3-.43-.3-.27,0l-.11-.16c0,.12-.14.14.17.52a1,1,0,0,1-.2-.2c-.14,0,.18.56-.1.42l-.1-.11c0,.05.17.22,0,.14l-.11-.11s.14.23.06.19l-.1-.14c-.23,0,.16.42.16.57a1.08,1.08,0,0,0-.57-.36l0,0c-.14.06.09.42.12.64-.4-.28-.33.05-.62,0a1,1,0,0,1,.26.29c-.08,0,.16.27-.13,0h0c-.3-.26-.27-.14-.31-.11l.37.38c-.64-.45,0,.44-.58,0,.08.12,0,.14.12.26l-.2-.2c-.11,0-.17,0-.19.14l-.13-.16c-.06,0,.53.63.5.68l-.31-.29c-.07.08-.41-.1-.21.24a.75.75,0,0,1-.13-.15s-.34-.07.09.32c-.27-.26-.1.06,0,.21l-.2-.2c.22.28.29.35.32.47S2.42,47,2.48,47c-.14-.07.16.21,0,.15L2.38,47s0,.09.15.26-.13,0-.31-.15c.1.11.23.28.15.25a.59.59,0,0,1-.12-.14c-.2-.07.14.33-.1.18-.07-.07-.1-.1-.13-.11s.11-.08.12-.06a3.13,3.13,0,0,1-.47-.45c.1.17.34.52.22.47l-.07,0,0,0s0,0,0,.06-.07,0-.09,0c-.16-.15-.13,0-.16,0,.21.19.15.19.34.33,0,0,0,0,0-.05a0,0,0,0,0,0,0l0,0a.21.21,0,0,1,0-.07c.09.12.16.22,0,.13l.29.35c-.31-.25-.51-.34-.69-.5a.84.84,0,0,0,.26.63c0,.06-.12-.09-.19-.14s0,0-.06-.11c.06.13-.07.14.19.41-.16-.07-.22-.26-.24-.16l-.07-.09c-.54-.29.48.86-.2.47a.26.26,0,0,1,.11.07c-.39-.08-.09.54-.61.32-.12,0,0,.14.14.29l-.22-.2.2.29c.12.24-.64-.41-.37,0l.15.13c-.05,0,0,.18-.16,0,0,0,.14.16.05.09l-.11-.11.12.27c-.14,0-.44-.45-.54-.39a1.55,1.55,0,0,0,.33.47s.1,0,.21.15l0,.08a4.75,4.75,0,0,0,.94.85l-.16-.25.18.14,0,0c.18.13.06,0,0-.12a.84.84,0,0,0,.2.15l-.28-.36c.14.13.24.28.34.32-.12-.17-.31-.27-.37-.4.17.13.29.26.19.1a.58.58,0,0,1,.16.19c-.08-.13,0-.11-.14-.29.21.16,0-.13.34.18a1,1,0,0,1-.2-.32c.34.41.1-.06.49.35-.3-.36,0-.25-.18-.49,0,0,.07.09,0,.08s.17.09.25.13a3.67,3.67,0,0,1-.44-.58,8,8,0,0,1,.58.59c-.23-.22-.17-.28-.37-.46a3.39,3.39,0,0,1,.35.27c-.35-.35,0-.08-.23-.32.21.13.34.32.28.17A.81.81,0,0,1,2.72,50.09Zm.41-1.62h0v0Zm.08-.09a.05.05,0,0,0,0,0c-.07-.07-.14-.14-.13-.15A.83.83,0,0,0,3.21,48.38ZM1.64,47.19s0,0,.08,0a0,0,0,0,0,0,.05l0,0Z"/><path class="cls-1" d="M1.88,47.48v0l.06,0-.06-.06Z"/><path class="cls-1" d="M9.92,39.89h0l0,0Z"/><polygon class="cls-1" points="4.78 47.55 4.73 47.5 4.76 47.55 4.78 47.55"/><path class="cls-1" d="M11.08,40.09l.06,0Z"/><path class="cls-1" d="M11.33,39.93l.1,0Z"/><path class="cls-1" d="M11.58,39.87l-.08-.09h0Z"/><path class="cls-1" d="M9.33,42.63h0S9.36,42.67,9.33,42.63Z"/><path class="cls-1" d="M9.6,41.41l.08.12S9.72,41.53,9.6,41.41Z"/><polygon class="cls-1" points="8.75 43.7 8.75 43.7 8.74 43.7 8.75 43.7"/><path class="cls-1" d="M9.64,41.56s0,0,0,0S9.62,41.52,9.64,41.56Z"/><path class="cls-1" d="M12.35,39.27h0l0,0Z"/><path class="cls-1" d="M12.33,39.24v0S12.31,39.21,12.33,39.24Z"/><path class="cls-1" d="M12.29,39.14l0,.07S12.34,39.2,12.29,39.14Z"/><path class="cls-1" d="M12.05,39.39l.07.07Z"/><path class="cls-1" d="M12,39.47s.19.12.17.05l-.06-.06C12.22,39.58,11.9,39.34,12,39.47Z"/><path class="cls-1" d="M10.85,38.86H11c-.09-.07-.2-.16-.2-.2C10.46,38.5,11,38.82,10.85,38.86Z"/><path class="cls-1" d="M10.57,38.91c0-.06-.11-.11-.15-.15S10.48,38.87,10.57,38.91Z"/><path class="cls-1" d="M9.39,40.11l-.18-.18S9.28,40,9.39,40.11Z"/><polygon class="cls-1" points="10.11 41.27 10.24 41.36 10.09 41.18 10.11 41.27"/><polygon class="cls-1" points="8.68 40.13 8.66 40.09 8.69 40.19 8.68 40.13"/><path class="cls-1" d="M6.76,42.21l.23.21C7,42.37,6.72,42.11,6.76,42.21Z"/><path class="cls-1" d="M6.13,43.3c-.12-.1-.21-.15-.12,0S6.15,43.34,6.13,43.3Z"/><polygon class="cls-1" points="3.2 45.55 3.14 45.46 3.17 45.55 3.2 45.55"/><path class="cls-1" d="M46.43,22.48a.14.14,0,0,0,.23-.16l-.34-.13Z"/><path class="cls-1" d="M47,21.19c-.17-.22-.46-.46-.76-.29.33.2.2.26.59.47.05.19-.09.34-.21.31.09.07-.06.3.15.4a.65.65,0,0,0,0-.9C46.82,21.11,46.91,21.17,47,21.19Z"/><path class="cls-1" d="M38.43,4.83l.08.11A.28.28,0,0,0,38.43,4.83Z"/><path class="cls-1" d="M27.32.69c.09,0,.13,0,.14-.06S27.3.66,27.32.69Z"/><path class="cls-1" d="M25.25.28l.13,0A.13.13,0,0,0,25.25.28Z"/><path class="cls-1" d="M38.43,4.83l-.19-.28C38.16,4.63,38.32,4.72,38.43,4.83Z"/><path class="cls-1" d="M45.88,18.75a.58.58,0,0,0,.11.15l-.05-.15Z"/><path class="cls-1" d="M42.52,8.2l.07.07.16,0Z"/><path class="cls-1" d="M44.93,11.51c0-.08-.3,0-.42.07a.3.3,0,0,1,.27.07A.88.88,0,0,0,44.93,11.51Z"/><path class="cls-1" d="M46.82,17.66l.06.11Z"/><path class="cls-1" d="M40.5,6.07a.16.16,0,0,0,0-.1A.23.23,0,0,0,40.5,6.07Z"/><path class="cls-1" d="M45.3,26.75l.05,0S45.31,26.73,45.3,26.75Z"/><path class="cls-1" d="M47.16,22.48l0,.06.15,0Z"/><path class="cls-1" d="M21.38.34h0C21.49.3,21.43.31,21.38.34Z"/><path class="cls-1" d="M4,27.22c.17-.44.45.56.6-.08C4.5,27.22,4.07,26.7,4,27.22Z"/><path class="cls-1" d="M45.91,18.65a.41.41,0,0,1,0-.16A.32.32,0,0,0,45.91,18.65Z"/><path class="cls-1" d="M4.6,27.14h0v0Z"/><path class="cls-1" d="M13.25,4a.28.28,0,0,0,.15,0A.2.2,0,0,0,13.25,4Z"/><path class="cls-1" d="M19.33,1.45l-.17,0A.31.31,0,0,0,19.33,1.45Z"/><path class="cls-1" d="M10.85,6.41c-.08,0-.13,0-.19.14h.05S10.75,6.45,10.85,6.41Z"/><path class="cls-1" d="M8.48,9l.08,0,.06-.1Z"/><path class="cls-1" d="M41.15,35.42a.83.83,0,0,1,.29.06C41.26,35.38,41.52,35,41.15,35.42Z"/><path class="cls-1" d="M46,18.72c-.07,0-.11,0-.13-.07l0,.1S46,18.75,46,18.72Z"/><path class="cls-1" d="M12.27,8.12l-.4.31A3.35,3.35,0,0,0,12.27,8.12Z"/><path class="cls-1" d="M20.32,41.77h.13A.15.15,0,0,0,20.32,41.77Z"/><path class="cls-1" d="M10.89,9.56a.68.68,0,0,0-.34.08.28.28,0,0,0,0,.09Z"/><path class="cls-1" d="M41.45,35.48h0Z"/><path class="cls-1" d="M42.81,32.35c-.26.41.19.38.32.58-.21.55-.37.09-.63.15-.1.36,0,.78-.15,1-.06,0-.11,0-.14-.08,0,.47-.66.91-.65,1.5a.18.18,0,0,1-.11,0,1,1,0,0,1,.43.27c-.14.17-.1.46-.34.37.1-.1,0-.17,0-.27l-.08.24c-.4-.07.12-.31-.07-.48-.22.41-.37,1-.68,1.19-.29-.18.47-.68-.06-.55l.45-.3c-.67-.06.25-.22-.43-.32-.54.43-.37.71-.95,1.11,0,.24.24.16.25.41-.52.92-1.15-.11-1.38.71,0,.29.2.67-.36.81l-.09-.41c-.56.37,0,.67-.7.89,0-.2.35-.43.24-.4-.54,0-.13.37-.42.58L37,39.09c-.58.4-1.11,1.07-1.81,1.48,0-.11.07-.26-.15-.27a5.89,5.89,0,0,1-1.4.69,15.38,15.38,0,0,1-1.52.28l-.26.41c-.08,0-.19-.09-.12-.17-.39,0,0,.19-.1.34s-.32-.09-.22-.21a3.39,3.39,0,0,1-2.48.77l.12-.11c-.55,0-.53.69-1.07.5l.09-.07c-1.19,0-2.53.3-3.42-.21-.2.42-1.15-.28-1.29.29-.64-.37-.43-.46-1.33-.81-.24-.08-.44.28-.76.28l.06-.3-.49.21-.13-.42h-.3c.1,0,.2.19.16.27-.49,0-1-.53-1-.67l-1.11-.13c.07-.11.25-.08.42-.11-.66.1,0-.33-.58-.26,0,.09-.1.16-.14.21a2.27,2.27,0,0,0-1.15-.64l.17-.15c-.69-.4-1.54-.69-2.29-1.19a.25.25,0,0,1-.29.41l.09-.33c-.25.07.17.26-.26.27-.27-.23,0-.44.23-.42l-.4-.14c0-.09.15-.08.24-.17-.26.07-.38-.67-.77-.54l0-.09c-.7-.54-1.07-.73-1.62-1.22-.21.2-.37,0-.69,0a12.49,12.49,0,0,0-1-1.52c-.39-.27-.26,0-.52,0,.17-.18-.25-.68.11-.53-.51-.6-.66-.75-1.36-1.48,0,.14,0,.27-.11.27s-.14-.41,0-.46l.05,0c-1-.78-.57-2.59-1.38-3.18l0,0-.58-.77c-.1-.41.27.18.31-.17-.73-.8-.4-1.5-.86-2.22.6-.76-.45-2.2,0-3.1L6,23.79c-.2-.21.08-.27.12-.44-.14,0-.16.25-.26.12A8.85,8.85,0,0,1,6,20.62c.09-.48.26-.94.38-1.4l.2-.69.25-.67c.21-.64-.79-.61-.17-1.35l.26.33a6.2,6.2,0,0,1,.53-2.06,9.92,9.92,0,0,0,.8-2c0,.11.1.16.05.28.34-.14.56-.91.39-1,.13-.17.18,0,.33,0s.11-.8.41-.79c.05,0,0,.11,0,.17,0-.22.55-.69.22-.71.42-.33.48-.88.88-1.09-.05-.4.71-.55.44-.91.31.34.86-.43,1-.79,0,.18.31-.08.34.14.27-.25.46-.54.26-.68.84-.06.81-1.21,1.54-.9l.56-.63.6-.53a9.28,9.28,0,0,1,1.24-1c.16.39-1,.58-.68,1a5.31,5.31,0,0,1,2-1.53c.25,0,0,.24-.08.34a4.23,4.23,0,0,1,1.24-.58,7.69,7.69,0,0,0,1.2-.54s-.07.11-.14.16c.16-.06.4,0,.32-.23l-.14.1c-.35-.22.48-.77.48-.93-.14.64.87-.07.59.77.1-.07.21-.2.16-.32.17,0,.23.06.11.25.55-.26.31-.4.85-.49,0,.1-.09.15-.12.28a1.18,1.18,0,0,1,.95-.45c0,.06.05.13-.09.15.77-.18,1.31-.64,2.21-.51-.25.44.3.12.35.49a2.46,2.46,0,0,1,.47-.1L26,2c.41,0,.79-.23,1.14-.09l-.32.14.78,0-.43-.17c.44-.17,0-.47.54-.34-.12,0,.43,0,.62.29h0a.84.84,0,0,1,.75,0c.06.13-.13.4-.09.48.25-.27,1,.05,1.29-.21a.32.32,0,0,0-.12.29l.22-.2c.17.12.19.17.12.31.55.19-.07-.5.55-.13,0,0,0,.05-.16.06.64.27,1.35.16,1.91.52,0,.42-.55-.1-.45.27a11.43,11.43,0,0,0,1.39.26,3.62,3.62,0,0,1,1.3.47l-.13-.11c.34-.42.48.51,1,.5-.11,0-.27.19-.21.15a8.67,8.67,0,0,0,2,.88l-.17,0a10.7,10.7,0,0,0,1,.9c.17,0,.34.11.35-.12A2.35,2.35,0,0,0,40,7.41,1.75,1.75,0,0,1,41.07,8.6c-.09-.09-.29-.14-.22-.06l.69.58c.13-.21,0-.18,0-.44a.87.87,0,0,1,.59.29c-.4-.21-.27.23-.28.46,0-.07.14-.07.18-.13,0,.64.42-.23.59.47l-.12.05c.2.15.46.24.6.47-.16.25-.26-.13-.45,0,.23.29.87.29.81.74-.15-.1-.26-.29-.42-.37a1,1,0,0,0,.12.72v0l.19.6v-.18c.82.05.62.71,1.27,1.07-.64-.35-.26,0-.55.12,0,.18,0,.44-.09.41.34.16,0,.52.53.73-.08.06.12.28-.13.32.23.3.12-.15.24-.17.57.4.1,1.41.83,2,.38.64.72.68,1,1.31-.09.26-.39-.1-.39-.1a1.47,1.47,0,0,0,.23,1c-.1-.05-.16,0-.25.16.07.26.38.12.29.5a1.27,1.27,0,0,1-.43-.2c.14.3.37.59.51.91-.16.11-.29-.16-.42-.26.13.35.31.93.57,1l.08-.25c0,.14-.22.09-.29,0a.3.3,0,0,1,.12-.51l.1.23c.53-.32-.24-1-.28-1.43l.44.13-.41-.44c.08-.13.3-.25.4,0,.13-.39-.22-.27-.06-.62,0,0,0,0,.07,0l-.21-.31c.1,0,.27-.12.27.1.07-.68-.56-.91-.31-1.22l0,0c-.39-.79-.31,0-.86-.49l.56-.66-.32,0c0-.09-.06-.26.07-.28-.31-.24-.11.1-.36,0,.13-.52-.56-1-.17-1.33-.28,0,0,.45-.33.1.42-.34-.31-.44-.26-.9.29,0,.33.39.37-.08-.51,0-.25-.75-.52-1-.33.17-.51-.55-.91-1,.15,0-.45-1-.66-1.48l0,0c-.36.15-.6-.35-.93-.58a.42.42,0,0,1,.51,0c-.08-.09-.17-.18-.25-.28a.64.64,0,0,1-.47-.18L42.39,8c-.36-.35-.9-.54-1.23-1.11-.2.16-.14.84-.74.53.08-.12.22-.31.39-.23-.05,0-.23-.06-.27-.18l.36,0c-.15-.27-.25,0-.4-.13.13-.15,0-.22.1-.32s.09.2.21.2a1.15,1.15,0,0,1-.31-.68.21.21,0,0,1-.33.09c-.38-.33,0-.3-.12-.57-.18,0-.34-.29-.54-.06-.11-.09,0-.21,0-.31-.29,0-1-.7-.95-.27l0,.06,0,0h0c-.81-.29-1.36-1.08-2.14-1.42l0-.09A4.77,4.77,0,0,0,35,3.08c-.13-.07-.23-.32-.13-.4a1.63,1.63,0,0,1-.9-.36c.42,0-.07-.19.42,0C34,2.09,33.9,1.9,33.3,2c.26-.18-.25-.43-.5-.44l.27.29a3.52,3.52,0,0,1-.69-.26l.22-.28c-.9-.66-2,.17-2.58-.63-.31.19.52.25.23.48-.45-.12-.86-.66-1-.69-.63-.27-.67.38-1.32.19.07.12.12.44-.38.53-.46-.07-.54-.53-.24-.61.12,0,.17,0,.16.08.15,0,.36-.08.18-.22l-.07.12c-.22-.13-.88-.15-.72-.34-.36.09-.16.19.1.26A6.85,6.85,0,0,0,25.38.3c.1.06.19.2.09.2-.92-.1-.39.24-1,.33-.36-.17.1-.44-.52-.26-.39-.1-.11-.31,0-.41a2.71,2.71,0,0,1-1.43,0L22.85,0a1.85,1.85,0,0,1-.47.13l.2.21c-.18,0-.33,0-.34-.09-.16.18.2.36-.12.63-.26-.08-.68.22-.82-.05.75,0-.15-.3.47-.46a.89.89,0,0,1-.45.07s0-.07.06-.1c-.77-.1-.25.43-1,.61.05-.2-.25-.29-.36-.22.29-.07.21.25,0,.45-.5,0-.47.23-.71.27h.29c-.05.19-.28.22-.56.39-.07-.12.25-.19.12-.21-.24.42-.88,0-1.28.35-.27,0-.15-.3-.37-.3-.46.4-.68,0-1.15.45.26.14.25.07,0,.47L17.18,2l-.43.59c.26-.11.49-.41.68-.43-.21.29-.19.23,0,.35-.51-.15-.63.53-1.14.51l-.25-.53c-.78.06-1,.84-1.83,1.19l.3-.06c0,.26-.46.32-.66.55C13.77,4,13.57,4,13.4,4c.09.11-.56.4-.39.77l-.48,0c-.67.37-.34.93-.89,1.36,0-.31-.32-.2-.06-.63-.18.16-.36.27-.28.38-.18,0-.3.64-.59.64,0,.14.1.31-.1.47,0,0-.07-.07-.07-.07s-.19.39.12.37C9.75,7.44,9.31,8.79,8.56,9c-.25.46-.58,1-.83,1.37,0,0-.08,0,0-.12-.49.46.27.65-.27,1.16-.47.15,0-.42-.17-.29-.61-.24-.41.79-.95,1.05l0-.13c-.37.25-.19,1-.5,1.49,0,0,0-.06-.08,0a5.8,5.8,0,0,1-.17,1.87c-.18-.25,0-.29-.32-.27,0,.26.42.07.31.58-.19.11-.44.43-.71.4A4.42,4.42,0,0,1,5,15.57c-.44.13-.2.62-.31.86l-.15-.07c-.14.76.24.87,0,1.65L4.7,18c.29.51-.28.33-.07.82l-.41.07a14.23,14.23,0,0,1,.24,1.6A3.8,3.8,0,0,1,4,19.07c-.05.3-.13,1,0,1.18,0-.12-.09-.28,0-.39a2.46,2.46,0,0,1,.34,1.45c-.76-.14-.28,1.5-.82,1.94.31,1,0,2.1.28,3.32.5-.53.09.35.67.16.09.27.1.38.07.41-.06.3-.1.6-.15.91s-.2-.23-.33-.17c.11.63-.18.32-.23.78.18-.14.36.12.39.5l.12-.57c.58.74-.29.89.33,1.63L4.45,30c.25.4.62,1.6,1.25,1.79,0,.1-.13.27-.26.11.41,1,1.57,1.9,1.79,2.75H7.06c.14.15.42.14.44.43-.06,0-.17,0-.12.1s.52.29.61.56l-.27-.09c.48,1,1.32,1,2,1.61-.33.3.15,1,.4,1.35l-.06,0a9.46,9.46,0,0,0,2.83,1.68c.28.82,1.87,1.51,2.77,2.25-.12-.15.18-.29.38-.24.2.2.8,0,.59.39l-.09,0c0,.45.57.58,1,.75l.26-.47a2.51,2.51,0,0,0,1.78.86c.66.11,1.26.17,1.49.57.3-.08.62,0,.91-.09l-.06.28a6.78,6.78,0,0,0,2,.31l-.21.19c.54.06.73-.77,1.2-.75l.13.42a5.38,5.38,0,0,0,2.73-.09.21.21,0,0,1-.17.21c.43,0,1.7.09,1.46-.46.06.37.94-.1,1.38-.35v.29c.33-.45.31-.55.84-.79.14,0,.17.19,0,.17.47,0,.27-.35.84-.34l-.15.22c.45-.1.4-.16.57-.45a.87.87,0,0,1,1,0,.52.52,0,0,1,.45-.47c.07.07,0,.16,0,.21.82-.08.92-.77,1.52-.73a.21.21,0,0,0,.15.11,6.87,6.87,0,0,1-1,.42c.1.24.58.06.36.56.3-.36.73-1,1.23-1.14a.31.31,0,0,1,.1,0l0,0a.52.52,0,0,0,.26-.17,1.58,1.58,0,0,0,.38-.15c.16.16.56-.2.78-.33-.16-.22.14-.36-.24-.39,0,0,0,.05-.16.15a.2.2,0,0,0-.08.08v0l-.52.33c.1-.22.21-.43.53-.44a5.23,5.23,0,0,1,0-.56c.5.16,1.18,0,1.38.11.52-.6,1.42-1.14,1.41-1.89.11-.2.28,0,.39,0,0,.12-.17.21-.17.31.23-.39.91-.9.73-1.23.51-.25,0,.46.51-.11V38a2.49,2.49,0,0,0,1.2-1.54,2.55,2.55,0,0,1,1.22-1.67c-.11.07-.16.1-.22.08,1.32-1.36,1.7-3.36,2.77-4.88.28-.46.07-.59,0-.94h.33c-.06-.21-.13-.42-.2-.62a1.5,1.5,0,0,1,.48-1,1.15,1.15,0,0,0,.28-1.19l-.21.09c.09-.34,0-1.1.26-1,0,0-.19-.14-.06-.26h.16a6.77,6.77,0,0,0-.19-.87c.15-.65.62.16.7-.82,0-.38-.41-1-.52-.91s-.12.37-.28.38l-.06-.33c-.47-.06-.93-.28-1.3.46l.26.53-.23.15v-.43c-.23.23-.05.4.07.58a.41.41,0,0,0-.26.2l.42.55c-.19,0-.33-.26-.48.06.17.26.44-.18.52.23-.25.22-.41.13-.28.44-.12,0-.19,0-.22-.17.1.28,0,.69.18.86-.28.21-.08.89-.52.77a1.32,1.32,0,0,1,.18.75c-.4-.55-.25.86-.77.59.39.45-.18,1.15-.12,1.78,0-.05-.07-.13,0-.17-.15.29-.31.32-.46.48.34.18.2.67.3,1-.51.2-.31-.41-.69-.45.29.11,0,.75.28.75-.34.16-.21.18-.57.17.41.27,0,.29.09.65-.44.25-.46-.14-.57.35C42.74,32.8,42.81,32.35,42.81,32.35Zm-7.55,8.3h0l.21-.12Zm-.87.43.39-.17c.07.07.08.18,0,.21S34.55,41.09,34.39,41.08Zm2.81.73c-.12.12-.2.1-.25.06a2.11,2.11,0,0,0,.24-.18v0A.31.31,0,0,1,37.2,41.81Z"/><path class="cls-1" d="M37.27,41.34s0,0,0-.06H37.2v.11Z"/><path class="cls-1" d="M38.52,5h0a.09.09,0,0,1,0,0Z"/><polygon class="cls-1" points="21.38 41.91 21.37 41.98 21.46 41.93 21.38 41.91"/><path class="cls-1" d="M41.89,9.43a.15.15,0,0,0,0,.1A.16.16,0,0,0,41.89,9.43Z"/><path class="cls-1" d="M43.2,11.36l.09.33A2.07,2.07,0,0,0,43.2,11.36Z"/><path class="cls-1" d="M44,13l.12,0h0Z"/><path class="cls-1" d="M20,3.22l-.06,0C19.8,3.34,19.9,3.29,20,3.22Z"/><path class="cls-1" d="M28.27,1.84,28,1.93C28.14,2,28.25,2,28.27,1.84Z"/><polygon class="cls-1" points="12.31 8.08 12.31 8.08 12.27 8.12 12.31 8.08"/><path class="cls-1" d="M27.59,1.9a.57.57,0,0,0,.4,0A.9.9,0,0,0,27.59,1.9Z"/><path class="cls-1" d="M46.1,20.31v.09h0Z"/><path class="cls-1" d="M46.14,20.41l0,.09C46.18,20.45,46.17,20.42,46.14,20.41Z"/><path class="cls-1" d="M46.26,20.69l-.08-.19C46.18,20.57,46.18,20.65,46.26,20.69Z"/><path class="cls-1" d="M45.83,18h0Z"/><path class="cls-1" d="M45.62,17.29c0,.18-.1.47,0,.68h.09C45.55,17.9,45.83,17.41,45.62,17.29Z"/><path class="cls-1" d="M45.84,14c.06.21.1.42.15.63.06-.15.15-.34.27-.08C46.28,13.65,46.1,14.77,45.84,14Z"/><path class="cls-1" d="M45.12,12.12c.2.29.14-.08.2-.09C45.13,11.88,45.08,11.85,45.12,12.12Z"/><path class="cls-1" d="M34.78,2.53l.14-.22C34.66,2.23,34.88,2.4,34.78,2.53Z"/><path class="cls-1" d="M31.83,2.83a2,2,0,0,1,.19.22l.18-.18A2.21,2.21,0,0,0,31.83,2.83Z"/><polygon class="cls-1" points="30.75 0.67 30.88 0.67 30.42 0.64 30.75 0.67"/><path class="cls-1" d="M8.67,8.35,9,8.49C9,8.32,8.79,8.06,8.67,8.35Z"/><path class="cls-1" d="M4.42,17.88a.41.41,0,0,0-.21.56C4.26,18.21,4.42,18,4.42,17.88Z"/><polygon class="cls-1" points="18.1 43.55 17.86 43.58 18.27 43.63 18.1 43.55"/><path class="cls-1" d="M11.48,18.76c.09,0,.29,0,.25,0H11.4Z"/><path class="cls-1" d="M12.09,18.53a2.55,2.55,0,0,0-.74-.06c.32,0,.18.05.56.09,0,0-.1.06-.23.05.09,0-.07.06.14.07s.26-.1,0-.15A.54.54,0,0,1,12.09,18.53Z"/><path class="cls-1" d="M13,15.65h0Z"/><path class="cls-1" d="M13.84,14s0,0,.06.05A.1.1,0,0,0,13.84,14Z"/><path class="cls-1" d="M14.3,13.93h0S14.32,14,14.3,13.93Z"/><path class="cls-1" d="M13,15.65l.11,0C13,15.6,13.06,15.63,13,15.65Z"/><path class="cls-1" d="M11.31,18.07l.08,0,0,0Z"/><path class="cls-1" d="M13.1,16.48h0l.13,0Z"/><path class="cls-1" d="M13,17.07s-.26-.05-.38-.08l.19.06Z"/><path class="cls-1" d="M12.45,18l0,0Z"/><path class="cls-1" d="M13.26,16.08h0Z"/><path class="cls-1" d="M26.57,6.08v0A.1.1,0,0,0,26.57,6.08Z"/><polygon class="cls-1" points="27.11 7.58 27.09 7.59 27.06 7.74 27.11 7.58"/><path class="cls-1" d="M14.87,13.65h0S14.88,13.67,14.87,13.65Z"/><path class="cls-1" d="M18.07,10.13c-.18-.18-.09-.32-.31-.52C17.83,9.7,17.93,10,18.07,10.13Z"/><path class="cls-1" d="M11.34,18.05v0S11.33,18.05,11.34,18.05Z"/><polygon class="cls-1" points="17.76 9.62 17.76 9.61 17.74 9.6 17.76 9.62"/><path class="cls-1" d="M15.4,12.56l-.1-.06Z"/><path class="cls-1" d="M14.54,13.08h0Z"/><path class="cls-1" d="M15.39,11.94s.06,0,0,0l0,0S15.44,12,15.39,11.94Z"/><path class="cls-1" d="M15.73,11.57l0,0v0Z"/><path class="cls-1" d="M24.76,6.08c0,.08,0,.16,0,.25C24.77,6.13,24.86,6.06,24.76,6.08Z"/><path class="cls-1" d="M11.46,18.08l-.12,0,0,0Z"/><path class="cls-1" d="M13.72,10.48l.1-.05A.19.19,0,0,0,13.72,10.48Z"/><path class="cls-1" d="M20.56,6.6v0S20.55,6.57,20.56,6.6Z"/><path class="cls-1" d="M14,10.19a.51.51,0,0,0,.19.09l-.05,0Z"/><path class="cls-1" d="M24.78,6.33Z"/><path class="cls-1" d="M25.42,5.69c-.09,0-.06.36-.09.57s0-.28-.06-.47c-.08.1-.14.44-.19.42a.46.46,0,0,1,0-.16c-.09.29-.21,0-.3.37V6.33c0,.19,0,.38,0,.51s-.08.23-.09,0c0,0,0-.09,0-.17l0,.11c0-.35.06-.12.06-.38-.08.11-.17.4-.23.3,0-.34.14-.11.06-.41l.09.13c-.06-.54.06,0,0-.54-.13-.1-.14.17-.27.08,0,.19,0,.28,0,.46-.17.34-.15-.85-.28-.39,0,.22,0,.65-.13.43l0-.39c-.12,0,0,.55-.18.3s.09-.13.07-.17c-.1-.3-.05.22-.12.22l0-.34c-.13.06-.26.31-.4.39a.87.87,0,0,0,0-.32c-.18.18-.4,0-.6-.19l0,.3s-.05-.13,0-.18,0,.18,0,.3-.07-.16-.06-.25c-.09.26-.27.56-.44.28V6.31c-.11-.11,0,.61-.15.35v0c-.23-.09-.42.21-.66-.19.05.41-.25-.14-.14.44-.18-.26-.17-.37-.39-.52,0,0,0,.37,0,.45l-.08-.3v.33l-.13-.35,0,.09a.5.5,0,0,1,.1.21c-.05.15-.26-.16-.3-.31l-.13.31a.57.57,0,0,1,0-.26c0,.34-.11-.3-.13,0a.77.77,0,0,1,.06.24c-.09-.16-.2-.13-.26,0l-.05-.21c-.16,0-.27.19-.44.24a.76.76,0,0,1,.16.48l-.12-.31c0,.2.09.11.11.36-.07,0-.17-.34-.17-.45l0,.13a1.38,1.38,0,0,1-.07-.26c0,.2-.24-.26-.16.09l0-.09c-.16.06-.2.19-.32.26.1.26,0,.22.08.45-.13,0-.32-.21-.42-.14s.07.22.1.39c-.11-.23-.21-.15-.23-.35-.11.1-.14.13-.22.4a.46.46,0,0,1,.13.2s-.11-.06-.16-.18v0c0,.43-.78-.46-.68.1v.3c-.09,0-.06-.19-.18-.3,0,.46-.29.1-.27.42-.5-.57-.34.26-.73-.05l.11.15c.06.16-.1-.06-.15-.07s.13.1.16.2c-.15.38-.74.21-1.13.32-.14.05.53.76.13.54L15.13,9c.06.47-.42.35-.39.77,0-.06-.11-.13-.09-.15-.21-.14-.15.14,0,.28,0,0-.13-.12-.21-.18s.12.32-.08.18a.28.28,0,0,1-.05-.09c.06.11-.13.1.09.27-.17,0,0,.22-.21.16.19.25-.23,0,.08.33-.33-.31-.39-.12-.26.07-.09-.1-.15,0-.27-.19,0,.06,0,.16.16.3-.5-.24.18.48-.41.1a3.26,3.26,0,0,1,.06.78c-.37-.27.07-.19-.31-.47,0,.26.31.57.12.65s-.15-.13-.2-.19c0,.25-.23.27-.11.53a.26.26,0,0,1-.09-.09s-.09,0,.08.13l0-.06c.28.12.47.43.6.52-.48-.35-.2.05-.8-.4a.63.63,0,0,0,.22.17s-.13,0-.24-.13c0,.15.24.23.19.31a1.3,1.3,0,0,1-.2-.15c.14.14.28.28.17.31s-.13-.06-.11-.08c-.05.14.32.45.09.5-.36-.24-.15,0-.48-.18l.06.13.18.05c0,.06.17.24,0,.24l-.12-.11v.15h.16c.14.15.43.2.29.24s0,.06-.25,0h0c.09.08.19.17.09.18s-.38-.18-.45-.21c.26.16,0,.2.3.37a1.38,1.38,0,0,0-.29-.13l.22.12a.49.49,0,0,1-.26-.08c-.08.08.45.16.21.19,0,0,0,0-.08-.06s.06.27-.09.33c-.37-.1,0-.12-.36-.2,0,.18.3.47.17.58h.05c.49.19-.28,0-.07.18a1.44,1.44,0,0,0-.22-.1c-.11.08.05.25.17.45l-.13-.06c-.13,0-.11.14-.18.19.12.06.09.09.29.12-.81,0,.3.47-.36.5,0,0-.11-.08-.11-.06l.09.18a1.26,1.26,0,0,0,.32,0c.13,0,.23.11.22.14a1,1,0,0,0-.5-.07l.22.05c-.42,0,.45.1.16.16l-.12,0c.05.05.2.11.16.15-.26,0-.11-.06-.33-.11,0,.07.48.21.21.22-.07,0-.07-.07-.14-.11-.31,0-.24,0-.29.06h0l-.15.08h.08c.68.19.1.18.54.35-.41-.16-.24-.06-.54-.1a.84.84,0,0,1-.27,0c.23.08-.2.06.14.18-.09,0,0,.05-.25,0,.06.08.17,0,.29,0,.32.14-.44.2,0,.39.18.15.5.19.66.31a.72.72,0,0,1-.35-.05c-.15.05-.13.1,0,.17a.81.81,0,0,0-.27,0c0,.05.36.05.21.11s-.28,0-.39-.07c.09.07.27.13.35.19a.88.88,0,0,1-.36-.07.54.54,0,0,0,.42.2l.09,0s-.23,0-.28,0c-.21-.06.1-.08.2-.08l.06,0c.57,0-.09-.16,0-.25l.41.06-.34-.1a1,1,0,0,1,.4,0c.21-.05-.14-.06.09-.1h.07l-.12-.06c.09,0,.29,0,.23,0,.25-.08-.3-.18,0-.19h0c-.13-.15-.3,0-.65-.18h.76l-.3,0s0,0,.16,0c-.21-.07-.14,0-.33-.05.28,0-.11-.21.38-.17-.23-.05-.19.05-.34,0,.52,0-.08-.1.17-.13s.11.09.36.06c-.45-.09.12-.1,0-.16-.36-.06-.13-.13-.24-.24.12,0,.22-.12.37-.18l.06,0c-.36-.09-.28-.15-.34-.23a1.31,1.31,0,0,1,.39.13v-.06c-.11,0-.17-.06-.2-.11l.26.07c0-.07-.28-.21-.08-.26-.25-.07-.71-.09-.86-.24a1.82,1.82,0,0,1,.42.12s-.11-.05-.05-.06l.22.1c.11,0-.18-.07-.15-.1.19,0,.14,0,.29,0s-.08,0,0,0a.5.5,0,0,1,.32,0A.94.94,0,0,1,13,16c0-.08.24,0,.35,0-.13-.06,0-.06-.27-.14,0,0,.15,0,.22,0-.11-.07,0-.18-.3-.22h0c-.25-.21.23-.21.15-.36l.1,0c-.09-.11,0-.18-.2-.3a.68.68,0,0,1,.3.05c-.05-.07-.16-.12,0-.14s.15,0,.1.1c.11,0,.26,0,0-.17.22.11.32.06.26,0h-.19s0-.08.05-.1l.3.14c.43,0-.54-.51.13-.35-.2-.13-.18,0-.42-.13.07-.05.53.08.54.06.21,0-.4-.28-.24-.32a1.09,1.09,0,0,1-.48-.27c.08-.05.49.13.56.21s0,0-.07,0a.3.3,0,0,0,.19.11L14,14.14c.13,0,.16-.06.32,0a.28.28,0,0,0-.24-.1c.2,0,.07-.12.21-.14a.6.6,0,0,1-.19-.08c.19-.06-.18-.16-.18-.27.19,0,.38.22.29.07a.69.69,0,0,1,.35.21c-.16-.18.21-.06.27-.07l.06.08c0-.05,0-.07,0-.08l-.22-.1a.16.16,0,0,1,.14,0,6,6,0,0,1-.51-.33c.12,0-.06-.15.22,0-.15,0,.28.15.28.25s0-.05,0-.05a.13.13,0,0,1,.07.05c.29.06-.29-.22-.23-.31.15.11.3.16.28.12s-.27-.13-.36-.24c.15,0-.05-.12,0-.14h-.08c-.14-.1-.1-.12-.12-.19s.06.09.12.11c-.23-.22.34.07.2-.1.12,0,.28.18.36.2-.14-.19.25.07.14-.11a.62.62,0,0,1-.32-.26l.06.21-.23-.27s.07.16,0,.16a.6.6,0,0,0-.27-.2c.33.15-.1-.22.14-.14l.48.34c.27.08-.15-.32.05-.34l-.11,0c-.17-.15,0-.08,0-.17a1.75,1.75,0,0,0,.34.21c-.12-.09.06-.07-.24-.32l.24.12c.15,0-.36-.45-.24-.49.15.16.28.21.36.36,0,0,.07,0,0-.11.11.06-.14-.25,0-.15-.06-.07-.21-.21-.17-.23l.07.07c-.07-.07-.06-.14-.25-.25.54.33.18-.26.64,0a.57.57,0,0,1,.06-.27c0,.05.07.07,0,.07.2.06-.36-.44-.14-.38s.08.17.19.23c.47.45,0-.16.35.07v0c.19.13-.07-.26,0-.29l.07.07a.86.86,0,0,1-.16-.57c.15.21.06.13.24.31,0-.05-.28-.3-.26-.41a1.93,1.93,0,0,1,.41.34l0,.06c.26.25.06-.07.13,0l.1.13c.05-.11-.21-.42-.09-.48l-.08-.08c-.19-.34.18.14.05-.13l.26.3a2.1,2.1,0,0,1-.09-.5,3,3,0,0,1,.22.6s.1-.1,0-.27c0,0,.05.13,0,.09-.15-.28-.18-.44-.1-.49.44.62.3,0,.69.47,0-.33.3-.07.42-.19-.37-.47,0,0-.3-.55,0-.06,0-.06.06,0l.3.25c.11.14,0,.14.11.25s.16.2.29.31c-.12-.18-.13-.28-.05-.23l-.2-.21c-.06-.35.35.39.29,0l.06.18c0-.13.19-.11,0-.56a.47.47,0,0,1,.13.25c.17,0,.07-.62.31-.4l.05.14c0-.05-.07-.28,0-.16s.06.14.07.15,0-.27,0-.21l0,.17c.21.11,0-.48.11-.62.18.41.34.5.42.54l0,.06c.17,0,.13-.44.23-.67.25.41.38.09.61.3a1.13,1.13,0,0,1-.08-.38c.06.07,0-.33.12.06h0c.14.37.18.25.24.24l-.14-.51c.35.68.34-.38.59.26,0-.13.05-.14.06-.28l.06.28c.12,0,.18.07.29,0V9c.08,0-.07-.82,0-.84l.1.41c.13,0,.32.31.38-.09,0,.07,0,.19,0,.21s.27.24.17-.33c.05.37.13,0,.18-.16l0,.28c0-.36,0-.46.07-.56s0,.22,0,.15c.09.14,0-.27.12-.13v.18c.07,0,.06-.08.07-.29s.14,0,.17.3c0-.15,0-.36.06-.29a.34.34,0,0,1,0,.18c.13.18.15-.34.25-.07a.89.89,0,0,0,0,.17c-.1,0-.17,0-.16,0a2.89,2.89,0,0,1,.07.66c0-.2.1-.62.18-.51l0,.09v0s0,0,0-.05,0,.08.07.08c0,.21.09.11.12.12a2.29,2.29,0,0,0,0-.47s0,0,0,0,0,0,0,0v0l-.09,0c0-.15,0-.27.09-.12,0-.18,0-.36,0-.45.07.39.17.59.2.83.1-.16.25-.11.31-.64,0-.07,0,.15.06.24s0,0-.05.12c.06-.14.18-.06.2-.43.08.17-.05.34.07.28l0,.12c.2.58.37-.94.6-.18a.25.25,0,0,1,0-.13c.25.34.6-.28.82.28.07.11.1-.12.17-.3l0,.31.12-.34c.15-.24.11.76.31.3V7.83c.05,0,.19-.09.14.14,0,0,.05-.21.06-.1l0,.16.17-.25c.08.13-.12.62,0,.67A1.6,1.6,0,0,0,27,7.92s0-.11,0-.26l.06-.07a3.14,3.14,0,0,0,.18-1.26l-.16.26V6.36h.09c0-.21-.07,0-.13.09a.66.66,0,0,0,0-.25l-.17.42c0-.18.11-.35.06-.46-.08.19,0,.41-.12.53,0-.22,0-.39-.05-.21a.6.6,0,0,1,.06-.25c-.07.14-.14,0-.2.29,0-.27-.16,0-.1-.4a.94.94,0,0,1-.17.35c.14-.52-.16,0-.08-.61-.11.47-.23.19-.36.44,0,0,0-.11,0-.09s-.06-.19-.09-.28a2.53,2.53,0,0,1-.21.71c0-.38.08-.46.09-.82,0,.32-.15.31-.15.57a2.19,2.19,0,0,1,0-.44c0,.49-.06.08-.12.38-.07-.25,0-.46-.09-.32A.51.51,0,0,1,25.42,5.69Zm-2.08.86h0l0,0Zm-.17,0h.08a.49.49,0,0,1,0,.19A.52.52,0,0,0,23.17,6.56Zm.48,1.93s0,0,0-.07l0,0v.11Z"/><path class="cls-1" d="M23.67,8.12s0,0,0,0l0-.07v.09Z"/><path class="cls-1" d="M13,15.66h0Z"/><polygon class="cls-1" points="20.71 6.42 20.73 6.49 20.73 6.42 20.71 6.42"/><path class="cls-1" d="M11.83,16.3h0Z"/><path class="cls-1" d="M11.7,16.69l-.11,0A.32.32,0,0,0,11.7,16.69Z"/><path class="cls-1" d="M11.51,17l.12,0h0Z"/><path class="cls-1" d="M12.94,12.1v0C12.91,12,12.91,12.05,12.94,12.1Z"/><path class="cls-1" d="M12.8,13.73l-.1-.1S12.66,13.66,12.8,13.73Z"/><polygon class="cls-1" points="13.71 10.49 13.72 10.49 13.72 10.48 13.71 10.49"/><path class="cls-1" d="M12.74,13.57c-.07,0-.06,0,0,.06S12.77,13.61,12.74,13.57Z"/><path class="cls-1" d="M11.27,18.36h0Z"/><path class="cls-1" d="M11.3,18.38l0,0S11.34,18.38,11.3,18.38Z"/><path class="cls-1" d="M11.41,18.43l-.07,0S11.33,18.42,11.41,18.43Z"/><path class="cls-1" d="M11.42,17.94h0Z"/><path class="cls-1" d="M11.4,17.81s-.23.06-.17.11h.08C11.16,17.9,11.57,17.85,11.4,17.81Z"/><path class="cls-1" d="M12.7,17.42l-.09.08c.11,0,.25,0,.27,0C13.22,17.45,12.64,17.54,12.7,17.42Z"/><path class="cls-1" d="M12.89,17.14c0,.06.16,0,.22,0A.25.25,0,0,0,12.89,17.14Z"/><path class="cls-1" d="M13.4,15.09l.24.09S13.54,15.14,13.4,15.09Z"/><polygon class="cls-1" points="12.31 14.22 12.15 14.2 12.36 14.31 12.31 14.22"/><polygon class="cls-1" points="14.09 14.68 14.12 14.71 14.06 14.62 14.09 14.68"/><path class="cls-1" d="M15.85,11.8l-.23-.2C15.64,11.65,15.9,11.9,15.85,11.8Z"/><path class="cls-1" d="M16.73,10.54c.11.11.21.17.13,0S16.72,10.5,16.73,10.54Z"/><polygon class="cls-1" points="20.93 8.97 20.93 9.08 20.96 8.98 20.93 8.97"/></g></g></svg>