<svg xmlns="http://www.w3.org/2000/svg" viewBox="0 0 472.77 371.96"><defs><style>.cls-1{fill:#485a83;}</style></defs><g id="Слой_2" data-name="Слой 2"><g id="Слой_1-2" data-name="Слой 1"><path class="cls-1" d="M198.31,200.36c33.2-4.94,68.82-2.88,98.88,13.29,25.26,13.6,46.12,37.77,51.64,66.39,1.56,8.11,2.16,16.71,0,24.76s-6.71,15.13-11.64,21.6a104.66,104.66,0,0,1-35.67,29.86C270.48,372.06,234,371.62,200,370.61c-35.48-1.06-71.46-4.95-104.95-17.35q-5.92-2.2-11.73-4.75c-1.33-.59-.18-2.55,1.15-2,31.83,13.92,66.56,19.29,101,21.18,16.84.92,33.79,1.31,50.65.67s33.6-2.6,49.55-8A104.31,104.31,0,0,0,326,335.8c11.58-11.48,22.24-26.18,22-43.13-.47-29.11-19.13-55.59-42.62-71.44-27.24-18.39-61.44-23.06-93.6-20.21-4.29.38-8.55.89-12.81,1.53-1.43.21-2-2-.6-2.19Z"/><path class="cls-1" d="M200,371.56c-43.82-1.31-76.28-6.68-105.26-17.41-3.79-1.41-7.76-3-11.78-4.77a1.85,1.85,0,0,1-1-2.53,2.18,2.18,0,0,1,2.89-1.18c27.8,12.16,59.79,18.87,100.7,21.11,18.79,1,35.33,1.24,50.56.67,19.79-.75,35.45-3.27,49.29-7.91a104.09,104.09,0,0,0,39.91-24.42c14.82-14.68,21.91-28.56,21.69-42.44-.42-26.3-16.59-53.38-42.2-70.66-30.61-20.66-67.46-22.31-93-20.05-4.12.36-8.41.87-12.75,1.52a2.16,2.16,0,0,1-2-.8,2.19,2.19,0,0,1-.37-2.14,1.84,1.84,0,0,1,1.5-1.14h0c38.22-5.68,72.62-1,99.47,13.4,27.39,14.74,46.87,39.8,52.12,67.05,1.9,9.84,1.9,18.08,0,25.19-2.34,8.77-7.54,16.33-11.8,21.93a105.94,105.94,0,0,1-36,30.13C278,369.3,251.57,372,222.53,372,215.18,372,207.65,371.79,200,371.56ZM198.45,201.3v-.05a.37.37,0,0,0,.1.27.23.23,0,0,0,.23.08c4.38-.65,8.7-1.16,12.86-1.53,25.83-2.28,63.15-.61,94.23,20.37,26.11,17.62,42.6,45.29,43,72.21.24,14.43-7,28.76-22.25,43.82A105.83,105.83,0,0,1,286,361.34c-14,4.71-29.84,7.26-49.81,8-15.3.58-31.9.36-50.74-.67-41.15-2.25-73.35-9-101.36-21.26a.23.23,0,0,0-.24,0c-.12.07-.16.19-.14.19h0c4,1.75,7.91,3.34,11.68,4.73,28.77,10.66,61,16,104.64,17.29,37.78,1.13,71.46.83,101.08-14.24a104.05,104.05,0,0,0,35.35-29.58c4.16-5.47,9.22-12.82,11.47-21.27,1.82-6.83,1.81-14.79,0-24.34-5.14-26.69-24.27-51.26-51.15-65.73C277.61,204.2,254.57,199,229,199A208.33,208.33,0,0,0,198.45,201.3Z"/><path class="cls-1" d="M205.18,200.25c-32.06,7.26-56.49,31-77.13,55.24C116.66,268.85,106,282.85,93.87,295.6c-4.86,5.13-10.94,10.46-18.2,11.5-6.71,1-12.46-2.67-16-8.16-9-13.88-6.82-33.77,1.67-47.27.78-1.24,2.75-.1,2,1.14-7.8,12.41-9.86,29.71-2.85,43,3.55,6.71,10,10.92,17.66,8.42,7.44-2.43,13-8.83,18.06-14.46,21.35-23.71,39.57-50.6,65.05-70.26,12.88-9.94,27.43-17.82,43.37-21.43,1.42-.32,2,1.86.6,2.19Z"/><path class="cls-1" d="M58.86,299.46c-10-15.46-6.15-35.87,1.67-48.3a2.06,2.06,0,0,1,2.92-.63,2,2,0,0,1,.65,2.79c-8.13,12.93-9.26,29.82-2.81,42,2.9,5.51,8.77,10.48,16.52,8C84.73,301,90.13,295,94.89,289.74l.56-.62c6.46-7.18,12.74-14.77,18.81-22.12,14-17,28.52-34.5,46.37-48.27,14.24-11,29-18.26,43.74-21.6a2.09,2.09,0,0,1,2.53,1.63,2,2,0,0,1-1.51,2.42h0c-32.51,7.36-57,31.9-76.62,54.93-3.82,4.49-7.64,9.13-11.32,13.61-7.3,8.88-14.84,18-22.89,26.54-4.64,4.9-11,10.67-18.75,11.79a16.84,16.84,0,0,1-2.23.16C67.86,308.21,62.47,305.05,58.86,299.46Zm146.32-99.21-.14-.95s0-.16-.25-.31c-14.51,3.28-29,10.43-43,21.25-17.68,13.64-32.11,31.1-46.07,48-6.08,7.36-12.38,15-18.86,22.17l-.56.63c-4.92,5.47-10.5,11.68-17.91,14.09s-14.63-1-18.8-8.88c-6.76-12.79-5.6-30.44,2.92-44,0,0-.1-.13-.38-.06-7.74,12.3-10.81,32.14-1.68,46.24,3.67,5.67,9.31,8.57,15.08,7.74,7.19-1,13.21-6.53,17.64-11.21,8-8.44,15.52-17.59,22.79-26.44,3.7-4.49,7.51-9.14,11.35-13.63,19.85-23.28,44.6-48.08,77.65-55.56Z"/><path class="cls-1" d="M63.64,252.34c-1-14.78-16.13-24.18-29.39-26.69-7.6-1.44-15.75-.4-21.2,5.54-4.51,4.9-6.34,11.82-6.84,18.32-1.12,14.66,3.6,30,10.38,42.83a106.77,106.77,0,0,0,30.06,35C60.7,338,76.94,345.45,93.89,350.13a1.14,1.14,0,0,1-.6,2.19C61,343.4,30.86,324,14.8,293.81,7.52,280.15,2.38,263.56,4.09,247.93c.71-6.51,2.72-13.16,7.16-18.13,5.13-5.76,12.8-7.65,20.28-6.84,15.45,1.68,33.22,12.43,34.38,29.38.1,1.46-2.17,1.45-2.27,0Z"/><path class="cls-1" d="M93,353.24c-36-9.94-64.1-30.89-79.07-59-8.51-16-12.35-32.45-10.82-46.43C4,240,6.49,233.7,10.53,229.16c4.88-5.47,12.57-8.07,21.1-7.15,16.2,1.76,34.05,13,35.23,30.26A1.92,1.92,0,0,1,65,254.38a2.13,2.13,0,0,1-2.32-2h0c-1-14.19-15.52-23.33-28.62-25.82-4.93-.93-14.13-1.49-20.32,5.25C9,237,7.57,244.32,7.16,249.58c-1,12.88,2.67,27.91,10.27,42.32a106.48,106.48,0,0,0,29.79,34.71c13.29,10.07,29.08,17.68,46.93,22.61a2,2,0,0,1,1.43,1.42,2.24,2.24,0,0,1-.58,2.12,1.94,1.94,0,0,1-1.38.56A2,2,0,0,1,93,353.24ZM34.43,224.71c13.8,2.62,29.12,12.36,30.16,27.56h0c0,.1,0,.14.11.17s.24,0,.26,0c-1.11-16.26-18.11-26.81-33.53-28.49-7.91-.86-15,1.52-19.47,6.52C8.18,234.67,5.85,240.59,5,248c-1.49,13.61,2.27,29.71,10.6,45.33,14.72,27.63,42.39,48.24,78,58a.26.26,0,0,0,0-.35c-18.08-5-34.09-12.7-47.57-22.92a108.52,108.52,0,0,1-30.33-35.34C8,278.07,4.25,262.67,5.26,249.44c.61-8,3.06-14.51,7.09-18.9,3.88-4.23,9.41-6.43,15.94-6.43A33.3,33.3,0,0,1,34.43,224.71Z"/><path class="cls-1" d="M176,280.2a64.93,64.93,0,0,0-26.26,12.49A66.14,66.14,0,0,0,139.39,303c-3.1,3.87-6.44,8.43-7.66,13.3-3.2,12.72,15.54,15.81,24.24,17.3,10.88,1.86,22.22,1.79,31.46-5,8.67-6.38,14-16.34,18.95-25.64.69-1.29,2.65-.15,2,1.14-4.9,9.22-10.17,18.87-18.48,25.48-9.28,7.38-20.7,8.26-32.08,6.59-6-.87-12.13-2-17.72-4.34-4.47-1.88-9.44-4.94-10.68-10-1.33-5.4,1.71-10.81,4.55-15.16a65.54,65.54,0,0,1,10-11.92A67.39,67.39,0,0,1,175.39,278c1.43-.32,2,1.87.61,2.19Z"/><path class="cls-1" d="M157.64,337.08c-5.94-.87-12.23-2-17.95-4.41-6.38-2.69-10.16-6.26-11.24-10.64-1.38-5.59,1.59-11.18,4.68-15.9A67.34,67.34,0,0,1,143.27,294a68.23,68.23,0,0,1,31.92-16.95,2.07,2.07,0,0,1,2.52,1.64,1.94,1.94,0,0,1-1.51,2.41h0a64.07,64.07,0,0,0-36.06,22.43c-3.21,4-6.33,8.32-7.49,12.93a8.33,8.33,0,0,0,1,6.91c3.93,6,15.88,8.08,22.29,9.18l.24,0c13.37,2.29,23.13.75,30.73-4.83,8.55-6.29,13.93-16.4,18.67-25.32a1.93,1.93,0,0,1,1.3-1,2.13,2.13,0,0,1,2.34,3.06c-4.46,8.4-10,18.84-18.72,25.77-6.33,5-14.07,7.52-23.5,7.52A64.41,64.41,0,0,1,157.64,337.08Zm49.58-33.71c-4.83,9.09-10.32,19.41-19.22,26-8,5.91-18.27,7.55-32.19,5.17l-.23,0c-6.7-1.15-19.18-3.28-23.57-10A10.25,10.25,0,0,1,130.8,316c1.25-5,4.51-9.51,7.85-13.66a65.93,65.93,0,0,1,37.14-23.1l.21.93-.15-.95s0-.16-.25-.31a66.37,66.37,0,0,0-31,16.48,65,65,0,0,0-9.85,11.75c-3,4.6-5.63,9.54-4.42,14.41.92,3.75,4.33,6.89,10.12,9.33,5.52,2.32,11.67,3.43,17.49,4.28,13.24,1.94,23.49-.15,31.35-6.4,8.4-6.68,13.85-16.94,18.23-25.36a.26.26,0,0,0-.19-.1A.12.12,0,0,0,207.22,303.37Z"/><path class="cls-1" d="M334.88,330.26a688.68,688.68,0,0,0-107.7-10.53q-15.13-.28-30.27.1a1.14,1.14,0,0,1,0-2.28,692.38,692.38,0,0,1,108.36,5.82q15.15,2,30.21,4.7c1.44.25.83,2.44-.6,2.19Z"/><path class="cls-1" d="M334.71,331.2h0a689.75,689.75,0,0,0-107.55-10.52c-9.89-.19-20.06-.15-30.23.1a2.09,2.09,0,0,1-.05-4.18,695.29,695.29,0,0,1,108.51,5.83c10,1.33,20.2,2.91,30.26,4.7a1.89,1.89,0,0,1,1.49,1.21,2.2,2.2,0,0,1-.42,2.13,2.1,2.1,0,0,1-1.62.76A2.56,2.56,0,0,1,334.71,331.2ZM196.78,318.6a.2.2,0,0,0,.1.27c10.2-.25,20.4-.28,30.31-.1A693.47,693.47,0,0,1,335,329.32h0a.22.22,0,0,0,.22-.07c.08-.1.1-.22.05-.24-10-1.79-20.18-3.36-30.17-4.69a683,683,0,0,0-90-6Q205.94,318.35,196.78,318.6Z"/><path class="cls-1" d="M129.64,322.05A169.47,169.47,0,0,0,68.57,341.5c-1.28.7-2.43-1.26-1.15-2a172.35,172.35,0,0,1,62.22-19.76c1.45-.17,1.44,2.1,0,2.27Z"/><path class="cls-1" d="M66.18,341.47a2,2,0,0,1,.79-2.76,172.53,172.53,0,0,1,62.56-19.88,1.89,1.89,0,0,1,1.75.71,2.21,2.21,0,0,1,.21,2.16,2.15,2.15,0,0,1-1.73,1.3h0A167.46,167.46,0,0,0,69,342.34a2.12,2.12,0,0,1-1,.26A2.06,2.06,0,0,1,66.18,341.47Zm63.35-20.37a.22.22,0,0,0,.2-.13.31.31,0,0,0,0-.24,170.47,170.47,0,0,0-61.94,19.69s0,.16.29.25a169.46,169.46,0,0,1,61.42-19.57Z"/><path class="cls-1" d="M203.26,199.41l17.62,0c3.59,0,8.54-.68,10.69,2.94a1.15,1.15,0,0,1-.68,1.67,37.35,37.35,0,0,1-26.11-1.94,1.14,1.14,0,0,1,.27-2.07,180.36,180.36,0,0,1,25.87-3.32l-.3,2.23a32,32,0,0,0-19.58-.41l.27-2.07c6.45,3.35,13.79,3.52,20.9,3.62l-.3,2.23a25.7,25.7,0,0,0-17.79-.71l.27-2.08a24.94,24.94,0,0,0,17.33,1.93c-.23.55-.45,1.11-.68,1.66-4.22-5.63-13.18-6.38-18.34-1.65-.17-.63-.34-1.27-.5-1.9a27.43,27.43,0,0,0,16.36.46c-.17.63-.33,1.27-.5,1.9a16.14,16.14,0,0,0-20.84-1c-.17-.63-.34-1.27-.5-1.9a47.35,47.35,0,0,0,24.05,2.36c-.16.63-.33,1.26-.5,1.9a19.18,19.18,0,0,0-21.93-3v-2a48.12,48.12,0,0,0,23.06,3.78l-1.1,1.44a3.17,3.17,0,0,0-4-1.75c-1.4.43-2-1.77-.6-2.19a5.48,5.48,0,0,1,6.76,3.33c.31.74-.45,1.39-1.09,1.44a50.49,50.49,0,0,1-24.2-4.09,1.14,1.14,0,0,1,0-2,21.5,21.5,0,0,1,24.68,3.37,1.15,1.15,0,0,1-.5,1.9,49.73,49.73,0,0,1-25.27-2.36c-.71-.26-1.22-1.31-.5-1.9a18.47,18.47,0,0,1,24.06.95,1.15,1.15,0,0,1-.51,1.9,29.58,29.58,0,0,1-17.57-.46,1.15,1.15,0,0,1-.5-1.9A15.12,15.12,0,0,1,233,201.92a1.15,1.15,0,0,1-.68,1.67,27.42,27.42,0,0,1-19.08-2.16,1.14,1.14,0,0,1,.27-2.07,27.72,27.72,0,0,1,19,.71c1.11.45,1.08,2.25-.3,2.23-7.54-.11-15.21-.38-22.05-3.93a1.15,1.15,0,0,1,.27-2.08,34.17,34.17,0,0,1,20.79.41,1.14,1.14,0,0,1-.3,2.23,176.11,176.11,0,0,0-25.26,3.24l.27-2.08a34.86,34.86,0,0,0,24.35,1.71c-.22.55-.45,1.11-.67,1.67-1.07-1.8-3.35-1.8-5.2-1.83-2.35,0-4.7,0-7,0l-14.1,0a1.14,1.14,0,0,1,0-2.27Z"/><path class="cls-1" d="M220.47,206.43a37.88,37.88,0,0,0,8.67-1l.51,0,.12.19.08-.2h.2v0c.47,0,.94,0,1.4-.09a2.37,2.37,0,0,0,1.77-1.08.43.43,0,0,0,0-.07,2.21,2.21,0,0,0,.72-1,2,2,0,0,0,.09-1.07,2.22,2.22,0,0,0,.12-.39,2.27,2.27,0,0,0-1-2.3l0-.3h-.69l-.05,0A2.11,2.11,0,0,0,232,196l.05-.36-.81.05a35.1,35.1,0,0,0-20.25-.54l-.42-.22,0,.35-.33.1a2.09,2.09,0,0,0-1,.66,16.54,16.54,0,0,0-1.68.85l-.1,0v.1c-.45.26-.88.54-1.31.83l-.75-.27.18.68-.34.27h-1.91a2.09,2.09,0,0,0,0,4.18h.67a2,2,0,0,0,.46.29l.19.09,0,.36.58-.12A38.76,38.76,0,0,0,220.47,206.43Z"/><path class="cls-1" d="M49.17,247.19a102.28,102.28,0,0,0-3.71,30.54,1.14,1.14,0,0,1-2.27,0A104.73,104.73,0,0,1,47,246.58a1.14,1.14,0,0,1,2.19.61Z"/><path class="cls-1" d="M42.23,277.76a105.63,105.63,0,0,1,3.83-31.43,2,2,0,0,1,1.43-1.44,2.23,2.23,0,0,1,2.11.59,2,2,0,0,1,.48,2h0a102,102,0,0,0-3.67,30.26,2,2,0,0,1-2,2.08h-.07A2.06,2.06,0,0,1,42.23,277.76Zm5.67-30.92a101,101,0,0,0-3.67,31c.12,0,.24,0,.27-.09a103.78,103.78,0,0,1,3.75-30.83v-.11a.17.17,0,0,0-.14-.06A.3.3,0,0,0,47.9,246.84Z"/><path class="cls-1" d="M35.34,245.32a86.1,86.1,0,0,0-1.65,24.23c.1,1.46-2.17,1.45-2.27,0a88.21,88.21,0,0,1,1.73-24.84c.3-1.42,2.49-.82,2.19.61Z"/><path class="cls-1" d="M30.47,269.62a89.14,89.14,0,0,1,1.75-25.1A1.93,1.93,0,0,1,34.59,243a2.12,2.12,0,0,1,1.68,2.53h0a85,85,0,0,0-1.63,24,1.91,1.91,0,0,1-1.84,2.11h-.16A2.13,2.13,0,0,1,30.47,269.62Zm3.94-24.5a.18.18,0,0,0-.06-.19c-.1-.08-.23-.09-.27,0a87.27,87.27,0,0,0-1.71,24.57c0,.1,0,.14.11.18s.24,0,.26,0a87,87,0,0,1,1.67-24.5Z"/><path class="cls-1" d="M22.82,241.41q-1,12.26-2,24.51c-.12,1.44-2.39,1.46-2.27,0q1-12.26,2-24.51c.12-1.45,2.39-1.46,2.27,0Z"/><path class="cls-1" d="M18.43,267.6a1.89,1.89,0,0,1-.79-1.76l2-24.51a2.15,2.15,0,0,1,2.36-2,1.91,1.91,0,0,1,1.82,2.11l-2,24.51a2.07,2.07,0,0,1-1.2,1.75,2.23,2.23,0,0,1-1,.22A2.12,2.12,0,0,1,18.43,267.6Zm3.19-26.29a.17.17,0,0,0-.12.17l-2,24.55a.36.36,0,0,0,.27,0,.19.19,0,0,0,.12-.18l2-24.51,0,0-.11,0A.32.32,0,0,0,21.62,241.31Z"/><path class="cls-1" d="M324.86,279a14.16,14.16,0,0,0,.5-12.59l1.79.23a14.33,14.33,0,0,0-4.08,16.24l-1.9-.5a10.83,10.83,0,0,0,3-11.87l1.4.8c-3.56,1.39-4,7-.85,9.06l-1.38.18a10,10,0,0,0,2.06-12.42l1.78.23a9,9,0,0,0-1.31,11.82h-2a9.8,9.8,0,0,0,1.19-9.6l1.9.5a8.77,8.77,0,0,0-2.86,8.8l-1.66-.68a5.78,5.78,0,0,0,1.44-7.44l1.79.23a2,2,0,0,0,0,2.8l-1.79.23a4.58,4.58,0,0,0,1.07-3.78l2.08.27a6.69,6.69,0,0,0-1.24,5.94l-1.9-.5a5.86,5.86,0,0,0,1.37-4l1.43,1.09A2.11,2.11,0,0,0,325,275c-1,1.1-2.57-.51-1.61-1.6a4.3,4.3,0,0,1,2.75-1.54,1.16,1.16,0,0,1,1.44,1.1,8.27,8.27,0,0,1-2,5.59,1.14,1.14,0,0,1-1.89-.5,8.84,8.84,0,0,1,1.47-7.7c.5-.68,1.9-.8,2.07.27a6.79,6.79,0,0,1-1.3,5.54,1.15,1.15,0,0,1-1.78.23,4.24,4.24,0,0,1,0-6,1.15,1.15,0,0,1,1.79.23,8.1,8.1,0,0,1-2.27,10.54,1.14,1.14,0,0,1-1.67-.68,11.06,11.06,0,0,1,3.44-11,1.16,1.16,0,0,1,1.9.5,11.88,11.88,0,0,1-1.42,11.36,1.16,1.16,0,0,1-2,0,11.18,11.18,0,0,1,1.67-14.57,1.14,1.14,0,0,1,1.78.23,12.25,12.25,0,0,1-2.41,15.17,1.16,1.16,0,0,1-1.38.17c-4.91-3.16-4-11.11,1.39-13.21a1.15,1.15,0,0,1,1.4.79,13,13,0,0,1-3.57,14.07,1.15,1.15,0,0,1-1.9-.5A16.52,16.52,0,0,1,325.54,265a1.15,1.15,0,0,1,1.78.23,16.61,16.61,0,0,1-.5,14.89c-.69,1.29-2.65.14-2-1.15Z"/><path class="cls-1" d="M322,285.21a2.07,2.07,0,0,0,1.42-.57c.21-.18.41-.37.61-.57l.63.16-.23-.58c.1-.12.21-.23.31-.36a2.27,2.27,0,0,0,.84-.47l.36-.33a2.43,2.43,0,0,0,.71-.65l.27-.41c.06-.06.11-.13.17-.2l.17-.14h.45l-.2-.28a2.26,2.26,0,0,0,.16-.26l.28-.53a13.18,13.18,0,0,0,1.81-9.15,17.52,17.52,0,0,0-.52-3.12l.12-.12-.16,0c-.11-.4-.23-.8-.37-1.19l.59-.5-.81-.11c-.12-.33-.26-.66-.41-1a1.83,1.83,0,0,0-1.29-1.06,2.37,2.37,0,0,0-2,.49c-.35.31-.7.63-1,.95h-.09l0,.07a17.58,17.58,0,0,0-4.28,17.24l-.33.3.46.12c.1.29.2.58.31.86a2.26,2.26,0,0,0,1.53,1.38A2.5,2.5,0,0,0,322,285.21Z"/><path class="cls-1" d="M322.23,329.51a522.62,522.62,0,0,1-93,16.68,519.88,519.88,0,0,1-95-.4c-18.45-1.78-36.88-4.5-55.47-3.87-1.46,0-1.46-2.23,0-2.28,16.33-.55,32.56,1.48,48.77,3.2,15.72,1.66,31.48,2.71,47.28,3a519.88,519.88,0,0,0,94.88-7,523.08,523.08,0,0,0,51.92-11.46,1.14,1.14,0,0,1,.6,2.19Z"/><path class="cls-1" d="M134.16,346.74c-4-.39-8.11-.83-12.16-1.26-14.13-1.52-28.75-3.09-43.19-2.61a2,2,0,0,1-2.08-2,2.07,2.07,0,0,1,2-2.2c14.65-.49,29.43,1.1,43.72,2.64l5.18.56c16.19,1.71,32.07,2.72,47.2,3a520,520,0,0,0,94.7-7,523.06,523.06,0,0,0,51.83-11.44,2,2,0,0,1,2,.49,2.21,2.21,0,0,1,.58,2.12,2,2,0,0,1-1.43,1.42,525.18,525.18,0,0,1-93.14,16.71c-15.1,1.32-30.28,2-45.45,2C167.26,349.12,150.64,348.33,134.16,346.74Zm135.71-7a522,522,0,0,1-95.06,7.06c-15.18-.27-31.11-1.27-47.36-3l-5.19-.55c-14.22-1.54-28.92-3.12-43.6-2.54,0,.12,0,.24.09.27,14.58-.49,29.26,1.09,43.46,2.62,4,.43,8.09.87,12.14,1.26a519.64,519.64,0,0,0,94.83.4A523.16,523.16,0,0,0,322,328.59l.1-.07c0-.08,0-.21-.2-.28A524.48,524.48,0,0,1,269.87,339.72Z"/><path class="cls-1" d="M328.22,333c-29.26,13.17-59.36,24.85-91.77,26.29-17,.76-34-.77-50.93-2.81-17.07-2.06-34.11-4.4-51.16-6.63l-58.05-7.58c-1.43-.19-1.45-2.46,0-2.27,33.75,4.41,67.5,8.89,101.26,13.22,16.6,2.12,33.28,4,50,4a179.43,179.43,0,0,0,48.87-6.78c17.41-4.92,34.12-12,50.59-19.39,1.32-.6,2.48,1.36,1.15,2Z"/><path class="cls-1" d="M185.41,357.42C173.27,356,161,354.32,149,352.74c-4.94-.65-9.87-1.31-14.81-1.95l-58-7.59a2.15,2.15,0,0,1-1.73-1.33,2.21,2.21,0,0,1,.23-2.15,1.85,1.85,0,0,1,1.75-.68L109,343.31q34.33,4.51,68.68,8.95c15.77,2,32.6,4,49.73,4h.19a179.08,179.08,0,0,0,48.61-6.75c17.68-5,34.7-12.24,50.46-19.34a2.17,2.17,0,0,1,2.89,1.14,1.86,1.86,0,0,1-1,2.56h0c-28.52,12.84-59.42,24.92-92.11,26.37-3,.14-6,.2-9,.2A355.35,355.35,0,0,1,185.41,357.42ZM328.22,333l-.37-.84a.32.32,0,0,0-.16-.24.2.2,0,0,0-.23,0c-15.83,7.12-32.93,14.41-50.72,19.44a181.67,181.67,0,0,1-49.13,6.82h-.18c-17.25,0-34.84-2.07-50-4q-34.35-4.39-68.69-8.94-16.29-2.15-32.56-4.33a.39.39,0,0,0,0,.29.23.23,0,0,0,.2.14l58,7.59q7.41,1,14.81,2c11.91,1.58,24.22,3.21,36.35,4.67,15.16,1.83,33.05,3.6,50.77,2.81,30.57-1.36,58.66-11.46,91.42-26.21Z"/><path class="cls-1" d="M231,191.35c3.37-23.87,21-42.46,26.33-65.71.32-1.42,2.51-.82,2.19.61-5.33,23.25-23,41.85-26.33,65.71-.21,1.44-2.4.83-2.19-.61Z"/><path class="cls-1" d="M232,193.71a2.21,2.21,0,0,1-1.92-2.49h0c1.83-13,7.88-24.5,13.72-35.66,5-9.57,10.18-19.46,12.63-30.13a2,2,0,0,1,2.42-1.5,2.07,2.07,0,0,1,1.62,2.53c-2.5,10.91-7.73,20.92-12.8,30.6-5.76,11-11.73,22.41-13.51,35a1.83,1.83,0,0,1-1.85,1.64A1.67,1.67,0,0,1,232,193.71Zm26.29-67.86c-2.51,10.92-7.74,20.92-12.8,30.59-5.77,11-11.73,22.42-13.52,35.05h0a.23.23,0,0,0,.08.23.33.33,0,0,0,.22.1c1.83-12.94,7.87-24.48,13.71-35.65,5-9.57,10.19-19.46,12.58-30.32a.23.23,0,0,0-.15,0C258.36,125.8,258.32,125.81,258.3,125.85Z"/><path class="cls-1" d="M202.26,197.8a146.79,146.79,0,0,0-24.77-81c-.82-1.22,1.15-2.36,2-1.15a149,149,0,0,1,25.08,82.13,1.14,1.14,0,0,1-2.27,0Z"/><path class="cls-1" d="M202.31,199.57a2,2,0,0,1-1-1.76,145,145,0,0,0-24.61-80.46,1.92,1.92,0,0,1,.56-2.76,2.12,2.12,0,0,1,3,.55,151,151,0,0,1,25.25,82.66,2,2,0,0,1-1,1.76,2.12,2.12,0,0,1-1.1.3A2.2,2.2,0,0,1,202.31,199.57Zm-23.83-83.46c-.13,0-.22.1-.2.17a146.91,146.91,0,0,1,24.94,81.52h-1l1,.11a.23.23,0,0,0,.32-.1,149.08,149.08,0,0,0-24.92-81.61.17.17,0,0,0-.15-.09Z"/><path class="cls-1" d="M272,116.08c5.89,3,11.83-1.14,15.54-5.59s6.7-9.6,7.38-15.26c.64-5.46-1.16-11.25-5.85-14.42-4.41-3-10-3.51-15.17-3.89-.79-.06-1.52-1-1-1.71,6.68-9.55,1.48-21.62-7.5-27.47-4.85-3.17-11-5-16.72-3.72a15,15,0,0,0-11.2,9.8c-.44,1.38-2.63.79-2.19-.61A17.19,17.19,0,0,1,247.1,42.07c6.37-1.81,13.33-.08,18.85,3.33,10.28,6.35,16.48,20.13,8.9,30.95-.33-.57-.66-1.14-1-1.71,6.08.45,12.72,1.16,17.62,5.18,4.74,3.89,6.42,10.29,5.57,16.2-1.53,10.69-13.52,28.47-26.24,22-1.3-.66-.15-2.62,1.15-2Z"/><path class="cls-1" d="M270.39,118.89a1.92,1.92,0,0,1-1.09-1.62,2.22,2.22,0,0,1,1-1.94,2.06,2.06,0,0,1,2.09-.1h0c6.46,3.27,12.64-3.27,14.38-5.35,4.12-4.94,6.6-10,7.16-14.77.67-5.61-1.42-10.79-5.43-13.51-3.78-2.56-8.58-3.24-13.62-3.65l-.12.18-.12-.2-.85-.06a2.28,2.28,0,0,1-1.86-1.28,1.91,1.91,0,0,1,.16-1.93l.37-.54-.32-.56.63,0a15.53,15.53,0,0,0,1.88-11.09,22.37,22.37,0,0,0-9.79-14c-5.19-3.38-11-4.69-16-3.58a14,14,0,0,0-10.49,9.15,2,2,0,0,1-1.52,1.41,2.25,2.25,0,0,1-2.09-.65,1.94,1.94,0,0,1-.4-1.94,18.09,18.09,0,0,1,12.47-11.77c6.11-1.73,13.26-.48,19.61,3.44a27,27,0,0,1,12.28,17,19.36,19.36,0,0,1-1.4,12.4c5.34.56,10.64,1.7,14.76,5.09,4.62,3.78,6.88,10.33,5.92,17.08-1.1,7.62-7.17,18.39-15.08,22.5a14.23,14.23,0,0,1-6.58,1.7A13.06,13.06,0,0,1,270.39,118.89Zm5.74-42.75c4.91.45,9.58,1.26,13.45,3.88,4.61,3.12,7,9,6.25,15.32-.61,5.16-3.16,10.46-7.59,15.76-5.25,6.29-11.5,8.48-16.7,5.83a.16.16,0,0,0-.2,0c-.1.07-.14.2-.09.25a11.27,11.27,0,0,0,10.8-.22c7.14-3.71,13-13.9,14.07-21.09.87-6.09-1.13-12-5.24-15.33-4-3.25-9.08-4.23-14.54-4.74A3,3,0,0,1,276.13,76.14ZM247.36,43a16.18,16.18,0,0,0-11.19,10.58s.14.09.39,0a15.9,15.9,0,0,1,11.9-10.44c5.48-1.21,11.84.19,17.45,3.85a24.23,24.23,0,0,1,10.62,15.22,17.42,17.42,0,0,1-1.65,11.61l.41,0A17.46,17.46,0,0,0,276.86,62,25.83,25.83,0,0,0,252.48,42.3,18.55,18.55,0,0,0,247.36,43Z"/><path class="cls-1" d="M214.71,75.44c-7.09-2.26-16.14-5-22.91-.43A14.79,14.79,0,0,0,186,84a23.32,23.32,0,0,0-.57,5.65c0,1.35,0,2.71-1,3.77-2,2.19-5.38.66-7.9.9-3.43.32-6,3.19-7.35,6.13a15.72,15.72,0,0,0-.78,11.36c1.37,4.16,5.5,7.34,9.92,5.6,1.36-.54,1.95,1.66.61,2.19-6.16,2.42-11.82-2.74-13.08-8.54s.31-12.41,4.75-16.37A9.93,9.93,0,0,1,177.7,92c1.28.06,3.08.68,4.32.21,1.8-.69,1.09-4.34,1.26-5.92.69-6.17,3.89-12,9.78-14.57,7.08-3.05,15.29-.73,22.25,1.49,1.39.44.8,2.63-.6,2.19Z"/><path class="cls-1" d="M171.28,120a13.27,13.27,0,0,1-6.37-8.75c-1.39-6.41.64-13.35,5.05-17.28a11,11,0,0,1,7.79-2.89,12.21,12.21,0,0,1,1.46.19,5.67,5.67,0,0,0,2.47.08c.71-.28.66-2.28.63-3.47,0-.64,0-1.23,0-1.67.81-7.16,4.67-12.89,10.35-15.34,7.19-3.09,15.27-1,22.92,1.46A2,2,0,0,1,217,73.86a2.24,2.24,0,0,1-.65,2.09,2,2,0,0,1-1.94.4c-6.56-2.09-15.54-4.95-22.09-.55a13.86,13.86,0,0,0-5.42,8.43,22.91,22.91,0,0,0-.54,5.42c0,1.44,0,3.08-1.25,4.42-1.72,1.84-4.05,1.57-6.12,1.33a11.2,11.2,0,0,0-2.39-.13c-3.71.35-5.83,4-6.58,5.59a14.79,14.79,0,0,0-.74,10.65,8.26,8.26,0,0,0,4.11,4.88,5.65,5.65,0,0,0,4.56.13,1.88,1.88,0,0,1,2.51,1.09,2.19,2.19,0,0,1-1.2,2.87,9.25,9.25,0,0,1-8-.47Zm7.38-1.72a7.46,7.46,0,0,1-6.07-.18,10.12,10.12,0,0,1-5.11-6,16.71,16.71,0,0,1,.83-12.06c.88-1.86,3.44-6.23,8.12-6.67a13.21,13.21,0,0,1,2.8.13c1.84.22,3.44.4,4.5-.73.73-.79.73-1.87.73-3.12a25.08,25.08,0,0,1,.59-5.87,15.82,15.82,0,0,1,6.22-9.57c7.3-4.9,17.19-1.76,23.73.32l.07,0s.09-.14,0-.39c-7.31-2.33-15-4.36-21.58-1.52-5,2.16-8.49,7.32-9.21,13.79a10.77,10.77,0,0,0,0,1.41c0,1.92.11,4.54-1.86,5.3a6.87,6.87,0,0,1-3.46,0,10.73,10.73,0,0,0-1.24-.17,8.94,8.94,0,0,0-6.43,2.41c-3.91,3.49-5.7,9.7-4.46,15.45a11.31,11.31,0,0,0,5.41,7.48,7.43,7.43,0,0,0,6.39.38.22.22,0,0,0,.15-.18c0-.13,0-.24-.05-.24Z"/><path class="cls-1" d="M275,84.27c5.78,6.17,3.78,17.37-4,20.92-1.32.61-2.48-1.35-1.15-2,6.39-2.92,8.4-12.17,3.53-17.35-1-1.07.6-2.68,1.61-1.61Z"/><path class="cls-1" d="M268.53,104.94a1.88,1.88,0,0,1,1-2.58A10,10,0,0,0,275,95.08a9.6,9.6,0,0,0-2.25-8.55,2,2,0,0,1-.48-2A2.2,2.2,0,0,1,273.82,83a1.93,1.93,0,0,1,1.89.6A14.15,14.15,0,0,1,279,96a13.85,13.85,0,0,1-7.6,10,2.13,2.13,0,0,1-.9.2A2.23,2.23,0,0,1,268.53,104.94Zm5.58-19.72a11.64,11.64,0,0,1,2.72,10.23,11.81,11.81,0,0,1-6.58,8.63.33.33,0,0,0,.15.23.22.22,0,0,0,.23,0,11.92,11.92,0,0,0,6.51-8.67,12.23,12.23,0,0,0-2.82-10.74l-.06,0h0S274.12,84.94,274.11,85.22Z"/><path class="cls-1" d="M244,139.23a171.15,171.15,0,0,0-17.77,43.46,1.13,1.13,0,0,1-2.18-.6,173,173,0,0,1,18-44,1.14,1.14,0,0,1,2,1.15Z"/><path class="cls-1" d="M224.67,184.38a2.05,2.05,0,0,1-1.54-2.53,174.64,174.64,0,0,1,18.09-44.25,2,2,0,0,1,1.74-1,2.3,2.3,0,0,1,1.9,1.1,2,2,0,0,1,0,2h0a170.41,170.41,0,0,0-17.66,43.21,2,2,0,0,1-1.95,1.53A2.08,2.08,0,0,1,224.67,184.38Zm18.2-45.82A169,169,0,0,0,225,182.49a.2.2,0,0,0,.29,0,172.14,172.14,0,0,1,17.86-43.7l0-.12a.22.22,0,0,0-.19-.1Z"/><path class="cls-1" d="M431.91,30.59A26.74,26.74,0,0,0,418.83,17.5,25.24,25.24,0,0,0,408,15.33l-.05-3a28.31,28.31,0,0,1,12.15,2.43,29.69,29.69,0,0,1,14.57,14.55Z"/><path class="cls-1" d="M434.76,30.11l-3-.32c.29-2.58,2.3-15.87,14.48-24.12A34.27,34.27,0,0,1,472.77.85l-.69,2.92a31.19,31.19,0,0,0-24.15,4.39C436.85,15.66,435,27.76,434.76,30.11Z"/><path class="cls-1" d="M355,130.05a14.43,14.43,0,0,0-7.05-7.07,13.73,13.73,0,0,0-5.87-1.17l-.05-3a16.68,16.68,0,0,1,7.14,1.43,17.46,17.46,0,0,1,8.55,8.53Z"/><path class="cls-1" d="M357.82,129.57l-3-.32a20.23,20.23,0,0,1,8.45-14.08,20,20,0,0,1,15.5-2.82l-.7,2.92A16.9,16.9,0,0,0,365,117.65,17.19,17.19,0,0,0,357.82,129.57Z"/><path class="cls-1" d="M24,32.05A26.74,26.74,0,0,0,10.93,19,25.24,25.24,0,0,0,.05,16.79l0-3a28.38,28.38,0,0,1,12.16,2.43A29.7,29.7,0,0,1,26.72,30.77Z"/><path class="cls-1" d="M26.86,31.57l-3-.32c.28-2.58,2.29-15.87,14.47-24.12A34.27,34.27,0,0,1,64.87,2.31l-.69,2.92A31.19,31.19,0,0,0,40,9.62C29,17.13,27.11,29.23,26.86,31.57Z"/><path class="cls-1" d="M120,65.05A26.74,26.74,0,0,0,106.93,52a25.24,25.24,0,0,0-10.88-2.17l0-3a28.38,28.38,0,0,1,12.16,2.43,29.7,29.7,0,0,1,14.56,14.55Z"/><path class="cls-1" d="M122.86,64.57l-3-.32c.28-2.58,2.29-15.87,14.47-24.12a34.27,34.27,0,0,1,26.52-4.82l-.69,2.92A31.19,31.19,0,0,0,136,42.62C125,50.13,123.11,62.23,122.86,64.57Z"/><path class="cls-1" d="M44,113.46A14.42,14.42,0,0,0,37,106.39a13.56,13.56,0,0,0-5.86-1.17l-.06-3a16.5,16.5,0,0,1,7.14,1.43,17.37,17.37,0,0,1,8.55,8.53Z"/><path class="cls-1" d="M46.87,113l-3-.32a20.26,20.26,0,0,1,8.45-14.09,20,20,0,0,1,15.49-2.81l-.69,2.91A16.51,16.51,0,0,0,46.87,113Z"/></g></g></svg>