<svg xmlns="http://www.w3.org/2000/svg" viewBox="0 0 221.96 140.86"><defs><style>.cls-1{fill:#57585b;}</style></defs><g id="Слой_2" data-name="Слой 2"><g id="Слой_1-2" data-name="Слой 1"><path class="cls-1" d="M220.12,64.9c.11.29.3.1.14-.7l-.41-.53Z"/><path class="cls-1" d="M219.74,59.4c-.38-.9-.91-1.89-1.06-1.21.53.84.46,1.09,1.07,2,.24.78.22,1.41.06,1.3.13.27.12,1.26.39,1.66a8,8,0,0,0-.07-1.8,12.1,12.1,0,0,0-.61-2C219.51,59.09,219.67,59.35,219.74,59.4Z"/><path class="cls-1" d="M161.17,8.65l.48.21A3.79,3.79,0,0,0,161.17,8.65Z"/><path class="cls-1" d="M112.05.43c.38,0,.54,0,.56-.07C112.26.38,112,.4,112.05.43Z"/><path class="cls-1" d="M103.48.49l.51,0A2,2,0,0,0,103.48.49Z"/><path class="cls-1" d="M161.17,8.65l-1.23-.53C159.82,8.19,160.56,8.42,161.17,8.65Z"/><path class="cls-1" d="M215.06,49.48a4.15,4.15,0,0,0,.41.58l-.35-.57Z"/><path class="cls-1" d="M181.55,17.06l.36.2a2.2,2.2,0,0,0,.36,0Z"/><path class="cls-1" d="M196,26a.87.87,0,0,0-.77-.07,2,2,0,0,1,.79.33S196,26.15,196,26Z"/><path class="cls-1" d="M214.16,45.66l.28.38Z"/><path class="cls-1" d="M170.59,11.86a.31.31,0,0,0-.11-.16S170.51,11.79,170.59,11.86Z"/><path class="cls-1" d="M217,83.62s0,0,0,0S217.07,83.51,217,83.62Z"/><path class="cls-1" d="M220.85,64.83l0,.27a.32.32,0,0,0,.16,0Z"/><path class="cls-1" d="M87.88,2.39H88C88.35,2.27,88.13,2.32,87.88,2.39Z"/><path class="cls-1" d="M7.88,96.78c-.82-1.44,1.91,1.9.6-.21C8.54,96.82,6.74,95.07,7.88,96.78Z"/><path class="cls-1" d="M214.89,49.08l-.32-.6C214.71,48.76,214.81,48.94,214.89,49.08Z"/><path class="cls-1" d="M8.48,96.57h0l-.14-.22Z"/><path class="cls-1" d="M53.72,14.09a1.16,1.16,0,0,0,.39,0S54,14,53.72,14.09Z"/><path class="cls-1" d="M79.05,5.1l-.65.14A5.5,5.5,0,0,0,79.05,5.1Z"/><path class="cls-1" d="M41.59,21a4.6,4.6,0,0,0-.86.48l.15-.05A2.54,2.54,0,0,1,41.59,21Z"/><path class="cls-1" d="M29.52,29.12l.25-.11.37-.29Z"/><path class="cls-1" d="M191.76,118.1a2.48,2.48,0,0,1,.66-.23C192.13,117.86,193.67,116.44,191.76,118.1Z"/><path class="cls-1" d="M215.19,49.39a.68.68,0,0,1-.3-.31l.23.41C215.18,49.51,215.22,49.5,215.19,49.39Z"/><path class="cls-1" d="M42.22,23.23c-.66.36-1.3.77-1.95,1.16Z"/><path class="cls-1" d="M93.38,137.56l.52,0A1.89,1.89,0,0,0,93.38,137.56Z"/><path class="cls-1" d="M34.66,28.13a7.32,7.32,0,0,0-1.16.57,1.09,1.09,0,0,0-.17.22C33.76,28.64,34.22,28.39,34.66,28.13Z"/><path class="cls-1" d="M192.43,117.87h0Z"/><path class="cls-1" d="M202.57,106.92c-1.42,1.61-.39,1-.54,1.48-1.65,2-1,.7-1.73,1.22-1,1.24-1.65,2.36-2.52,3.2-.1,0-.28.17-.14-.08a19.87,19.87,0,0,1-2.36,2.49,25.16,25.16,0,0,0-2.59,2.54,1,1,0,0,1-.26.1c.36-.07.52,0,.56.18-.73.64-1.22,1.37-1.65,1.42a2.14,2.14,0,0,0,.59-.74l-.7.75c-.92.33,1-1,.81-1.2a30.73,30.73,0,0,1-4.42,3.8c-.45-.09,2.8-2.2,1-1.24l2-1.29c-1.77.65,1.15-.83-.51-.29-1.27.87-1.93,1.41-2.6,1.95a15.92,15.92,0,0,1-2.65,1.88c-.48.53.35.12-.13.64a9.35,9.35,0,0,1-3.32,1.79,5.85,5.85,0,0,0-2.63,1.22c-.31.3-.49.58-.86.89a5.29,5.29,0,0,1-2,1.05l.55-.66c-2.74,1.17-1.33,1.19-4.29,2.23.45-.36,2.09-1.07,1.66-.93-2,.53-1.2.83-2.67,1.37l-.43-.2c-1.49.55-3,1.27-4.62,1.84s-3.27,1.21-5,1.66c.16-.15.72-.39-.11-.3a69.93,69.93,0,0,1-13.57,2.41c-.53.19-1.06.33-1.6.49-.38,0-.72-.05-.31-.15-1.68.08-.07.19-.86.4-.94.13-1.27,0-.68-.18a56,56,0,0,1-11.52,1.13l.6-.13c-2.44,0-2.72.72-5,.55l.43-.07c-5.3.05-11.17.42-15.23,0-.76.44-5.24-.16-5.58.41-3-.32-2.16-.41-6.39-.74-1.14,0-1.71.3-3.12.28v-.31L96.2,138l-1-.43c-.44,0-.88,0-1.32,0,.52.06,1.1.24,1,.31a17.59,17.59,0,0,1-5-.82c-1.62-.08-3.23-.23-4.85-.34a6.31,6.31,0,0,1,1.59,0c-2.62,0-.43-.38-2.82-.4.31.11-.2.16-.26.22a40.15,40.15,0,0,0-5.77-1.09l.42-.15-5.52-1.14c-1-.18-1.92-.42-2.88-.67l-2.91-.77c1.37.47,1,.74-.2.46l-.37-.43c-.79,0,1.16.44-.42.26-1.45-.43-.87-.62,0-.49-.61-.11-1.19-.27-1.78-.43-.08-.13.35,0,.49-.13-.78,0-2.89-1.3-4-1.31l-.07-.12c-1.92-.59-3.25-1.2-4.54-1.65s-2.5-.89-4-1.56c-.17.23-1.31-.38-2.29-.59l-3.36-1.81c-1.15-.68-2.33-1.43-3.61-2.12-1.85-.88-.64-.08-1.52-.39,0-.28-2.54-1.72-1.14-1.12l-3.46-2.17L34.88,118c-.65-.39-1.43-.83-2.32-1.48.32.37.72.74.45.64-.66-.45-1.39-1.2-1.22-1.23l.18.11a35.53,35.53,0,0,1-3.15-2.37c-.53-.43-1.06-.87-1.58-1.34l-1.52-1.42a49.72,49.72,0,0,0-5.55-4.82l.18.12c-1.08-.83-2.16-1.68-3.22-2.55-1.34-1.32,1,.63.05-.44-3.49-2.74-4.86-4.95-7.34-7.56a20.7,20.7,0,0,0-1.4-2.4c-.3-.47-.65-.94-1-1.46s-.66-1-1-1.59a20.64,20.64,0,0,1-2.8-6.43l-.1.25a4.37,4.37,0,0,1-.43-1.8c-.12.14.16,1-.12.5a25.85,25.85,0,0,1-.72-12.26A40.5,40.5,0,0,1,6.44,58.65a6,6,0,0,0,.84-2.39,5.44,5.44,0,0,1,1.5-2.74l-.31,1.11c2.9-5.53,7.44-10.34,11.58-14.86a3,3,0,0,1-.56.82c1.05-.77,3.48-3.29,3.35-3.47.73-.63.29,0,.79-.33,1.08-.74,2.27-2.37,3-2.64.11,0-.23.29-.4.47.56-.66,3.1-2.46,2.29-2.17,1.86-1.37,3.45-2.77,5-3.75.81-.94,3.35-2.11,3.42-2.7.1.45,3.61-1.88,4.75-2.83-.35.36,1.17-.52.77-.07,1.44-.85,2.71-1.7,2.35-1.75,2.94-1,5.22-3.37,7.1-3.51A112.35,112.35,0,0,1,64.5,11.66c0,.43-4.57,1.91-4.2,2.28,1.91-.92,3.4-1.7,4.92-2.37.76-.35,1.52-.69,2.35-1s1.71-.63,2.72-1-.52.39-.85.59c1-.4,2-.76,2.93-1.1s1.94-.61,2.89-.9c1.9-.62,3.76-1.11,5.55-1.72a3.51,3.51,0,0,1-.74.33c.71-.21,1.68-.39,1.55-.57l-.69.24c-.61,0,.07-.33.91-.7S83.7,5,83.74,5c-1.09.86,3.67-.71,1.89.47.46-.15,1-.38.9-.49.72-.13,1-.1.27.22,2.58-.65,1.62-.66,4-1.13,0,.1-.47.23-.69.39C90.68,4.2,91.27,4,92,3.79a18.34,18.34,0,0,1,2.51-.45c-.11.08.13.12-.47.21,1.73-.29,3.18-.66,4.7-.92a29.27,29.27,0,0,1,5-.6c-1.09.52,1.32,0,1.55.4.68-.08,1.36-.2,2-.25-.28-.05-.56-.11-.84-.14,1.8-.09,3.4-.4,5-.34l-1.34.2c1.12-.08,2.25-.1,3.39-.12l-1.93-.14c1.84-.2-.2-.47,2.22-.37a25.43,25.43,0,0,1,2.76.24h0a14.12,14.12,0,0,1,3.17,0c.35.13-.3.4-.07.49.9-.32,4.24.18,5.38-.08-.38.05-.41.25-.29.29l.76-.2c.83.16,1,.22.8.36,2.51.31-.76-.56,2.21,0a3.65,3.65,0,0,1-.62,0c1.49.21,2.94.32,4.36.5a37.53,37.53,0,0,1,4.16.6c.75.5-2.4-.3-1.53.16a107.29,107.29,0,0,1,12,2l-.69-.2c.64-.38,2.75.88,4.69,1.17-.47-.09-.68.12-.54.1,1.26.39,2.58.7,4.06,1s3.13.77,5.06,1.31l-.51,0c1.43.64,3.87,1.36,5.42,2,.51,0,1.41.41.93,0a48,48,0,0,0,6.88,2.94,29.61,29.61,0,0,1,6.33,3c-.49-.24-1.22-.48-.83-.28,1.18.55,2.38,1.07,3.55,1.66-.17-.35-.38-.38-1-.9a9.66,9.66,0,0,1,2.39,1c-1.62-.71-.16.34.44.81-.07-.12.19-.06.17-.16,1.59,1.37.56-.28,2.83,1.4l-.19,0c.93.49,1.85.85,2.8,1.46.26.47-1-.47-1.2-.32,1.38.78,2.92,1.26,4,2.26-.61-.31-1.42-.84-2-1.15a12.6,12.6,0,0,0,2.28,1.83l-.09-.07c.73.52,1.41,1.1,2.11,1.65l-.51-.46a9.12,9.12,0,0,1,2.75,1.49,20.71,20.71,0,0,0,3,2.09c-2.32-1.28-.5-.07-.84,0,.48.48,1.22,1.2.94,1.09,1.11.63,1.45,1.51,3,2.41,0,.12,1,.94.6.92,1.22,1.07-.17-.39,0-.39,2.06,1.51,4,4.39,6.57,6.91l1.36,1.4,1,1.06a19.1,19.1,0,0,1,2.11,2.48c.39.92-.73-.49-.73-.49a34,34,0,0,0,2.22,3.65c-.22-.22-.14.09,0,.54.58,1,.68.54,1.29,2a5.4,5.4,0,0,1-.9-.88c.77,1.18,1.42,2.4,2.1,3.7,0,.42-.59-.71-.89-1.13.33.74.86,1.67,1.17,2.52a7.27,7.27,0,0,0,.89,1.76l-.24-1c.2.56-.12.36-.31,0a5.48,5.48,0,0,1-.52-1.45,1.15,1.15,0,0,1,0-.59,8.18,8.18,0,0,1,.44,1c.15-1.21-1.65-3.86-2.66-5.67l.77.58-1.31-1.75c-.13-.44-.08-.85.48,0-.57-1.42-.82-1.07-1.3-2.3,0-.14,0-.1.09,0l-.89-1.19c.22.19.11-.38.54.43a12.68,12.68,0,0,0-1.89-2.67,7.51,7.51,0,0,1-1.19-1.64l.16.15c-2.46-2.76-.47-.09-2.5-2-.19-.65-.45-1.25-.68-1.88l-.47-.06c-.25-.29-.75-.86-.57-.84-1.11-.89.07.27-.63-.19a15.88,15.88,0,0,0-2.25-2.36c-.78-.76-1.42-1.39-1.43-1.7-.65-.25,1.21,1.28-.38.12-.08-.75-1.75-1.43-2.88-2.67.59.09,1.68,1.27.57,0-1.09-.26-2.49-2.11-3.69-2.89-.13.13-.78-.29-1.64-.9a34.28,34.28,0,0,0-3-2,13.7,13.7,0,0,0-2-1.47c-1.16-.8-2.61-1.7-3.52-2.33l.09,0c-.54.07-2.51-1.07-4-1.79.16-.17.46-.1,1.3.24l-1.37-.74a9.85,9.85,0,0,1-1.76-.67l.48-.07c-1.87-.91-3.87-1.6-6.23-2.85-.24.18,1.62,1.53-1,.52,0-.17,0-.43.66-.18a6.82,6.82,0,0,1-1.25-.5l1.12.25c-1.06-.6-.66-.09-1.53-.51.1-.17-.61-.4-.42-.49.24.07.75.4,1.12.49a17.5,17.5,0,0,1-2.51-1.39c0,.14-.1.24-.85,0-1.92-.78-.57-.5-1.65-1.05-.52,0-1.71-.65-1.85-.39a1.84,1.84,0,0,1-.81-.54c-1-.29-4.74-1.63-3.7-.95L162,9l-.17,0h0c-.86-.22-1.71-.48-2.57-.77l-2.58-.86a44.32,44.32,0,0,0-5.14-1.56l0-.1a59.76,59.76,0,0,0-6-1.2c-.6-.15-1.38-.48-1.1-.55a22,22,0,0,1-4-.79c1.6.15-.51-.26,1.63.2a17.35,17.35,0,0,0-4.68-.84c.79-.11-1.48-.59-2.47-.65.47.12.94.27,1.41.41l-3-.46.57-.26a24.59,24.59,0,0,0-3-.49C130,1,129,1,128.12.92s-1.75-.06-2.59-.13a12.31,12.31,0,0,1-2.44-.4c-1.14.15,2.28.32,1.26.52C122.42.73,120.41.1,119.8.1c-2.67-.25-2.51.34-5.3.23.36.12.69.44-1.39.55-1.94,0-2.4-.49-1.17-.59.47,0,.69,0,.67.07.63,0,1.46-.1.69-.23L113,.25c-1-.15-3.66,0-3-.25-1.47.17-.62.22.47.24C108,.16,106.57.36,104,.47c.41,0,.8.14.39.18-3.78.15-1.64.32-4.18.66-1.46,0,.47-.49-2.07,0-1.58.06-.37-.28.24-.45a31.31,31.31,0,0,1-3.22.45c-1,.08-1.83.11-2.5.2l1.21-.29c-.72.17-1.33.26-1.94.36l.74.12a4.32,4.32,0,0,1-1.34.08c-.7.3.64.28-.78.78-1,.06-2.87.69-3.26.45,3-.49-.4-.25,2.13-.8a13,13,0,0,1-1.81.35c-.11,0,.09-.08.28-.14-2.92.3-1.24.63-4.19,1.3.34-.26-.76-.17-1.23,0,1.19-.28.64.15-.42.54a21,21,0,0,0-3,.89l1.14-.24a11.61,11.61,0,0,1-2.56.92c-.15-.11,1.16-.42.68-.35C76.94,6.1,75,6.08,73,6.89c-1,.17-.19-.29-1-.12-2.15,1-2.48.6-4.75,1.59.75,0,.84-.12-.7.7,1.24-.53,2.5-1,3.76-1.5L68,8.74c1.15-.4,2.38-1,3.09-1.19-1.11.59-1,.49-.39.49C69,8.26,67.6,9.29,65.73,9.77l-.15-.57c-2.82.77-4.7,2.16-8.21,3.53.37-.15.76-.27,1.15-.39a34.56,34.56,0,0,1-3.18,1.58c0-.23-.7,0-1.23.13.11.08-2.5,1.19-2.62,1.7l-1.63.53c-2.76,1.29-2.8,2.12-5.39,3.46.65-.63-.58-.1,1.07-1.18-.87.46-1.64.88-1.59,1-.55.19-2.2,1.61-3.07,1.9a4.61,4.61,0,0,1-1.25,1.1c-.12,0-.05-.09-.05-.09s-1.38,1-.45.71c-2.91,1-7,4.67-9.36,5.83-.85.65-1.74,1.41-2.62,2.15s-1.77,1.44-2.48,2.09c0-.12-.06-.08.23-.3-2.13,1.62-.89,1.48-3.28,3.35-1.35.83,1.06-1.23.27-.66-.37-.09-1,.55-1.81,1.36a23.41,23.41,0,0,1-2.51,2.4l.31-.38a13.82,13.82,0,0,0-1.94,2c-.69.84-1.39,1.84-2.26,2.77,0,0,0-.13-.07-.07-.47.75-1.17,1.81-1.95,2.92S10.07,49,9.4,50c.23-.77.54-1,.06-.76-.62.92.52,0-.69,1.81-.53.51-1.45,1.8-1.81,1.83l1.1-1.78c-.86.72-1.43,2.3-2.05,3.21l-.07-.21c-1.48,2.86-1.21,3-2.63,6.18L3.57,60A5.64,5.64,0,0,1,3,61.63a4.39,4.39,0,0,0-.59,1.61l-.56.41a57,57,0,0,0-1.08,6.5,24.46,24.46,0,0,1,.11-2.64c.15-1,.36-2,.49-2.85-.17.59-.44,1.62-.66,2.57a11.3,11.3,0,0,0-.21,2.21,8.55,8.55,0,0,1,.21-1.61,21.19,21.19,0,0,1-.12,2.65c0,1-.06,2.1-.17,3.31C0,73.56,0,75.17,0,77.07c.07,1,.21,2,.28,2.85a13,13,0,0,1,.18,2.13,60.64,60.64,0,0,0,2.25,6.29A34.74,34.74,0,0,0,6.25,94.6c-.55-1.82.87,1.21,1.18.59a12.41,12.41,0,0,1,1.05,1.37c.62,1,1.31,2,2,3,.43.76-.83-.76-.87-.58,1.67,2,.51,1,1.56,2.37-.08-.41.84.45,1.81,1.56-.43-.55-.82-1.14-1.23-1.7A13.8,13.8,0,0,1,14,103.65a9.79,9.79,0,0,0,2.38,2.4l-1-.64c1.41,1.23,5.09,4.59,6.79,5.37.21.27.43.67-.22.18,3.27,3,8,5.78,10.55,8.09l-.37-.07a10.68,10.68,0,0,1,2.15,1.26c-.08,0-.37-.06-.05.16a21.23,21.23,0,0,1,2.85,1.67l-.87-.37a29,29,0,0,0,2.44,1.61c.78.41,1.52.75,2.24,1.08,1.44.64,2.82,1.22,4.42,2-.21.38,2.81,2,4.32,2.77l-.08,0,1.65.79c.54.24,1.08.42,1.61.62,1,.38,2.05.72,3,1,2,.72,4,1.18,6.22,1.83a20.81,20.81,0,0,0,2.61,1.11c1.08.34,2.31.69,3.59,1.05,2.56.79,5.4,1.32,7.65,2-.68-.23.18-.31,1-.18,1,.28,3,.21,2.78.58l-.39-.07c.75.51,3,.84,4.71,1.07l.36-.49c4.43,1.46,11.92,1,14.36,1.76,1.11-.05,2.47,0,3.57-.12l-.07.28c3,.18,4.58.22,8.35.16l-.77.21c2.13,0,2.68-.83,4.63-.87l.6.41c3.69-.07,7.44.23,11.09-.26-.06.06-.17.19-.76.22,1.73,0,6.75,0,6.09-.51.06.4,3.83-.17,5.81-.46l-.29.3a17.13,17.13,0,0,1,4-.89c.56,0,.51.18-.24.18,1.87,0,1.42-.4,3.68-.5l-.81.27a8,8,0,0,0,2.77-.6,12.41,12.41,0,0,1,3.93-.24,6.29,6.29,0,0,1,2.36-.67c.17.06-.23.2-.43.27,3.19-.45,4.64-1.18,6.83-1.48.07.08.22.09.41.07a42.6,42.6,0,0,1-4.33.92c0,.25,2.09-.1.54.56,1.62-.46,4.26-1.61,6.25-2a1.23,1.23,0,0,1,.28,0l-.19.08a5.54,5.54,0,0,0,1.21-.39c.63-.15,1-.24,1.63-.41a13.7,13.7,0,0,0,3.29-.92c-.17-.23,1.11-.66-.15-.44.16,0-.17.11-.82.34l-.41.15.06,0-2.45.76a8.52,8.52,0,0,1,2.66-.91l1.2-.92c1.44-.12,4.09-.84,4.52-.79l4.64-2.26a22.76,22.76,0,0,0,3.55-2.4,2.87,2.87,0,0,1,1.32-.45c-.42.31-1,.58-1.19.78.78-.45,1.9-1.16,2.85-1.82a6.37,6.37,0,0,0,1.83-1.5c2-1.08-.85,1,1.68-.78l-.27.34a27.6,27.6,0,0,0,6.3-5.08c.9-.92,1.83-1.82,2.84-2.78s2.12-2,3.43-3a2.83,2.83,0,0,1-.65.48c5.7-5.22,10.31-12,14.59-18.27A10.73,10.73,0,0,0,215.32,92l.49-.27.67-2.18c1.07-3,2.91-4.83,3.54-8.91l-.33.45c.19-.7.49-1.81.66-2.74s.35-1.63.45-1.49a2.06,2.06,0,0,1,.06-1l.16,0c.12-1.19.14-2.39.17-3.58.14-1.38.28-1.26.43-1.31s.36-.24.34-2.3c0-.38-.06-.84-.11-1.31s-.18-.93-.26-1.34c-.18-.81-.35-1.34-.38-1.06,0,.61,0,1.56-.14,1.61l-.18-1.35c-.49-.22-1-1.16-1.12,2.1l.32,2.26c-.08.25-.17.49-.26.73,0-.63,0-1.27,0-1.9a7.66,7.66,0,0,0,.07,2.53,2.28,2.28,0,0,0-.3.94l.23,2.26c-.22.24-.24-1-.53.43,0,1.06.56-.94.43.8-.39,1-.48.7-.56,2-.16.15-.18-.13-.13-.63,0,.57-.18,1.31-.29,2a5.52,5.52,0,0,0-.21,1.59c-.53,1-1.07,3.72-1.47,3.46a10.13,10.13,0,0,1-.22,1.27c-.15.57-.34,1.23-.52,1.72.09-1-.24-.07-.73,1s-1.07,2.25-1.22,1.89c-.15,1.5-2.14,4.66-3.28,6.92a2,2,0,0,1,.26-.59,19.94,19.94,0,0,1-1.7,2.16c.22.37-.95,2.26-1.46,3.36-1.34,1.19.25-1.12-.37-.89.32.12-1.55,2.62-1,2.3-1,.92-.8.84-1.48,1.18.24.49-.71,1-1.18,2.07-1.44,1.31-.66.09-1.95,1.78C201.46,108.45,202.57,106.92,202.57,106.92Zm-41.48,27.16h0c.43-.11.79-.2,1-.27Zm-4.13,1,1.8-.43c.16.06,0,.19-.39.29C158.58,134.84,157.59,135,157,135.1Zm9.29-.49c-.65.24-.89.25-1,.22l1.14-.38.06-.06A.7.7,0,0,1,166.25,134.61Z"/><path class="cls-1" d="M167.31,133.9l.27-.11-.41.07L167,134Z"/><path class="cls-1" d="M161.73,8.89l-.08,0a.55.55,0,0,1,.17.1Z"/><polygon class="cls-1" points="98.12 137.75 98.13 137.82 98.5 137.78 98.12 137.75"/><path class="cls-1" d="M182.94,19.28a.91.91,0,0,0,.24.21A1.64,1.64,0,0,0,182.94,19.28Z"/><path class="cls-1" d="M191.59,24.62c.38.28.75.59,1.12.9A13.24,13.24,0,0,0,191.59,24.62Z"/><path class="cls-1" d="M197.78,29.36a.43.43,0,0,0,.2,0h-.2Z"/><path class="cls-1" d="M80.07,6.78l-.29.09C79.12,7.1,79.57,7,80.07,6.78Z"/><path class="cls-1" d="M116.51,1.51l-1.19.12C116,1.64,116.49,1.66,116.51,1.51Z"/><path class="cls-1" d="M42.44,23.11h0l-.22.13Z"/><path class="cls-1" d="M113.6,1.62a9.92,9.92,0,0,0,1.72,0A16.43,16.43,0,0,0,113.6,1.62Z"/><path class="cls-1" d="M217.8,55.76l.11.36s0,0,.06,0Z"/><path class="cls-1" d="M218,56.15l.16.38A1.19,1.19,0,0,0,218,56.15Z"/><path class="cls-1" d="M218.48,57.33l-.35-.8A3.15,3.15,0,0,0,218.48,57.33Z"/><path class="cls-1" d="M213.48,46.53l-.15-.05A.16.16,0,0,0,213.48,46.53Z"/><path class="cls-1" d="M211.75,43.94c.44.61.87,1.66,1.46,2.51l.12,0C213,46.15,212.34,44.4,211.75,43.94Z"/><path class="cls-1" d="M204.08,33.22c.61.64,1.25,1.26,1.85,1.91-.25-.41-.58-1,.29-.1C204.05,32.44,206.56,35.68,204.08,33.22Z"/><path class="cls-1" d="M197.93,27.7c1.15.85.08-.13.18-.13C197.33,27.08,197.15,27,197.93,27.7Z"/><path class="cls-1" d="M143.9,3.7l.19-.22C143,3.3,144.06,3.58,143.9,3.7Z"/><polygon class="cls-1" points="132.5 3.06 133.53 3.36 134.07 3.2 132.5 3.06"/><path class="cls-1" d="M126,.47l.49,0c-.62,0-1.23,0-1.85-.07C125.14.44,125.59.44,126,.47Z"/><path class="cls-1" d="M31.46,27.39l.45.05C32.48,27,32.4,26.57,31.46,27.39Z"/><path class="cls-1" d="M3.31,59.86a4.86,4.86,0,0,0-.61,1,5.85,5.85,0,0,0-.4,1.28c.18-.46.38-.91.56-1.3A10.29,10.29,0,0,0,3.31,59.86Z"/><polygon class="cls-1" points="86.54 139.24 85.66 139.24 87.3 139.36 86.54 139.24"/></g></g></svg>