<svg xmlns="http://www.w3.org/2000/svg" viewBox="0 0 421.88 185.11"><defs><style>.cls-1,.cls-2{fill:#fff;stroke-miterlimit:10;}.cls-1{stroke:#000;}.cls-2{stroke:#fff;stroke-width:3px;}</style></defs><g id="Слой_2" data-name="Слой 2"><g id="Слой_1-2" data-name="Слой 1"><path class="cls-1" d="M421.3,93.42c2.28,34.32-44.56,61.35-53.26,66.38-14.84,8.57-41.13,23.32-151.16,24.71C95.36,186,66.29,169.72,53.21,161.1,39.1,151.81-1.42,125.11.57,93.41,3.79,42.26,116.27.57,210.69.5,305.27.43,417.86,41.84,421.3,93.42Z"/><path class="cls-2" d="M396.77,93.32c2,30.31-39.36,54.2-47,58.64-13.11,7.57-36.34,20.6-133.53,21.83-107.35,1.35-133-13.06-144.59-20.68-12.46-8.21-48.26-31.8-46.5-59.8,2.84-45.19,102.21-82,185.62-82.08S393.73,47.75,396.77,93.32Z"/></g></g></svg>