<svg xmlns="http://www.w3.org/2000/svg" viewBox="0 0 134.41 256.03"><defs><style>.cls-1,.cls-2,.cls-3{fill:none;}.cls-1{stroke:#445a85;}.cls-1,.cls-3{stroke-miterlimit:10;}.cls-3{stroke:#000;}</style></defs><g id="Слой_2" data-name="Слой 2"><g id="Слой_1-2" data-name="Слой 1"><path class="cls-1" d="M.57,54.06c.27.2.45,135.36.45,135.36a1,1,0,0,0,0,.17l3,19.77a.9.9,0,0,0,.08.28A77.44,77.44,0,0,0,28,240.51c6.05,4.61,20.46,15.59,41,15,17.4-.51,29.43-9,35-13a72,72,0,0,0,26-34,69.42,69.42,0,0,0,3.89-19.28V54.4L119.52,1Q111.15.8,103,.51c-6.57,4.28-19.83,11.58-37,12-5.11.12-13.48.23-23-4A47.56,47.56,0,0,1,31,.78a1.06,1.06,0,0,0-.72-.27h-16Z"/><path class="cls-1" d="M30.52,1a41.28,41.28,0,0,0,15,16,41.34,41.34,0,0,0,21,6,42,42,0,0,0,26-9,42.75,42.75,0,0,0,11-13"/><path class="cls-2" d="M38,225.51l-9-25"/><path class="cls-1" d="M22.77,238.1,37.52,225a36.65,36.65,0,0,0-10-23C17.2,191.3,4,191,1.52,191"/><path class="cls-1" d="M111.38,238.48,96.63,225.39a36.65,36.65,0,0,1,10-23c10.32-10.71,23.57-11,26-11"/><line class="cls-1" x1="37.52" y1="225.01" x2="96.63" y2="225.39"/><polyline class="cls-1" points="8.08 77.11 1.35 83.89 8.08 91.11"/><line class="cls-3" x1="133.02" y1="84.01" x2="70.02" y2="84.01"/><polyline class="cls-3" points="127.73 77.51 132.99 84 127.97 90.02"/><polyline class="cls-3" points="2.02 84 65.02 84 70.02 84"/><polyline class="cls-3" points="7.31 77.51 2.05 84 7.07 90.02"/><polyline class="cls-1" points="73.75 19 66.93 12.31 59.75 19.07"/><line class="cls-3" x1="67.54" y1="255.34" x2="67.2" y2="193.97"/><polyline class="cls-3" points="74 250.15 67.54 255.31 61.5 250.46"/><polyline class="cls-3" points="66.82 12.97 67.17 75.97 67.2 80.97 67.2 193.97"/><polyline class="cls-3" points="73.34 18.23 66.82 13.01 60.84 18.06"/><path class="cls-1" d="M.8,53.84a63.16,63.16,0,0,0,13-25,63.33,63.33,0,0,0,1-27L14.23.51"/><path class="cls-1" d="M119.52,1l-.13,1.5a63,63,0,0,0,1,27A64.7,64.7,0,0,0,133.8,54.84"/></g></g></svg>