<svg xmlns="http://www.w3.org/2000/svg" viewBox="0 0 306.24 256.45"><defs><style>.cls-1,.cls-2,.cls-3{fill:none;}.cls-1{stroke:#445a85;}.cls-1,.cls-3{stroke-miterlimit:10;}.cls-3{stroke:#000;}</style></defs><g id="Слой_2" data-name="Слой 2"><g id="Слой_1-2" data-name="Слой 1"><path class="cls-1" d="M99.89.93h17a1.1,1.1,0,0,1,.73.27,47.29,47.29,0,0,0,12,7.73c9.52,4.24,17.88,4.12,23,4,17.17-.42,30.42-7.71,37-12h17.23"/><path class="cls-1" d="M101.05,4.14a196.33,196.33,0,0,1-4.69,25.17,196.67,196.67,0,0,1-7.7,23.81l-1,2.26V189.85a.86.86,0,0,0,0,.16l3,19.77a1.29,1.29,0,0,0,.08.28,77.32,77.32,0,0,0,24,30.87c6,4.61,20.46,15.6,41,15,17.4-.51,29.43-9.05,35-13a71.9,71.9,0,0,0,26-34,69.29,69.29,0,0,0,3.88-19.27.2.2,0,0,0,0-.07V55.36"/><path class="cls-1" d="M101.36,1.31c-.09.93-.2,1.87-.31,2.83"/><path class="cls-1" d="M117.16,1.43a41.22,41.22,0,0,0,15,16,41.31,41.31,0,0,0,21,6,41.93,41.93,0,0,0,26-9,42.67,42.67,0,0,0,11-13"/><path class="cls-2" d="M124.66,225.93l-9-25"/><path class="cls-1" d="M109.41,236.53l14.75-13.1a36.71,36.71,0,0,0-10-23c-10.33-10.71-23.57-11-26-11"/><path class="cls-1" d="M198,236.91l-14.75-13.1a36.65,36.65,0,0,1,10-23c10.33-10.71,23.58-10.78,26-11a12.83,12.83,0,0,0,1.28-.15"/><line class="cls-1" x1="124.16" y1="223.43" x2="183.26" y2="223.81"/><polyline class="cls-1" points="94.71 77.53 87.99 84.32 94.71 91.53"/><line class="cls-3" x1="219.66" y1="84.43" x2="156.66" y2="84.43"/><polyline class="cls-3" points="214.36 77.94 219.63 84.43 214.61 90.44"/><polyline class="cls-3" points="88.66 84.43 151.66 84.43 156.66 84.43"/><polyline class="cls-3" points="93.95 77.94 88.69 84.43 93.7 90.44"/><line class="cls-3" x1="154.17" y1="255.22" x2="153.83" y2="194.4"/><polyline class="cls-3" points="160.64 250.07 154.17 255.19 148.13 250.38"/><polyline class="cls-3" points="153.46 13.4 153.81 76.4 153.83 81.4 153.83 194.4"/><polyline class="cls-3" points="159.98 18.66 153.46 13.43 147.47 18.48"/><path class="cls-1" d="M220.49,55.28h74.89a1.15,1.15,0,0,0,.41-.08l6.29-2.49a5.77,5.77,0,0,0,3.66-5.38V6.83a4.46,4.46,0,0,0-3.19-4.27L295.6.5q-20,.73-41.36.5l-2.41,0-45.67,0"/><line class="cls-1" x1="295.6" y1="0.5" x2="295.38" y2="55.28"/><path class="cls-1" d="M100.08.93,54.41,1,52,1q-21.37.25-41.36-.5l-7,2.05A4.46,4.46,0,0,0,.5,6.83V47.34a5.79,5.79,0,0,0,3.66,5.38l6.28,2.49a1.14,1.14,0,0,0,.41.07H88.11"/><path class="cls-1" d="M220.55,55.28l-.28-.56-.08-.18c-3.14-7.59-5.43-15.87-8-26.11a195.85,195.85,0,0,1-5-28"/></g></g></svg>