<svg xmlns="http://www.w3.org/2000/svg" viewBox="0 0 216.86 258.45"><defs><style>.cls-1,.cls-2,.cls-3{fill:none;}.cls-1{stroke:#445a85;}.cls-1,.cls-3{stroke-miterlimit:10;}.cls-3{stroke:#000;}</style></defs><g id="Слой_2" data-name="Слой 2"><g id="Слой_1-2" data-name="Слой 1"><path class="cls-1" d="M176.36,55.7a1.11,1.11,0,0,0-1.11,1.11V191.65a69.74,69.74,0,0,1-3.89,19.27,71.9,71.9,0,0,1-26,34c-5.57,4-17.6,12.5-35,13-20.54.6-34.95-10.39-41-15a77.42,77.42,0,0,1-24-30.87l-.07-.27-3-19.78v-.16l.08-136.37"/><path class="cls-1" d="M162.45,1.39l2.41,0q21.38.27,41.36-.5L213.17,3a4.46,4.46,0,0,1,3.19,4.27v40.5a5.77,5.77,0,0,1-3.66,5.38l-6.29,2.49a1.15,1.15,0,0,1-.41.08H176.36"/><path class="cls-1" d="M54.14.92H71.6a1.09,1.09,0,0,1,.73.28,47.3,47.3,0,0,0,12,7.72c9.52,4.24,17.88,4.13,23,4,17.17-.42,30.42-7.71,37-12q8.89.33,18.09.47"/><path class="cls-1" d="M160.86,1.42a195.61,195.61,0,0,0,5,28c2.62,10.33,6.4,19.41,9.58,27.05"/><path class="cls-1" d="M56.06,1.3a195.85,195.85,0,0,1-5,28C48.6,39,45.34,47.42,42.65,54.86l-.21.61-.08.21"/><path class="cls-1" d="M71.86,1.42a41.22,41.22,0,0,0,15,16,41.21,41.21,0,0,0,21,6,41.93,41.93,0,0,0,26-9,42.52,42.52,0,0,0,11-13"/><path class="cls-2" d="M79.36,225.92l-9-25"/><path class="cls-1" d="M64.11,238.52l14.75-13.1a36.67,36.67,0,0,0-10-23c-10.33-10.71-23.57-11-26-11"/><path class="cls-1" d="M152.71,238.9,138,225.8a36.73,36.73,0,0,1,10-23c10.33-10.7,23.57-11,26-11"/><line class="cls-1" x1="78.86" y1="225.42" x2="137.96" y2="225.8"/><polyline class="cls-1" points="49.41 77.53 42.69 84.31 49.41 91.53"/><line class="cls-3" x1="174.36" y1="84.42" x2="111.36" y2="84.42"/><polyline class="cls-3" points="169.06 77.93 174.33 84.42 169.31 90.43"/><polyline class="cls-3" points="43.36 84.42 106.36 84.42 111.36 84.42"/><polyline class="cls-3" points="48.65 77.93 43.39 84.42 48.41 90.43"/><polyline class="cls-1" points="115.09 19.41 108.27 12.72 101.09 19.49"/><line class="cls-3" x1="108.89" y1="257.39" x2="108.54" y2="194.39"/><polyline class="cls-3" points="115.35 252.06 108.89 257.36 102.85 252.37"/><polyline class="cls-3" points="108.16 13.39 108.51 76.39 108.54 81.39 108.54 194.39"/><polyline class="cls-3" points="114.68 18.65 108.16 13.42 102.17 18.48"/><line class="cls-1" x1="206.22" y1="0.92" x2="206" y2="55.7"/><path class="cls-1" d="M54.41,1,52,1Q30.63,1.27,10.64.5l-7,2.06A4.46,4.46,0,0,0,.5,6.83v40.5a5.77,5.77,0,0,0,3.66,5.38l6.28,2.49a1.15,1.15,0,0,0,.41.08H40.5"/><line class="cls-1" x1="40.42" y1="55.28" x2="42.5" y2="55.28"/><line class="cls-1" x1="10.64" y1="0.5" x2="10.44" y2="55.2"/></g></g></svg>