<svg xmlns="http://www.w3.org/2000/svg" viewBox="0 0 306.24 222.17"><defs><style>.cls-1,.cls-2{fill:none;stroke-miterlimit:10;}.cls-1{stroke:#445a85;}.cls-2{stroke:#000;}.cls-3{fill:#445a85;}</style></defs><g id="Слой_2" data-name="Слой 2"><g id="Слой_1-2" data-name="Слой 1"><path class="cls-1" d="M99.89.93h17a1.1,1.1,0,0,1,.73.27,47.29,47.29,0,0,0,12,7.73c9.52,4.24,17.88,4.12,23,4,17.17-.42,30.42-7.71,37-12h17.23"/><path class="cls-1" d="M101.05,4.14a196.33,196.33,0,0,1-4.69,25.17,196.67,196.67,0,0,1-7.7,23.81l-1,2.26V221.67H220.55V55.36"/><path class="cls-1" d="M101.36,1.31c-.09.93-.2,1.87-.31,2.83"/><polyline class="cls-1" points="94.71 77.53 87.99 84.32 94.71 91.53"/><line class="cls-2" x1="219.66" y1="84.43" x2="156.66" y2="84.43"/><polyline class="cls-2" points="214.36 77.94 219.63 84.43 214.61 90.44"/><polyline class="cls-2" points="88.66 84.43 151.66 84.43 156.66 84.43"/><polyline class="cls-2" points="93.95 77.94 88.69 84.43 93.7 90.44"/><path class="cls-1" d="M220.49,55.28h74.89a1.15,1.15,0,0,0,.41-.08l6.29-2.49a5.77,5.77,0,0,0,3.66-5.38V6.83a4.46,4.46,0,0,0-3.19-4.27L295.6.5q-20,.73-41.36.5l-2.41,0-45.67,0"/><line class="cls-1" x1="295.6" y1="0.5" x2="295.38" y2="55.28"/><path class="cls-1" d="M100.08.93,54.41,1,52,1q-21.37.25-41.36-.5l-7,2.05A4.46,4.46,0,0,0,.5,6.83V47.34a5.79,5.79,0,0,0,3.66,5.38l6.28,2.49a1.14,1.14,0,0,0,.41.07H88.11"/><line class="cls-1" x1="10.64" y1="0.1" x2="10.85" y2="54.88"/><path class="cls-1" d="M220.55,55.28l-.28-.56-.08-.18c-3.14-7.59-5.43-15.87-8-26.11a195.85,195.85,0,0,1-5-28"/><line class="cls-2" x1="245.42" y1="221.05" x2="245.06" y2="156.31"/><polyline class="cls-2" points="251.88 215.57 245.42 221.01 239.38 215.89"/><polyline class="cls-2" points="245.06 1.68 245.31 46 245.33 49.52 245.15 129.02 245.13 159.28"/><polyline class="cls-2" points="251.58 5.04 245.07 1.7 239.08 4.95"/><path class="cls-1" d="M189,1.27A50.51,50.51,0,0,1,177.3,21.85a50.79,50.79,0,0,1-23,14h-1l-1-.07a50.79,50.79,0,0,1-23-14A50.51,50.51,0,0,1,117.63,1.2"/><path class="cls-1" d="M199.78.58a64.69,64.69,0,0,1-14.89,26.3,64.83,64.83,0,0,1-29.4,17.9h-1.27l-1.32-.09A64.93,64.93,0,0,1,123.5,26.8,64.75,64.75,0,0,1,108.61.5"/><line class="cls-2" x1="220.55" y1="221.67" x2="257.87" y2="221.05"/><line class="cls-1" x1="148.3" y1="43.14" x2="148.3" y2="221.28"/><line class="cls-1" x1="159.82" y1="43.14" x2="159.82" y2="220.79"/><circle class="cls-3" cx="153.82" cy="73.06" r="2.5"/><circle class="cls-3" cx="154.32" cy="110.56" r="2.5"/><circle class="cls-3" cx="154.32" cy="151.56" r="2.5"/><circle class="cls-3" cx="154.32" cy="185.56" r="2.5"/></g></g></svg>