<svg xmlns="http://www.w3.org/2000/svg" viewBox="0 0 131.86 263.25"><defs><style>.cls-1,.cls-2{fill:none;stroke-miterlimit:10;}.cls-1{stroke:#445a85;}.cls-2{stroke:#000;}</style></defs><g id="Слой_2" data-name="Слой 2"><g id="Слой_1-2" data-name="Слой 1"><path class="cls-1" d="M76.37,4.46c1.84-.31,3.12-.63,5-1.11a33.87,33.87,0,0,0,5.23-1.79c5.41-2.25,14.51-.25,15.66,0,14.28,3.13,22.11,18.14,23.6,21a50.39,50.39,0,0,1,5.23,28.15c-4.2,51.73-10.34,54.22-9.42,77.76.74,18.78,6,52.76,8.38,65.68a66.24,66.24,0,0,1,1,9.83c.22,6.61.49,19.87-7.85,33.07a43.81,43.81,0,0,1-11,12.51c-8.27,6.23-27.34,13.2-46.37,13.19s-38.15-7-46.33-13.19a44.13,44.13,0,0,1-11-12.51C.26,223.85.52,210.59.74,204a67.16,67.16,0,0,1,1.05-9.83c2.33-12.92,7.64-46.9,8.37-65.68.93-23.54-5.21-26-9.42-77.76A50.52,50.52,0,0,1,6,22.56c1.49-2.86,9.32-17.87,23.59-21,1.16-.25,10.25-2.25,15.66,0a33.87,33.87,0,0,0,5.23,1.79A42.88,42.88,0,0,0,56,4.46c6.13.75,5.76.9,9.95.9C72.71,5.36,72.39,5.13,76.37,4.46Z"/><path class="cls-1" d="M36.76.62a30.43,30.43,0,0,0,12.06,11,37.32,37.32,0,0,0,16.89,4.12A37.35,37.35,0,0,0,86.63,9.55,30.86,30.86,0,0,0,95.48.62"/><polyline class="cls-1" points="70.71 16.17 70.81 217.76 63.18 217.76 63.18 216.94 63.18 16.17"/><polyline class="cls-2" points="59.23 254.01 51.77 260.29 44.81 254.38"/><polyline class="cls-2" points="51.37 4.42 51.77 76.19 51.8 81.88 51.8 133.55 51.77 260.29"/><polyline class="cls-2" points="58.89 10.4 51.37 4.45 44.47 10.21"/><polyline class="cls-1" points="17.31 114.81 11.66 122.64 17.31 130.96"/><line class="cls-2" x1="122.14" y1="122.77" x2="69.28" y2="122.77"/><polyline class="cls-2" points="117.7 115.28 122.11 122.77 117.9 129.7"/><polyline class="cls-2" points="12.22 122.77 65.08 122.77 69.28 122.77"/><polyline class="cls-2" points="16.66 115.28 12.25 122.77 16.46 129.7"/></g></g></svg>