<svg xmlns="http://www.w3.org/2000/svg" viewBox="0 0 352.19 354.8"><defs><style>.cls-1,.cls-2{fill:none;stroke-miterlimit:10;}.cls-1{stroke:#445a85;}.cls-2{stroke:#000;}.cls-3{font-size:26.44px;font-family:CM_GARDEN_R, Gardens CM;}</style></defs><g id="Слой_2" data-name="Слой 2"><g id="Слой_1-2" data-name="Слой 1"><path class="cls-1" d="M219.5,49.3h-22a59.81,59.81,0,0,1-37,11,59.5,59.5,0,0,1-33-12h-22"/><path class="cls-1" d="M197.2,49.51,197,50.8a38,38,0,0,1-7,18c-2,2.68-10.78,13.93-26,15a34.55,34.55,0,0,1-37-34V48.3"/><line class="cls-1" x1="95.5" y1="342.8" x2="152.5" y2="342.8"/><line class="cls-1" x1="227" y1="343.3" x2="171.76" y2="343.3"/><path class="cls-1" d="M311.5,105.29v-56l0-1"/><path class="cls-1" d="M226.77,104.27l2.73,0,80.92,1,11.48-3.61a2.29,2.29,0,0,0,1.6-2.18V52.8A1.89,1.89,0,0,0,322,51l-11.5-2.65-93,1-.5,1.5c-1.92,5.77-2.09,15.56,0,27,1.75,9.61,10,27,10,27V342.88a3.31,3.31,0,0,1-.1.83l-2,8a3.41,3.41,0,0,1-3.31,2.59h-42.5a5.8,5.8,0,0,1-5.62-4.37l-1.59-6.22a3.4,3.4,0,0,1-.11-.84V274.78a3.57,3.57,0,0,0-.09-.8l-.07-.26a3.28,3.28,0,0,0-.3-.81,10.5,10.5,0,0,0-18.27-.57,3.52,3.52,0,0,0-.53,1.84v68.56a3.37,3.37,0,0,1-.18,1.09L149.58,352a3.42,3.42,0,0,1-3.24,2.33H101.93A3.42,3.42,0,0,1,98.7,352l-3-8.67a3.3,3.3,0,0,1-.19-1.12v-239a3.5,3.5,0,0,1,.51-1.8A73.89,73.89,0,0,0,105.5,48.3H10.36l-8,2.33A2.62,2.62,0,0,0,.5,53.14V98.32a2.63,2.63,0,0,0,1.9,2.53l8.49,2.45H95.5"/><path class="cls-1" d="M10.5,102.74V48.3"/><path class="cls-1" d="M143.26,342.8l.24-69.5v-2a19,19,0,0,1,37,0l.19,2v69.5"/><line class="cls-1" x1="155.48" y1="83.88" x2="155.48" y2="257.96"/><line class="cls-1" x1="162" y1="83.88" x2="162" y2="256.69"/><line class="cls-2" x1="117" y1="267.3" x2="283" y2="267.3"/><line class="cls-2" x1="219" y1="354.3" x2="283" y2="354.3"/><polyline class="cls-2" points="276.43 267.6 276.78 330.6 276.5 353.8"/><polyline class="cls-2" points="282.95 272.86 276.43 267.63 270.45 272.69"/><polyline class="cls-2" points="283 348.22 276.54 353.38 270.5 348.52"/><polyline class="cls-2" points="118.15 48.27 118.5 111.27 118.22 134.46 118.25 267.04"/><polyline class="cls-2" points="124.67 53.52 118.15 48.3 112.17 53.35"/><polyline class="cls-2" points="124.72 261.88 118.25 267.04 112.21 262.19"/><polyline class="cls-1" points="103.01 149.4 96.33 156.19 103.01 163.4"/><line class="cls-2" x1="227" y1="156.3" x2="164.48" y2="156.3"/><polyline class="cls-2" points="221.75 149.81 226.97 156.3 221.99 162.31"/><polyline class="cls-2" points="97 156.3 159.52 156.3 164.48 156.3"/><polyline class="cls-2" points="102.25 149.81 97.02 156.3 102.01 162.31"/><line class="cls-2" x1="323.5" y1="52.8" x2="323.97" y2="35.3"/><line class="cls-2" x1="217.5" y1="49.3" x2="217.5" y2="31.8"/><text class="cls-3" transform="translate(112.17 22.87)">A</text><text class="cls-3" transform="translate(333.89 22.93)">C</text><text class="cls-3" transform="translate(238.89 157.93)">B</text><text class="cls-3" transform="translate(270.84 256.65)">D</text><polyline class="cls-1" points="223.22 31.12 217.83 37.9 223.22 45.12"/><line class="cls-2" x1="323.33" y1="38.01" x2="272.85" y2="38.01"/><polyline class="cls-2" points="319.09 31.52 323.31 38.01 319.28 44.02"/><polyline class="cls-2" points="218.36 38.01 268.84 38.01 272.85 38.01"/><polyline class="cls-2" points="222.6 31.52 218.39 38.01 222.41 44.02"/></g></g></svg>