<svg xmlns="http://www.w3.org/2000/svg" viewBox="0 0 150.36 263.66"><defs><style>.cls-1,.cls-3{fill:none;stroke-miterlimit:10;}.cls-1{stroke:#445a85;}.cls-2{font-size:30.5px;font-family:CM_GARDEN_R, Gardens CM;}.cls-3{stroke:#000;}</style></defs><g id="Слой_2" data-name="Слой 2"><g id="Слой_1-2" data-name="Слой 1"><polygon class="cls-1" points="10.49 37.67 5.76 79.37 121.17 80.34 117.01 37.8 10.49 37.67"/><path class="cls-1" d="M60.07,157.24V263.16H4.72q-1-5-1.94-10.33C-1.6,228,.81,103.35,6,79.37"/><polyline class="cls-1" points="71.71 157.05 71.71 148.05 60.07 148.05 60.07 157.24"/><path class="cls-1" d="M71.71,157.05V263.16l51.15-.07c5.28-26.9,3.51-158.68-1.52-182.66"/><line class="cls-1" x1="60.07" y1="240.29" x2="1.81" y2="240.14"/><line class="cls-1" x1="125.05" y1="240.47" x2="71.71" y2="240.32"/><text class="cls-2" transform="translate(69.84 26.38)">A</text><text class="cls-2" transform="translate(129.26 117.86)">C</text><polyline class="cls-1" points="14.09 49.68 8.44 57.5 14.09 65.82"/><line class="cls-3" x1="119.05" y1="57.63" x2="66.13" y2="57.63"/><polyline class="cls-3" points="114.61 50.14 119.03 57.63 114.81 64.56"/><polyline class="cls-3" points="9 57.63 61.93 57.63 66.13 57.63"/><polyline class="cls-3" points="13.45 50.14 9.03 57.63 13.24 64.56"/><text class="cls-2" transform="translate(125.58 57.2)">B</text><line class="cls-3" x1="40.76" y1="262.34" x2="40.35" y2="187.68"/><polyline class="cls-3" points="48.22 256.02 40.76 262.3 33.8 256.39"/><polyline class="cls-3" points="40.15 148.88 40.41 195.47 40.43 199.17 40.33 232.71"/><polyline class="cls-3" points="47.66 152.75 40.15 148.9 33.24 152.65"/><line class="cls-3" x1="60.07" y1="148.05" x2="32.86" y2="148.05"/><text class="cls-2" transform="translate(18.31 236.58)">D</text><polyline class="cls-3" points="93.61 255.25 86.15 261.53 79.19 255.62"/><polyline class="cls-3" points="117.83 255.25 110.37 261.53 103.41 255.62"/><polyline class="cls-3" points="85.92 37.38 86.27 100.25 86.3 105.24 86.26 150.51 86.15 261.53"/><polyline class="cls-3" points="93.44 42.63 85.92 37.41 79.02 42.46"/><polyline class="cls-3" points="110.14 81.21 110.49 144.08 110.52 149.07 110.48 194.34 110.37 261.53"/><polyline class="cls-3" points="117.66 86.45 110.14 81.24 103.24 86.29"/></g></g></svg>