<svg xmlns="http://www.w3.org/2000/svg" viewBox="0 0 134.41 225.51"><defs><style>.cls-1,.cls-2,.cls-3{fill:none;}.cls-1{stroke:#445a85;}.cls-1,.cls-3{stroke-miterlimit:10;}.cls-3{stroke:#000;}</style></defs><g id="Слой_2" data-name="Слой 2"><g id="Слой_1-2" data-name="Слой 1"><path class="cls-1" d="M133.91,189.16V54.4L119.52,1Q111.15.8,103,.51c-6.57,4.28-19.83,11.58-37,12-5.11.12-13.48.23-23-4A47.56,47.56,0,0,1,31,.78a1.06,1.06,0,0,0-.72-.27h-16L.57,54.06c.27.2.45,135.36.45,135.36Z"/><path class="cls-1" d="M30.52,1a41.28,41.28,0,0,0,15,16,41.34,41.34,0,0,0,21,6,42,42,0,0,0,26-9,42.75,42.75,0,0,0,11-13"/><path class="cls-2" d="M38,225.51l-9-25"/><polyline class="cls-1" points="8.08 77.11 1.35 83.89 8.08 91.11"/><line class="cls-3" x1="133.02" y1="84.01" x2="70.02" y2="84.01"/><polyline class="cls-3" points="127.73 77.51 132.99 84 127.97 90.02"/><polyline class="cls-3" points="2.02 84 65.02 84 70.02 84"/><polyline class="cls-3" points="7.31 77.51 2.05 84 7.07 90.02"/><line class="cls-3" x1="67.17" y1="187.34" x2="66.83" y2="125.97"/><polyline class="cls-3" points="73.64 182.15 67.17 187.31 61.13 182.46"/><polyline class="cls-3" points="66.82 12.97 67.04 53.37 67.06 56.58 66.84 129.03"/><polyline class="cls-3" points="73.33 16.33 66.82 12.99 60.83 16.25"/><path class="cls-1" d="M.8,53.84a63.16,63.16,0,0,0,13-25,63.33,63.33,0,0,0,1-27L14.23.51"/><path class="cls-1" d="M119.52,1l-.13,1.5a63,63,0,0,0,1,27A64.7,64.7,0,0,0,133.8,54.84"/></g></g></svg>