<svg xmlns="http://www.w3.org/2000/svg" viewBox="0 0 306.24 190.42"><defs><style>.cls-1,.cls-2{fill:none;stroke-miterlimit:10;}.cls-1{stroke:#445a85;}.cls-2{stroke:#000;}</style></defs><g id="Слой_2" data-name="Слой 2"><g id="Слой_1-2" data-name="Слой 1"><path class="cls-1" d="M99.89.93h17a1.1,1.1,0,0,1,.73.27,47.29,47.29,0,0,0,12,7.73c9.52,4.24,17.88,4.12,23,4,17.17-.42,30.42-7.71,37-12h17.23"/><path class="cls-1" d="M101.05,4.14a196.33,196.33,0,0,1-4.69,25.17,196.67,196.67,0,0,1-7.7,23.81h0a11.67,11.67,0,0,0-1,4.73V160.44a29.48,29.48,0,0,0,29.57,29.48l103.32-.33V55.36"/><path class="cls-1" d="M101.36,1.31c-.09.93-.2,1.87-.31,2.83"/><polyline class="cls-1" points="94.71 77.53 87.99 84.32 94.71 91.53"/><line class="cls-2" x1="219.66" y1="84.43" x2="156.66" y2="84.43"/><polyline class="cls-2" points="214.36 77.94 219.63 84.43 214.61 90.44"/><polyline class="cls-2" points="88.66 84.43 151.66 84.43 156.66 84.43"/><polyline class="cls-2" points="93.95 77.94 88.69 84.43 93.7 90.44"/><path class="cls-1" d="M220.49,55.28h74.89a1.15,1.15,0,0,0,.41-.08l6.29-2.49a5.77,5.77,0,0,0,3.66-5.38V6.83a4.46,4.46,0,0,0-3.19-4.27L295.6.5q-20,.73-41.36.5l-2.41,0-45.67,0"/><line class="cls-1" x1="295.6" y1="0.5" x2="295.38" y2="55.28"/><path class="cls-1" d="M100.08.93,54.41,1,52,1q-21.37.25-41.36-.5l-7,2.05A4.46,4.46,0,0,0,.5,6.83V47.34a5.79,5.79,0,0,0,3.66,5.38l6.28,2.49a1.14,1.14,0,0,0,.41.07H88.11"/><line class="cls-1" x1="10.64" y1="0.1" x2="10.85" y2="54.88"/><path class="cls-1" d="M220.55,55.28l-.28-.56-.08-.18c-3.14-7.59-5.43-15.87-8-26.11a195.85,195.85,0,0,1-5-28"/><line class="cls-2" x1="153.42" y1="189.05" x2="153.06" y2="124.31"/><polyline class="cls-2" points="159.88 183.57 153.42 189.01 147.38 183.89"/><polyline class="cls-2" points="153.07 13.68 153.29 54.07 153.31 57.28 153.09 129.74"/><polyline class="cls-2" points="159.58 17.04 153.07 13.7 147.08 16.95"/><path class="cls-1" d="M153.79,53.1a59.13,59.13,0,0,1-28-23,58.68,58.68,0,0,1-9-29"/><path class="cls-1" d="M87.66,75.1h1.13a145.23,145.23,0,0,0,15-2c8.94-1.68,24.79-4.77,42-15,8.63-5.13,22.28-13.45,33-30a85.82,85.82,0,0,0,11-25l.58-2.17"/></g></g></svg>