<svg xmlns="http://www.w3.org/2000/svg" viewBox="0 0 216.86 225.92"><defs><style>.cls-1,.cls-2,.cls-3{fill:none;}.cls-1{stroke:#445a85;}.cls-1,.cls-3{stroke-miterlimit:10;}.cls-3{stroke:#000;}</style></defs><g id="Слой_2" data-name="Слой 2"><g id="Слой_1-2" data-name="Слой 1"><path class="cls-1" d="M42.44,55.47l-.08,136.37,132.89-.26V56.81a1.11,1.11,0,0,1,1.11-1.11"/><path class="cls-1" d="M162.45,1.39l2.41,0q21.38.27,41.36-.5L213.17,3a4.46,4.46,0,0,1,3.19,4.27v40.5a5.77,5.77,0,0,1-3.66,5.38l-6.29,2.49a1.15,1.15,0,0,1-.41.08H176.36"/><path class="cls-1" d="M54.14.92H71.6a1.09,1.09,0,0,1,.73.28,47.3,47.3,0,0,0,12,7.72c9.52,4.24,17.88,4.13,23,4,17.17-.42,30.42-7.71,37-12q8.89.33,18.09.47"/><path class="cls-1" d="M160.86,1.42a195.61,195.61,0,0,0,5,28c2.62,10.33,6.4,19.41,9.58,27.05"/><path class="cls-1" d="M56.06,1.3a195.85,195.85,0,0,1-5,28C48.6,39,45.34,47.42,42.65,54.86l-.21.61-.08.21"/><path class="cls-1" d="M71.86,1.42a41.22,41.22,0,0,0,15,16,41.21,41.21,0,0,0,21,6,41.93,41.93,0,0,0,26-9,42.52,42.52,0,0,0,11-13"/><path class="cls-2" d="M79.36,225.92l-9-25"/><polyline class="cls-1" points="49.41 77.53 42.69 84.31 49.41 91.53"/><line class="cls-3" x1="174.36" y1="84.42" x2="111.36" y2="84.42"/><polyline class="cls-3" points="169.06 77.93 174.33 84.42 169.31 90.43"/><polyline class="cls-3" points="43.36 84.42 106.36 84.42 111.36 84.42"/><polyline class="cls-3" points="48.65 77.93 43.39 84.42 48.41 90.43"/><line class="cls-1" x1="206.22" y1="0.92" x2="206" y2="55.7"/><path class="cls-1" d="M54.41,1,52,1Q30.63,1.27,10.64.5l-7,2.06A4.46,4.46,0,0,0,.5,6.83v40.5a5.77,5.77,0,0,0,3.66,5.38l6.28,2.49a1.15,1.15,0,0,0,.41.08H40.5"/><line class="cls-1" x1="40.42" y1="55.28" x2="42.5" y2="55.28"/><line class="cls-1" x1="10.64" y1="0.5" x2="10.44" y2="55.2"/><line class="cls-3" x1="108.39" y1="190.18" x2="108.03" y2="125.45"/><polyline class="cls-3" points="114.85 184.71 108.39 190.15 102.35 185.03"/><polyline class="cls-3" points="108.04 12.82 108.26 53.21 108.28 56.42 108.05 128.87"/><polyline class="cls-3" points="114.55 16.17 108.04 12.84 102.04 16.09"/></g></g></svg>