<svg xmlns="http://www.w3.org/2000/svg" viewBox="0 0 152.57 263.66"><defs><style>.cls-1,.cls-3{fill:none;stroke-miterlimit:10;}.cls-1{stroke:#445a85;}.cls-2{font-size:30.5px;font-family:CM_GARDEN_R, Gardens CM;}.cls-3{stroke:#000;}</style></defs><g id="Слой_2" data-name="Слой 2"><g id="Слой_1-2" data-name="Слой 1"><polygon class="cls-1" points="12.7 37.67 7.97 79.37 123.38 80.34 119.22 37.8 12.7 37.67"/><path class="cls-1" d="M123.54,80.43c5,24,6.41,53.2,7.07,85.26.77,37.41-.27,70.5-5.55,97.4l-51.14.07V148.05H62.28V263.16H6.93q-1-5-1.95-10.33C.6,228,.06,198.44.75,165.69,1.42,133.63,3,103.35,8.16,79.37"/><line class="cls-1" x1="62.28" y1="240.29" x2="4.02" y2="240.14"/><line class="cls-1" x1="127.26" y1="240.47" x2="73.92" y2="240.32"/><text class="cls-2" transform="translate(72.05 26.38)">A</text><text class="cls-2" transform="translate(131.46 117.86)">C</text><polyline class="cls-1" points="16.29 49.68 10.64 57.5 16.29 65.82"/><line class="cls-3" x1="121.26" y1="57.63" x2="68.33" y2="57.63"/><polyline class="cls-3" points="116.81 50.14 121.23 57.63 117.02 64.56"/><polyline class="cls-3" points="11.21 57.63 64.13 57.63 68.33 57.63"/><polyline class="cls-3" points="15.65 50.14 11.23 57.63 15.45 64.56"/><text class="cls-2" transform="translate(127.78 57.2)">B</text><polyline class="cls-3" points="50.04 256.02 42.59 262.3 35.62 256.39"/><polyline class="cls-3" points="42.36 148.88 42.71 211.75 42.73 216.74 42.7 262"/><polyline class="cls-3" points="49.88 154.12 42.36 148.91 35.45 153.96"/><line class="cls-3" x1="62.28" y1="148.05" x2="35.06" y2="148.05"/><text class="cls-2" transform="translate(20.51 236.58)">D</text><polyline class="cls-3" points="91.74 255.99 84.28 262.27 77.32 256.36"/><polyline class="cls-3" points="115.96 255.99 108.51 262.27 101.54 256.36"/><polyline class="cls-3" points="84.06 38.12 84.41 100.99 84.43 105.98 84.39 151.25 84.28 262.27"/><polyline class="cls-3" points="91.57 43.36 84.06 38.15 77.15 43.2"/><polyline class="cls-3" points="108.28 81.95 108.63 144.82 108.66 149.81 108.62 195.07 108.51 262.27"/><polyline class="cls-3" points="115.8 87.19 108.28 81.98 101.37 87.03"/></g></g></svg>